<svg xmlns="http://www.w3.org/2000/svg" width="115.989" height="109.885" viewBox="0 0 115.989 109.885">
  <defs>
    <style>
      .cls-1 {
        fill: #fff;
      }

      .cls-2 {
        fill: #5cc1dd;
      }

      .cls-3 {
        fill: #38404f;
      }

      .cls-4 {
        fill: #f9b942;
      }
    </style>
  </defs>
  <g id="Group_142" data-name="Group 142" transform="translate(-1272.319 83.657)">
    <g id="Group_142-2" data-name="Group 142" transform="translate(1272.319 8.18)">
      <path id="Path_379" data-name="Path 379" class="cls-1" d="M1273.682,298.043a3.449,3.449,0,0,0,.831,1.766,2.313,2.313,0,0,0,1.706.582,2.662,2.662,0,0,0,1.055-.2,1.633,1.633,0,0,0,.751-.641,2.016,2.016,0,0,0,.284-1.109,2.348,2.348,0,0,0-.229-1.07,2.7,2.7,0,0,0-.736-.861,8.25,8.25,0,0,0-1.413-.865,13.167,13.167,0,0,1-1.4-.806,5.442,5.442,0,0,1-1.07-.92,3.854,3.854,0,0,1-.687-1.1,3.848,3.848,0,0,1,.363-3.423,3.714,3.714,0,0,1,1.756-1.3,7.369,7.369,0,0,1,2.661-.443,14.408,14.408,0,0,1,1.692.1,17.107,17.107,0,0,1,1.841.333v2.885h-1.364a4.184,4.184,0,0,0-.482-1.249,1.848,1.848,0,0,0-.732-.681,2.792,2.792,0,0,0-2.12-.019,1.6,1.6,0,0,0-.706.591,1.688,1.688,0,0,0-.259.951,2.1,2.1,0,0,0,.224,1,2.622,2.622,0,0,0,.751.826,10.622,10.622,0,0,0,1.532.921,9.958,9.958,0,0,1,1.925,1.249,4.017,4.017,0,0,1,1.035,1.334,3.955,3.955,0,0,1,.333,1.676,3.9,3.9,0,0,1-.567,2.125,3.632,3.632,0,0,1-1.651,1.383,6.114,6.114,0,0,1-2.507.482,20.363,20.363,0,0,1-2.115-.115,17.3,17.3,0,0,1-2.065-.333v-3.064Z" transform="translate(-1272.319 -283.506)"/>
      <path id="Path_380" data-name="Path 380" class="cls-1" d="M1324.586,294.452a10.6,10.6,0,0,0,.722,4.472,2.337,2.337,0,0,0,2.2,1.467,2.076,2.076,0,0,0,1.3-.413,2.942,2.942,0,0,0,.87-1.154,6.516,6.516,0,0,0,.478-1.756,15.944,15.944,0,0,0,.144-2.228,14.813,14.813,0,0,0-.314-3.319,4.411,4.411,0,0,0-.945-2.019,2.109,2.109,0,0,0-1.617-.681,2.277,2.277,0,0,0-2.145,1.378,9.8,9.8,0,0,0-.7,4.254m2.7,7.1a5.471,5.471,0,0,1-4.393-1.711,7.7,7.7,0,0,1-1.468-5.124,9.306,9.306,0,0,1,.712-3.826,5.192,5.192,0,0,1,2.094-2.413,6.3,6.3,0,0,1,3.293-.826,5.618,5.618,0,0,1,4.468,1.706,7.506,7.506,0,0,1,1.492,5.069,10.418,10.418,0,0,1-.443,3.229,5.826,5.826,0,0,1-1.259,2.214,4.936,4.936,0,0,1-1.955,1.274,7.508,7.508,0,0,1-2.542.408" transform="translate(-1308.729 -283.507)"/>
      <path id="Path_381" data-name="Path 381" class="cls-1" d="M1387.8,289.455v5.532h.985a3.471,3.471,0,0,0,1.313-.214,1.993,1.993,0,0,0,.821-.6,2.193,2.193,0,0,0,.418-.9,5.3,5.3,0,0,0,.114-1.134,2.863,2.863,0,0,0-.637-2.03,2.476,2.476,0,0,0-1.89-.677q-.856,0-1.125.02m1.075,12.4h-5.224V301.2a2.878,2.878,0,0,0,.582-.214.739.739,0,0,0,.319-.319,1.427,1.427,0,0,0,.134-.517q.03-.313.03-.791v-8.577q0-.468-.025-.786a1.333,1.333,0,0,0-.129-.517.8.8,0,0,0-.319-.323,2.43,2.43,0,0,0-.592-.224v-.657h5.8a10.369,10.369,0,0,1,2,.164,5.039,5.039,0,0,1,1.437.5,2.991,2.991,0,0,1,.875.7,3.056,3.056,0,0,1,.553.985,4.012,4.012,0,0,1,.194,1.308,3.75,3.75,0,0,1-.343,1.672,3.355,3.355,0,0,1-.925,1.159,6.624,6.624,0,0,1-1.557.87v.1a3.492,3.492,0,0,1,1.219.851,5.519,5.519,0,0,1,.87,1.348l.627,1.353a5.409,5.409,0,0,0,.831,1.359,1.7,1.7,0,0,0,.98.552v.656h-3.83a14.694,14.694,0,0,1-1.3-2.368l-.776-1.7a5.865,5.865,0,0,0-.6-1.074,1.414,1.414,0,0,0-.513-.438,2.066,2.066,0,0,0-.811-.119h-.577v3.2a5.292,5.292,0,0,0,.07,1.045.9.9,0,0,0,.268.478,1.858,1.858,0,0,0,.736.318Z" transform="translate(-1354.87 -283.963)"/>
      <path id="Path_382" data-name="Path 382" class="cls-1" d="M1445.422,294.452a10.6,10.6,0,0,0,.721,4.472,2.337,2.337,0,0,0,2.2,1.467,2.076,2.076,0,0,0,1.3-.413,2.938,2.938,0,0,0,.87-1.154,6.53,6.53,0,0,0,.477-1.756,15.925,15.925,0,0,0,.145-2.228,14.821,14.821,0,0,0-.314-3.319,4.411,4.411,0,0,0-.945-2.019,2.107,2.107,0,0,0-1.617-.681,2.277,2.277,0,0,0-2.145,1.378,9.807,9.807,0,0,0-.7,4.254m2.7,7.1a5.471,5.471,0,0,1-4.393-1.711,7.7,7.7,0,0,1-1.468-5.124,9.312,9.312,0,0,1,.712-3.826,5.193,5.193,0,0,1,2.094-2.413,6.3,6.3,0,0,1,3.293-.826,5.618,5.618,0,0,1,4.468,1.706,7.506,7.506,0,0,1,1.492,5.069,10.4,10.4,0,0,1-.443,3.229,5.821,5.821,0,0,1-1.259,2.214,4.936,4.936,0,0,1-1.955,1.274,7.506,7.506,0,0,1-2.542.408" transform="translate(-1398.328 -283.507)"/>
      <path id="Path_383" data-name="Path 383" class="cls-1" d="M1515.55,299.206q.389.6.651.951a5.3,5.3,0,0,0,.463.552,1.7,1.7,0,0,0,.394.3,2.565,2.565,0,0,0,.512.195v.646h-5.393V301.2a.864.864,0,0,0,.458-.164.4.4,0,0,0,.12-.3,1.144,1.144,0,0,0-.045-.314,2.468,2.468,0,0,0-.214-.453q-.169-.3-.687-1.094l-1.521-2.349a6.763,6.763,0,0,0-.483-.666,1.394,1.394,0,0,0-.408-.343,1.255,1.255,0,0,0-.563-.1h-.2v3.95q0,.348.02.647a2.135,2.135,0,0,0,.079.488.869.869,0,0,0,.174.318.949.949,0,0,0,.313.224,2.548,2.548,0,0,0,.488.164v.656h-5.224V301.2a2.87,2.87,0,0,0,.582-.214.734.734,0,0,0,.318-.319,1.43,1.43,0,0,0,.134-.517q.03-.313.03-.791v-8.577q0-.468-.025-.786a1.331,1.331,0,0,0-.13-.517.8.8,0,0,0-.318-.323,2.43,2.43,0,0,0-.592-.225v-.657h5.224v.657a2.153,2.153,0,0,0-.612.239.85.85,0,0,0-.288.309,1.39,1.39,0,0,0-.135.458,6.555,6.555,0,0,0-.04.845v3.543h.209a2.145,2.145,0,0,0,.727-.1,1.719,1.719,0,0,0,.552-.358q.284-.259,1.095-1.208t1.173-1.463a4.432,4.432,0,0,0,.5-.846,1.768,1.768,0,0,0,.134-.662.678.678,0,0,0-.234-.547,1.031,1.031,0,0,0-.661-.21v-.657h5.084v.677a2.341,2.341,0,0,0-.647.209,3.1,3.1,0,0,0-.616.453,11.912,11.912,0,0,0-.886.92l-2.985,3.343Z" transform="translate(-1444.47 -283.963)"/>
      <path id="Path_384" data-name="Path 384" class="cls-1" d="M1567,298.043a3.449,3.449,0,0,0,.831,1.766,2.314,2.314,0,0,0,1.706.582,2.662,2.662,0,0,0,1.055-.2,1.633,1.633,0,0,0,.751-.641,2.016,2.016,0,0,0,.284-1.109,2.348,2.348,0,0,0-.229-1.07,2.7,2.7,0,0,0-.736-.861,8.251,8.251,0,0,0-1.413-.865,13.177,13.177,0,0,1-1.4-.806,5.446,5.446,0,0,1-1.07-.92,3.854,3.854,0,0,1-.687-1.1,3.848,3.848,0,0,1,.363-3.423,3.715,3.715,0,0,1,1.755-1.3,7.377,7.377,0,0,1,2.662-.443,14.407,14.407,0,0,1,1.692.1,17.107,17.107,0,0,1,1.841.333v2.885h-1.364a4.187,4.187,0,0,0-.482-1.249,1.847,1.847,0,0,0-.732-.681,2.791,2.791,0,0,0-2.119-.019,1.6,1.6,0,0,0-.706.591,1.685,1.685,0,0,0-.259.951,2.1,2.1,0,0,0,.224,1,2.623,2.623,0,0,0,.751.826,10.631,10.631,0,0,0,1.532.921,9.958,9.958,0,0,1,1.925,1.249,4.017,4.017,0,0,1,1.035,1.334,3.957,3.957,0,0,1,.333,1.676,3.9,3.9,0,0,1-.567,2.125,3.631,3.631,0,0,1-1.651,1.383,6.116,6.116,0,0,1-2.508.482,20.361,20.361,0,0,1-2.114-.115,17.3,17.3,0,0,1-2.065-.333v-3.064Z" transform="translate(-1489.815 -283.506)"/>
      <path id="Path_385" data-name="Path 385" class="cls-1" d="M1619.252,271.606v.656l-4.04,2.627-.646-.7,2.428-2.587Zm-5.84,12.517h3.582l-1.593-5.6Zm3.87,1.164h-4.249l-.328.945a7.916,7.916,0,0,0-.229.771,3.368,3.368,0,0,0-.089.791.959.959,0,0,0,1.035,1.045v.656h-4.249v-.656a1.241,1.241,0,0,0,.646-.259,2.185,2.185,0,0,0,.508-.6,6.467,6.467,0,0,0,.487-1.084l4.149-11.054h2.657l3.283,11.144a7.908,7.908,0,0,0,.368,1.06,1.426,1.426,0,0,0,.388.507,1.549,1.549,0,0,0,.666.284v.656h-5.492v-.656a1.343,1.343,0,0,0,.766-.288.836.836,0,0,0,.249-.647,3.883,3.883,0,0,0-.069-.686c-.046-.252-.123-.571-.229-.955Z" transform="translate(-1522.095 -271.606)"/>
      <path id="Path_386" data-name="Path 386" class="cls-1" d="M1676.589,289.455v5.532h.985a3.471,3.471,0,0,0,1.313-.214,1.992,1.992,0,0,0,.821-.6,2.192,2.192,0,0,0,.419-.9,5.288,5.288,0,0,0,.114-1.134,2.863,2.863,0,0,0-.637-2.03,2.476,2.476,0,0,0-1.89-.677q-.856,0-1.125.02m1.075,12.4h-5.224V301.2a2.881,2.881,0,0,0,.582-.214.739.739,0,0,0,.319-.319,1.441,1.441,0,0,0,.135-.517q.029-.313.029-.791v-8.577q0-.468-.025-.786a1.339,1.339,0,0,0-.129-.517.8.8,0,0,0-.319-.323,2.429,2.429,0,0,0-.592-.224v-.657h5.8a10.368,10.368,0,0,1,2,.164,5.037,5.037,0,0,1,1.437.5,3,3,0,0,1,.875.7,3.058,3.058,0,0,1,.553.985,4.012,4.012,0,0,1,.194,1.308,3.75,3.75,0,0,1-.343,1.672,3.357,3.357,0,0,1-.925,1.159,6.624,6.624,0,0,1-1.557.87v.1a3.491,3.491,0,0,1,1.219.851,5.519,5.519,0,0,1,.87,1.348l.627,1.353a5.4,5.4,0,0,0,.831,1.359,1.7,1.7,0,0,0,.98.552v.656h-3.831a14.759,14.759,0,0,1-1.3-2.368l-.776-1.7a5.858,5.858,0,0,0-.6-1.074,1.414,1.414,0,0,0-.513-.438,2.061,2.061,0,0,0-.811-.119h-.577v3.2a5.3,5.3,0,0,0,.07,1.045.9.9,0,0,0,.268.478,1.858,1.858,0,0,0,.736.318Z" transform="translate(-1569.007 -283.963)"/>
    </g>
    <g id="Group_143" data-name="Group 143" transform="translate(1296.875 -83.657)">
      <path id="Path_387" data-name="Path 387" class="cls-2" d="M1383.948,53.141l1.858,14.544c19.231-1.471,39.809-10.93,56.415-14.512q.4-3.109.794-6.216c-17,1.263-32.554,8.249-59.066,6.184" transform="translate(-1379.648 -13.193)"/>
      <path id="Path_388" data-name="Path 388" class="cls-3" d="M1391.478,88.193a3.935,3.935,0,0,0,1.72,2.815,4.439,4.439,0,0,0,.753,1.176l21.644,24.112a3.72,3.72,0,0,0,5.643,0l21.644-24.112a4.433,4.433,0,0,0,.752-1.176,3.933,3.933,0,0,0,1.721-2.815q1.1-8.594,2.2-17.188c-16.606,3.582-37.184,13.041-56.414,14.512q.171,1.338.342,2.676" transform="translate(-1384.978 -31.024)"/>
      <path id="Path_389" data-name="Path 389" class="cls-4" d="M1430.2-81.641a216.146,216.146,0,0,0-58.906,0c-2.465.338-4.234,2.381-3.957,4.5l4.271,33.432c26.512,2.065,42.066-4.921,59.066-6.184q1.741-13.624,3.481-27.248c.278-2.119-1.491-4.162-3.957-4.5" transform="translate(-1367.313 83.657)"/>
      <path id="Path_390" data-name="Path 390" class="cls-3" d="M1447.551,71c-16.606,3.582-37.184,13.041-56.414,14.512q.171,1.338.342,2.676a4.042,4.042,0,0,0,.946,2.132l0,0,1.515,1.839h0l.014.018L1415.6,116.3a3.72,3.72,0,0,0,5.643,0l21.644-24.112.015-.019,1.512-1.836h0a4.038,4.038,0,0,0,.947-2.134q1.1-8.594,2.2-17.188" transform="translate(-1384.979 -31.024)"/>
      <path id="Path_391" data-name="Path 391" class="cls-1" d="M1491.3,45.378a1.3,1.3,0,1,1-1.3,1.3,1.306,1.306,0,0,1,1.3-1.3m0,3.175a1.87,1.87,0,1,0-1.871-1.871,1.873,1.873,0,0,0,1.871,1.871" transform="translate(-1457.863 -11.602)"/>
      <path id="Path_392" data-name="Path 392" class="cls-1" d="M1489.782,145.079h2.719V147.8h-2.719Zm-.566,3.286h3.852v-3.851h-3.852Z" transform="translate(-1457.704 -85.53)"/>
      <path id="Path_393" data-name="Path 393" class="cls-1" d="M1492.117,73.218h-3.132V66.833a1.566,1.566,0,0,1,3.132,0Zm.566-6.385a2.133,2.133,0,0,0-4.265,0v6.951h4.265Z" transform="translate(-1457.112 -26.35)"/>
      <path id="Path_394" data-name="Path 394" class="cls-1" d="M1489.81,221.235a2.393,2.393,0,0,0-2.391,2.391v4.48a3.934,3.934,0,0,0,.566.395v-4.874a1.825,1.825,0,0,1,3.649,0V228.5a3.9,3.9,0,0,0,.566-.395v-4.48a2.393,2.393,0,0,0-2.391-2.391" transform="translate(-1456.371 -142.42)"/>
      <rect id="Rectangle_137" data-name="Rectangle 137" class="cls-1" width="0.566" height="6.374" transform="translate(37.473 57.721)"/>
      <rect id="Rectangle_138" data-name="Rectangle 138" class="cls-1" width="0.566" height="6.374" transform="translate(28.836 57.721)"/>
      <rect id="Rectangle_139" data-name="Rectangle 139" class="cls-1" width="0.566" height="9.927" transform="translate(37.16 38.282)"/>
      <rect id="Rectangle_140" data-name="Rectangle 140" class="cls-1" width="0.566" height="9.927" transform="translate(29.15 38.282)"/>
      <path id="Path_395" data-name="Path 395" class="cls-1" d="M1484.905,140.2h5.24v5.24h-5.24Zm-.566,5.808h6.373v-6.373h-6.373Z" transform="translate(-1454.088 -81.914)"/>
      <path id="Path_396" data-name="Path 396" class="cls-1" d="M1481.9-14.8l-.127.425h-13.216l-.128-.425H1481.9Zm-.745-6.021h-12.6l-.128-.425H1481.9l-.127.425h-.618Zm-8.579,5.455h-3.4v-4.889h3.4Zm4.612-4.889v4.889h-4.045v-4.889h4.045Zm3.967,4.889h-3.4v-4.889h3.4Zm-11.98-21.278h3.287v-.489a2.457,2.457,0,0,1,2.6-1.835l.106,0,.107,0a2.458,2.458,0,0,1,2.6,1.835v.489h3.287V-21.81h-11.98Zm2.656-2.533a3.041,3.041,0,0,0-.4-1.8,1.063,1.063,0,0,0-.743-.506.65.65,0,0,1-.487-.261.819.819,0,0,1-.059-.644c.14-.481.873-.7,1.464-.8a1.987,1.987,0,0,0,1.685-1.938l.134-.181-.787-.581.431-.328-.035-5.323-.339-.367c.483-.162,1.138-.5,1.057-1.12a.916.916,0,0,0-.483-.832c-.072-.054-.163-.121-.274-.209a.57.57,0,0,1-.19-.6.5.5,0,0,1,.4-.391c.426-.071.827-.689.94-.877l.026-.042.957-4.827.039-.2.04.2.957,4.827.025.042c.113.188.514.807.94.877a.5.5,0,0,1,.4.391.57.57,0,0,1-.19.6c-.111.088-.2.155-.273.209a.917.917,0,0,0-.484.832c-.081.621.574.957,1.058,1.12l-.341.367-.034,5.323.431.328-.786.581.134.181a1.987,1.987,0,0,0,1.685,1.938c.59.1,1.324.324,1.464.8a.817.817,0,0,1-.059.644.651.651,0,0,1-.488.261,1.064,1.064,0,0,0-.742.506,3.032,3.032,0,0,0-.4,1.8,3.746,3.746,0,0,0,1.911,1.966h-1.983a3.018,3.018,0,0,0-3.156-2.324l-.107,0-.106,0a3.019,3.019,0,0,0-3.157,2.324h-1.983a3.747,3.747,0,0,0,1.912-1.966m2.8-23.437a.535.535,0,0,1,.535-.535.535.535,0,0,1,.536.535.536.536,0,0,1-.536.535.536.536,0,0,1-.535-.535m7.565,42.36.468-1.558h-.941V-36.641h.636v-.566h-.6l-.04-.015v-.038h-.1c-.566-.226-2.281-.99-2.575-2.057a2.6,2.6,0,0,1,.349-1.38.482.482,0,0,1,.321-.223,1.19,1.19,0,0,0,.887-.513,1.364,1.364,0,0,0,.127-1.111c-.178-.611-.822-1.016-1.911-1.2a1.414,1.414,0,0,1-1.213-1.375l1.027-.759-.807-.614.032-4.819.862-.93-.508-.092c-.393-.072-1.112-.327-1.075-.615a1.058,1.058,0,0,1,.058-.281.989.989,0,0,1,.2-.169c.077-.056.171-.127.289-.22a1.127,1.127,0,0,0,.386-1.181,1.066,1.066,0,0,0-.854-.807,1.583,1.583,0,0,1-.523-.569l-1.076-5.426a1.1,1.1,0,0,0,.645-1,1.1,1.1,0,0,0-.868-1.076v-1.045h.684V-65.3h-.684v-.955h-.467v.955h-.684v.566h.684v1.045a1.1,1.1,0,0,0-.868,1.076,1.1,1.1,0,0,0,.645,1l-1.076,5.426a1.593,1.593,0,0,1-.522.569,1.064,1.064,0,0,0-.854.807,1.126,1.126,0,0,0,.386,1.181c.118.094.213.164.288.22a.994.994,0,0,1,.2.169,1.066,1.066,0,0,1,.057.281c.038.288-.682.543-1.074.615l-.508.092.861.93.031,4.819-.806.614,1.027.759a1.413,1.413,0,0,1-1.213,1.375c-1.09.188-1.733.593-1.911,1.2a1.361,1.361,0,0,0,.127,1.111,1.189,1.189,0,0,0,.887.513.481.481,0,0,1,.322.223,2.6,2.6,0,0,1,.349,1.38c-.294,1.068-2.009,1.831-2.576,2.057h-.1v.038l-.039.015h-.6v.566h.636V-21.81h-.94l.468,1.558h.473v4.889h-.94l.468,1.558h14.058l.468-1.558h-.941v-4.889Z" transform="translate(-1441.724 70.753)"/>
      <path id="Path_397" data-name="Path 397" class="cls-1" d="M1458.239,144.713h-1.232a.885.885,0,0,1-.427-1.66h0a.882.882,0,0,1,.426-.11h1.232a.885.885,0,0,1,0,1.771m-1.849-4.455c.21-.109.567-.264.749-.337a.36.36,0,0,0,.183-.164.356.356,0,0,0,.183.164c.182.073.539.227.75.337-.829.067-.885.273-.916.388a.366.366,0,0,0,.194.416c.042.026.071.047.092.063l-.043.079c-.031.057-.071.127-.113.212a.83.83,0,0,0,.286.96h-.748c-.041,0-.083,0-.123.006a.835.835,0,0,0,.292-.965c-.042-.084-.081-.155-.113-.212l-.044-.079c.021-.016.051-.036.092-.063a.365.365,0,0,0,.194-.416c-.031-.115-.087-.321-.915-.388m.932-1.585a2.652,2.652,0,0,0,.251.227.289.289,0,1,1-.5,0,2.682,2.682,0,0,0,.251-.227m-11.945,18.343h-10.953v-8.365h10.953Zm-22.582-12.3h-1.233a.885.885,0,1,1,0-1.771h1.233a.882.882,0,0,1,.426.11h0a.885.885,0,0,1-.428,1.66m-1.248-4.455c.21-.109.566-.264.749-.337a.185.185,0,0,1,.367,0c.182.073.539.228.749.337-.828.067-.885.273-.915.388a.366.366,0,0,0,.194.416c.042.026.071.047.092.063-.013.025-.029.054-.043.079-.032.057-.071.127-.114.212a.834.834,0,0,0,.292.965c-.041,0-.082-.006-.123-.006h-.749a.83.83,0,0,0,.286-.96c-.042-.084-.081-.155-.113-.212l-.043-.079c.021-.016.051-.036.092-.063a.367.367,0,0,0,.195-.416c-.031-.115-.087-.321-.915-.388m.932-1.585a2.7,2.7,0,0,0,.251.227,1.508,1.508,0,0,0-.251.434,1.491,1.491,0,0,0-.251-.434,2.511,2.511,0,0,0,.251-.227m37.212,5.155a1.454,1.454,0,0,0-1.025-1.387.286.286,0,0,0-.132-.174c-.322-.189-.609-.5-.559-.6.037-.074.072-.136.1-.191.142-.257.194-.446.057-.637.121-.015.26-.027.393-.033a.281.281,0,0,0,.23-.134.586.586,0,0,0-.091-.834,7.371,7.371,0,0,0-.788-.377.843.843,0,0,1,.169-.243.3.3,0,0,0,.258-.2c.072-.214-.091-.338-.248-.459a2.077,2.077,0,0,1-.448-.425.406.406,0,0,0-.572,0,2.09,2.09,0,0,1-.448.424c-.158.121-.321.245-.249.459a.3.3,0,0,0,.258.2.844.844,0,0,1,.17.243,7.309,7.309,0,0,0-.788.377.585.585,0,0,0-.091.834.283.283,0,0,0,.23.134c.133.006.272.018.393.033-.137.191-.086.38.057.637.031.055.065.117.1.191.051.1-.237.407-.559.6a.285.285,0,0,0-.1.108,1.493,1.493,0,0,1-.333-.135l-.164-.109-.157.117-.466.337a3.415,3.415,0,0,1-2.526.487c-1.432-.217-3.7-1.291-6.417-5.163v-1.2h-.566v11.374h-10.953V136.711h-.566v1.2c-2.713,3.872-4.985,4.945-6.417,5.163a3.416,3.416,0,0,1-2.526-.487l-.465-.337-.157-.117-.163.109a1.523,1.523,0,0,1-.334.135.285.285,0,0,0-.1-.108c-.322-.189-.61-.5-.559-.6.036-.074.072-.136.1-.191.143-.257.194-.446.057-.637.121-.015.26-.027.393-.033a.284.284,0,0,0,.23-.134.586.586,0,0,0-.091-.834,7.331,7.331,0,0,0-.788-.377.848.848,0,0,1,.17-.243.3.3,0,0,0,.258-.2c.072-.214-.091-.338-.248-.459a2.081,2.081,0,0,1-.449-.424.406.406,0,0,0-.572,0,2.084,2.084,0,0,1-.448.425c-.157.12-.32.245-.248.459a.3.3,0,0,0,.258.2.86.86,0,0,1,.169.243,7.343,7.343,0,0,0-.789.377.586.586,0,0,0-.091.834.282.282,0,0,0,.23.134c.133.006.272.018.393.033-.137.191-.086.38.057.637.03.055.064.117.1.191.05.1-.237.406-.559.6a.286.286,0,0,0-.132.174,1.454,1.454,0,0,0-1.025,1.387v2.285l.566.631v-1.767a1.443,1.443,0,0,0,.885.3h1.233a1.451,1.451,0,0,0,1.136-2.354,2.516,2.516,0,0,0,.328-.117l.311.225a3.788,3.788,0,0,0,2.23.654,4.847,4.847,0,0,0,.7-.052,6.989,6.989,0,0,0,3.073-1.365,16.162,16.162,0,0,0,3.282-3.4v9.21h-11.977l.508.566h11.468v2.7h-9.045l.508.566h8.536v1.32h-7.351l.509.566h6.843v3.212H1429.9l.509.566h4.622v5.148l.566.63v-5.779h8.612v5.779l.566-.63v-5.148h4.621l.508-.566h-3.959V153.8h6.843l.508-.566h-7.351v-1.32h8.536l.509-.566h-9.045v-2.7h11.468l.509-.566h-11.977v-9.21a16.177,16.177,0,0,0,3.282,3.4,6.987,6.987,0,0,0,3.073,1.365,4.845,4.845,0,0,0,.7.052,3.785,3.785,0,0,0,2.229-.654l.311-.225a2.523,2.523,0,0,0,.329.117,1.45,1.45,0,0,0,1.135,2.354h1.232a1.443,1.443,0,0,0,.885-.3v1.767l.566-.631v-2.285" transform="translate(-1406.462 -79.745)"/>
    </g>
  </g>
</svg>
