<svg xmlns="http://www.w3.org/2000/svg" width="635.263" height="116.476" viewBox="0 0 635.263 116.476">
  <defs>
    <style>
      .cls-1 {
        fill: #5cc1dd;
      }

      .cls-2 {
        fill: #38404f;
      }

      .cls-3 {
        fill: #f9b942;
      }

      .cls-4 {
        fill: #fff;
      }
    </style>
  </defs>
  <g id="Group_141" data-name="Group 141" transform="translate(-1349.049 413.999)">
    <path id="Path_359" data-name="Path 359" class="cls-1" d="M1361.143-310.716q1.251,9.785,2.5,19.569c25.875-1.979,53.563-14.707,75.906-19.525q.534-4.183,1.068-8.365c-22.874,1.7-43.8,11.1-79.474,8.321" transform="translate(-6.308 -49.533)"/>
    <path id="Path_360" data-name="Path 360" class="cls-2" d="M1366.829-278.426a5.29,5.29,0,0,0,2.314,3.787,5.968,5.968,0,0,0,1.013,1.583l29.123,32.442a5.066,5.066,0,0,0,3.8,1.744,5.068,5.068,0,0,0,3.8-1.744l29.121-32.442a5.959,5.959,0,0,0,1.013-1.583,5.29,5.29,0,0,0,2.314-3.787q1.479-11.563,2.955-23.126c-22.343,4.82-50.031,17.547-75.906,19.525l.461,3.6" transform="translate(-9.033 -58.654)"/>
    <path id="Path_361" data-name="Path 361" class="cls-3" d="M1433.669-411.287A291.193,291.193,0,0,0,1394.04-414a291.186,291.186,0,0,0-39.628,2.711c-3.318.455-5.7,3.2-5.324,6.056q2.875,22.491,5.747,44.982c35.671,2.778,56.6-6.621,79.474-8.321q2.341-18.331,4.684-36.661c.373-2.853-2.006-5.6-5.324-6.056" transform="translate(0 0)"/>
    <path id="Path_362" data-name="Path 362" class="cls-2" d="M1442.276-301.552c-22.343,4.82-50.031,17.547-75.905,19.525q.229,1.8.459,3.6a5.424,5.424,0,0,0,1.274,2.869l-.005,0,2.038,2.475h0c.007.007.01.016.017.022l29.123,32.443a5.061,5.061,0,0,0,3.8,1.743,5.063,5.063,0,0,0,3.8-1.743l29.121-32.443c.008-.008.013-.017.02-.025l2.034-2.471v0a5.427,5.427,0,0,0,1.274-2.87q1.479-11.564,2.955-23.127" transform="translate(-9.035 -58.654)"/>
    <path id="Path_363" data-name="Path 363" class="cls-4" d="M1440.352-319.834a1.757,1.757,0,0,1,1.755,1.755,1.757,1.757,0,0,1-1.755,1.755,1.757,1.757,0,0,1-1.755-1.755,1.757,1.757,0,0,1,1.755-1.755m0,4.272a2.519,2.519,0,0,0,2.517-2.517,2.519,2.519,0,0,0-2.517-2.516,2.519,2.519,0,0,0-2.517,2.516,2.52,2.52,0,0,0,2.517,2.517" transform="translate(-46.312 -48.721)"/>
    <path id="Path_364" data-name="Path 364" class="cls-4" d="M1438.441-247.346h3.659v3.659h-3.659Zm-.762,4.42h5.182v-5.182h-5.182Z" transform="translate(-46.23 -86.53)"/>
    <path id="Path_365" data-name="Path 365" class="cls-4" d="M1442.076-294.676h-4.215v-8.59a2.11,2.11,0,0,1,2.108-2.107,2.109,2.109,0,0,1,2.107,2.107Zm.763-8.59a2.872,2.872,0,0,0-2.869-2.869,2.871,2.871,0,0,0-2.869,2.869v9.352h5.738Z" transform="translate(-45.928 -56.263)"/>
    <path id="Path_366" data-name="Path 366" class="cls-4" d="M1439.589-192.326a3.221,3.221,0,0,0-3.217,3.217v6.027a5.293,5.293,0,0,0,.762.531v-6.557a2.458,2.458,0,0,1,2.455-2.455,2.457,2.457,0,0,1,2.455,2.455v6.557a5.284,5.284,0,0,0,.763-.531v-6.027a3.221,3.221,0,0,0-3.217-3.217" transform="translate(-45.548 -115.627)"/>
    <rect id="Rectangle_133" data-name="Rectangle 133" class="cls-4" width="0.761" height="8.574" transform="translate(1399.471 -336.334)"/>
    <rect id="Rectangle_134" data-name="Rectangle 134" class="cls-4" width="0.762" height="8.574" transform="translate(1387.849 -336.334)"/>
    <rect id="Rectangle_135" data-name="Rectangle 135" class="cls-4" width="0.761" height="13.356" transform="translate(1399.049 -362.491)"/>
    <rect id="Rectangle_136" data-name="Rectangle 136" class="cls-4" width="0.762" height="13.356" transform="translate(1388.27 -362.491)"/>
    <path id="Path_367" data-name="Path 367" class="cls-4" d="M1434.9-250.893h7.051v7.051H1434.9Zm-.761,7.814h8.576v-8.576h-8.576Z" transform="translate(-44.382 -84.681)"/>
    <path id="Path_368" data-name="Path 368" class="cls-4" d="M1441.16-332.111l-.171.573h-17.782l-.172-.573h18.125Zm-1-8.1h-16.95l-.172-.572h18.125l-.171.572h-.833Zm-11.542,7.34h-4.576v-6.577h4.576Zm6.205-6.577v6.577h-5.443v-6.577h5.443Zm5.337,6.577h-4.576v-6.577h4.576ZM1424.038-361.5h4.424v-.658c.177-1.386,1.675-2.469,3.492-2.469l.143,0,.144,0c1.816,0,3.314,1.084,3.492,2.469v.658h4.423v19.955h-16.119Zm3.573-3.409a4.074,4.074,0,0,0-.539-2.424,1.431,1.431,0,0,0-1-.68.878.878,0,0,1-.655-.351,1.1,1.1,0,0,1-.079-.867c.189-.646,1.175-.945,1.969-1.083a2.671,2.671,0,0,0,2.267-2.607l.18-.243-1.058-.782.58-.441-.047-7.161-.458-.5c.651-.218,1.531-.671,1.423-1.506a1.231,1.231,0,0,0-.65-1.118c-.1-.073-.22-.163-.368-.282a.766.766,0,0,1-.255-.8.672.672,0,0,1,.535-.525c.575-.1,1.114-.928,1.265-1.181l.034-.057,1.287-6.494.053-.27.054.27,1.286,6.494.035.057c.152.253.692,1.085,1.265,1.181a.672.672,0,0,1,.536.525.766.766,0,0,1-.255.8c-.149.119-.271.209-.368.282a1.233,1.233,0,0,0-.651,1.118c-.107.835.773,1.288,1.424,1.506l-.458.5-.047,7.161.58.441-1.059.782.18.243a2.673,2.673,0,0,0,2.267,2.607c.794.137,1.781.437,1.969,1.083a1.1,1.1,0,0,1-.078.867.879.879,0,0,1-.656.351,1.431,1.431,0,0,0-1,.68,4.1,4.1,0,0,0-.539,2.424,5.04,5.04,0,0,0,2.573,2.646h-2.668c-.231-1.756-2.047-3.127-4.247-3.127l-.144,0-.143,0c-2.2,0-4.015,1.371-4.247,3.127h-2.668a5.038,5.038,0,0,0,2.571-2.646m3.766-31.534a.721.721,0,0,1,.72-.72.721.721,0,0,1,.72.72.721.721,0,0,1-.72.72.721.721,0,0,1-.72-.72m10.178,57,.629-2.1h-1.265V-361.5h.855v-.763h-.8l-.052-.02v-.052h-.133c-.762-.3-3.07-1.333-3.466-2.768a3.5,3.5,0,0,1,.47-1.857.649.649,0,0,1,.433-.3,1.6,1.6,0,0,0,1.192-.691,1.834,1.834,0,0,0,.172-1.5c-.24-.822-1.1-1.367-2.571-1.62a1.9,1.9,0,0,1-1.632-1.851l1.383-1.022-1.085-.826.043-6.485,1.159-1.252-.683-.124c-.528-.1-1.5-.44-1.447-.827a1.45,1.45,0,0,1,.078-.378,1.33,1.33,0,0,1,.271-.226c.1-.076.229-.171.388-.3a1.514,1.514,0,0,0,.519-1.589,1.432,1.432,0,0,0-1.147-1.087,2.119,2.119,0,0,1-.7-.766l-1.447-7.3a1.484,1.484,0,0,0,.867-1.348,1.487,1.487,0,0,0-1.167-1.449V-399.3h.92v-.763h-.92v-1.285h-.629v1.285h-.921v.763h.921v1.406a1.487,1.487,0,0,0-1.168,1.449,1.486,1.486,0,0,0,.868,1.348l-1.448,7.3a2.12,2.12,0,0,1-.7.766,1.433,1.433,0,0,0-1.149,1.087,1.516,1.516,0,0,0,.519,1.589c.159.126.287.221.389.3a1.377,1.377,0,0,1,.271.226,1.458,1.458,0,0,1,.077.378c.05.388-.917.73-1.445.827l-.684.124,1.159,1.252.043,6.485-1.085.826,1.383,1.022a1.9,1.9,0,0,1-1.632,1.851c-1.466.253-2.33.8-2.571,1.62a1.84,1.84,0,0,0,.172,1.5,1.608,1.608,0,0,0,1.194.691.649.649,0,0,1,.433.3,3.482,3.482,0,0,1,.468,1.857c-.4,1.436-2.7,2.464-3.464,2.768h-.133v.052l-.054.02h-.8v.763h.856v19.955h-1.266l.63,2.1h.636v6.577h-1.266l.63,2.1h18.915l.629-2.1h-1.265v-6.577Z" transform="translate(-38.058 -6.598)"/>
    <path id="Path_369" data-name="Path 369" class="cls-4" d="M1438.738-243.013h-1.659a1.193,1.193,0,0,1-1.191-1.191,1.193,1.193,0,0,1,.615-1.043h0v0a1.2,1.2,0,0,1,.573-.147h1.659a1.193,1.193,0,0,1,1.191,1.191,1.193,1.193,0,0,1-1.191,1.191m-2.488-5.994c.283-.147.762-.355,1.008-.453a.48.48,0,0,0,.246-.222.483.483,0,0,0,.246.222c.245.1.725.306,1.008.453-1.116.091-1.19.368-1.232.522a.493.493,0,0,0,.262.56c.055.035.1.063.123.083-.017.034-.04.073-.058.107-.042.077-.1.172-.152.286a1.117,1.117,0,0,0,.385,1.291h-1.007c-.055,0-.111,0-.165.008a1.121,1.121,0,0,0,.393-1.3c-.057-.113-.11-.209-.152-.286-.02-.034-.041-.073-.058-.107.028-.02.067-.048.123-.085a.493.493,0,0,0,.262-.559c-.042-.155-.118-.431-1.232-.522m1.254-2.132a3.718,3.718,0,0,0,.338.3,2.008,2.008,0,0,0-.338.584,2.008,2.008,0,0,0-.337-.584,3.94,3.94,0,0,0,.337-.3m-16.072,24.68h-14.739v-11.256h14.739Zm-30.385-16.554h-1.658a1.193,1.193,0,0,1-1.191-1.191,1.193,1.193,0,0,1,1.191-1.191h1.658a1.2,1.2,0,0,1,.573.147v0h0a1.193,1.193,0,0,1,.615,1.043,1.193,1.193,0,0,1-1.191,1.191m-1.679-5.994c.283-.147.764-.355,1.008-.453a.48.48,0,0,0,.246-.222.483.483,0,0,0,.246.222c.246.1.725.306,1.008.453-1.114.091-1.19.368-1.232.522a.493.493,0,0,0,.262.559c.055.037.1.065.123.085-.017.034-.038.073-.058.107-.043.077-.1.172-.152.286a1.122,1.122,0,0,0,.393,1.3c-.054-.005-.109-.008-.166-.008h-1.007a1.116,1.116,0,0,0,.385-1.291c-.057-.113-.109-.209-.152-.286-.019-.034-.041-.073-.058-.107.028-.02.068-.048.124-.083a.492.492,0,0,0,.262-.56c-.042-.155-.116-.431-1.232-.522m1.254-2.132a4.036,4.036,0,0,0,.338.3,2.047,2.047,0,0,0-.338.584,2,2,0,0,0-.337-.584,3.732,3.732,0,0,0,.337-.3m50.069,6.935a1.958,1.958,0,0,0-1.379-1.868.378.378,0,0,0-.177-.234c-.433-.254-.819-.667-.752-.8.05-.1.1-.182.138-.256.192-.347.261-.6.077-.856.162-.021.35-.037.528-.045a.377.377,0,0,0,.309-.18.788.788,0,0,0-.122-1.124,9.75,9.75,0,0,0-1.06-.507,1.134,1.134,0,0,1,.228-.328.4.4,0,0,0,.347-.271c.1-.288-.122-.455-.333-.618a2.777,2.777,0,0,1-.6-.57.383.383,0,0,0-.385-.159.384.384,0,0,0-.385.159,2.786,2.786,0,0,1-.6.57c-.212.163-.432.33-.333.618a.4.4,0,0,0,.346.271,1.151,1.151,0,0,1,.228.328,9.825,9.825,0,0,0-1.06.507.789.789,0,0,0-.123,1.124.382.382,0,0,0,.309.18c.179.008.365.024.528.045-.184.257-.115.511.077.856.041.074.087.157.137.256.067.135-.319.548-.753.8a.378.378,0,0,0-.14.145,2.013,2.013,0,0,1-.449-.181l-.221-.147-.21.157-.626.453a4.588,4.588,0,0,1-3.4.655c-1.925-.293-4.983-1.738-8.634-6.947v-1.611h-.761v15.3h-14.739v-15.3h-.761v1.611c-3.651,5.209-6.708,6.654-8.634,6.947a4.587,4.587,0,0,1-3.4-.655l-.626-.453-.21-.157-.221.147a1.983,1.983,0,0,1-.448.181.38.38,0,0,0-.141-.145c-.434-.254-.82-.667-.753-.8.05-.1.1-.182.138-.256.192-.345.261-.6.076-.856.163-.021.35-.037.528-.045a.383.383,0,0,0,.31-.18.789.789,0,0,0-.124-1.124,9.715,9.715,0,0,0-1.06-.507,1.168,1.168,0,0,1,.228-.328.4.4,0,0,0,.347-.271c.1-.288-.121-.455-.333-.618a2.777,2.777,0,0,1-.6-.57.383.383,0,0,0-.385-.159.384.384,0,0,0-.385.159,2.772,2.772,0,0,1-.6.57c-.212.163-.432.33-.333.618a.4.4,0,0,0,.347.271,1.16,1.16,0,0,1,.227.328,9.783,9.783,0,0,0-1.06.507.788.788,0,0,0-.122,1.124.377.377,0,0,0,.309.18c.178.008.365.024.528.045-.184.257-.115.509.077.856.041.074.087.157.138.256.068.135-.319.548-.752.8a.372.372,0,0,0-.177.234,1.957,1.957,0,0,0-1.379,1.868v3.074l.762.85v-2.378a1.937,1.937,0,0,0,1.191.408h1.658A1.955,1.955,0,0,0,1393-244.2a1.954,1.954,0,0,0-.425-1.215,3.354,3.354,0,0,0,.442-.157l.418.3a5.087,5.087,0,0,0,3,.88,6.56,6.56,0,0,0,.946-.07,9.4,9.4,0,0,0,4.134-1.836,21.748,21.748,0,0,0,4.417-4.57v12.394h-16.115l.685.762h15.431v3.634h-12.17l.684.762h11.486v1.776h-9.891l.684.763h9.207v4.321H1400.6l.684.763h6.219v6.927l.762.85V-225.7h11.588v7.776l.761-.85V-225.7h6.219l.684-.763h-5.328v-4.321h9.207l.684-.763h-9.891v-1.776h11.485l.685-.762h-12.17v-3.634h15.431l.684-.762h-16.115V-250.87a21.746,21.746,0,0,0,4.416,4.57,9.408,9.408,0,0,0,4.135,1.836,6.564,6.564,0,0,0,.947.07,5.087,5.087,0,0,0,3-.88l.418-.3a3.36,3.36,0,0,0,.442.157,1.954,1.954,0,0,0-.425,1.215,1.955,1.955,0,0,0,1.953,1.953h1.659a1.937,1.937,0,0,0,1.191-.408v2.378l.763-.85V-244.2" transform="translate(-20.023 -83.572)"/>
    <path id="Path_370" data-name="Path 370" class="cls-4" d="M1604.054-324.822a9.1,9.1,0,0,0,2.192,4.66,6.1,6.1,0,0,0,4.5,1.536,7.039,7.039,0,0,0,2.783-.525,4.317,4.317,0,0,0,1.981-1.694,5.323,5.323,0,0,0,.749-2.927,6.177,6.177,0,0,0-.6-2.822,7.064,7.064,0,0,0-1.943-2.271,21.61,21.61,0,0,0-3.728-2.284,34.449,34.449,0,0,1-3.7-2.126,14.292,14.292,0,0,1-2.822-2.429,10.2,10.2,0,0,1-1.812-2.9,9.3,9.3,0,0,1-.643-3.544,9.235,9.235,0,0,1,1.6-5.487,9.8,9.8,0,0,1,4.633-3.427,19.459,19.459,0,0,1,7.023-1.168,38.531,38.531,0,0,1,4.464.249,45.715,45.715,0,0,1,4.857.88v7.613h-3.6a11.053,11.053,0,0,0-1.273-3.3,4.87,4.87,0,0,0-1.93-1.8,6.519,6.519,0,0,0-2.915-.577,6.52,6.52,0,0,0-2.678.525,4.236,4.236,0,0,0-1.864,1.561,4.457,4.457,0,0,0-.682,2.508,5.55,5.55,0,0,0,.59,2.638,6.945,6.945,0,0,0,1.982,2.18,27.877,27.877,0,0,0,4.043,2.428,26.21,26.21,0,0,1,5.08,3.3,10.613,10.613,0,0,1,2.73,3.518,10.443,10.443,0,0,1,.879,4.424,10.305,10.305,0,0,1-1.5,5.6,9.6,9.6,0,0,1-4.359,3.65,16.145,16.145,0,0,1-6.615,1.273,53.885,53.885,0,0,1-5.579-.3,46.237,46.237,0,0,1-5.448-.88v-8.086Z" transform="translate(-131.137 -32.219)"/>
    <path id="Path_371" data-name="Path 371" class="cls-4" d="M1678.819-334.3q0,7.931,1.9,11.8a6.164,6.164,0,0,0,5.815,3.872,5.475,5.475,0,0,0,3.439-1.089,7.745,7.745,0,0,0,2.3-3.046,17.233,17.233,0,0,0,1.26-4.633,41.844,41.844,0,0,0,.381-5.881,39.2,39.2,0,0,0-.827-8.755,11.651,11.651,0,0,0-2.494-5.329,5.557,5.557,0,0,0-4.265-1.8,6.008,6.008,0,0,0-5.659,3.637q-1.851,3.637-1.85,11.223m7.115,18.746q-7.717,0-11.591-4.516t-3.872-13.521a24.566,24.566,0,0,1,1.878-10.095,13.7,13.7,0,0,1,5.526-6.365,16.632,16.632,0,0,1,8.69-2.18q7.849,0,11.787,4.5t3.938,13.377a27.425,27.425,0,0,1-1.169,8.519,15.339,15.339,0,0,1-3.32,5.842,13.026,13.026,0,0,1-5.159,3.362,19.81,19.81,0,0,1-6.708,1.076" transform="translate(-167.657 -32.218)"/>
    <path id="Path_372" data-name="Path 372" class="cls-4" d="M1770.145-348.228v14.6h2.6a9.119,9.119,0,0,0,3.466-.565,5.259,5.259,0,0,0,2.167-1.575,5.789,5.789,0,0,0,1.1-2.377,13.885,13.885,0,0,0,.3-2.992,7.552,7.552,0,0,0-1.681-5.356,6.528,6.528,0,0,0-4.988-1.785q-2.257,0-2.967.053m2.836,32.712H1759.2v-1.732a7.444,7.444,0,0,0,1.535-.565,1.937,1.937,0,0,0,.841-.84,3.793,3.793,0,0,0,.354-1.364q.08-.828.079-2.087v-22.632q0-1.233-.066-2.074a3.537,3.537,0,0,0-.342-1.366,2.128,2.128,0,0,0-.84-.852,6.451,6.451,0,0,0-1.562-.592v-1.732H1774.5a27.343,27.343,0,0,1,5.263.433,13.281,13.281,0,0,1,3.794,1.326,7.891,7.891,0,0,1,2.31,1.851,8.025,8.025,0,0,1,1.458,2.6,10.6,10.6,0,0,1,.511,3.452,9.9,9.9,0,0,1-.905,4.411,8.827,8.827,0,0,1-2.442,3.058,17.473,17.473,0,0,1-4.109,2.3v.262a9.2,9.2,0,0,1,3.217,2.246,14.578,14.578,0,0,1,2.3,3.557l1.654,3.57a14.315,14.315,0,0,0,2.193,3.584,4.475,4.475,0,0,0,2.586,1.457v1.732h-10.108a38.818,38.818,0,0,1-3.44-6.249l-2.047-4.489a15.485,15.485,0,0,0-1.575-2.834,3.738,3.738,0,0,0-1.353-1.155,5.468,5.468,0,0,0-2.14-.315h-1.523v8.454a14.043,14.043,0,0,0,.184,2.756,2.368,2.368,0,0,0,.71,1.26,4.861,4.861,0,0,0,1.943.841Z" transform="translate(-213.938 -32.677)"/>
    <path id="Path_373" data-name="Path 373" class="cls-4" d="M1851.111-334.3q0,7.931,1.9,11.8a6.163,6.163,0,0,0,5.815,3.872,5.473,5.473,0,0,0,3.44-1.089,7.744,7.744,0,0,0,2.3-3.046,17.215,17.215,0,0,0,1.26-4.633,41.937,41.937,0,0,0,.381-5.881,39.141,39.141,0,0,0-.827-8.755,11.652,11.652,0,0,0-2.495-5.329,5.557,5.557,0,0,0-4.265-1.8,6.008,6.008,0,0,0-5.659,3.637q-1.85,3.637-1.85,11.223m7.115,18.746q-7.718,0-11.592-4.516t-3.873-13.521a24.566,24.566,0,0,1,1.878-10.095,13.7,13.7,0,0,1,5.526-6.365,16.634,16.634,0,0,1,8.69-2.18q7.851,0,11.789,4.5t3.937,13.377a27.425,27.425,0,0,1-1.169,8.519,15.337,15.337,0,0,1-3.32,5.842,13.025,13.025,0,0,1-5.159,3.362,19.809,19.809,0,0,1-6.708,1.076" transform="translate(-257.526 -32.218)"/>
    <path id="Path_374" data-name="Path 374" class="cls-4" d="M1960.685-322.5q1.025,1.576,1.719,2.506a13.741,13.741,0,0,0,1.221,1.459,4.561,4.561,0,0,0,1.036.8,6.859,6.859,0,0,0,1.352.511v1.707h-14.229v-1.732a2.265,2.265,0,0,0,1.207-.434,1.054,1.054,0,0,0,.316-.8,2.927,2.927,0,0,0-.119-.827,6.3,6.3,0,0,0-.563-1.194q-.447-.788-1.812-2.888l-4.016-6.2a17.654,17.654,0,0,0-1.275-1.759,3.667,3.667,0,0,0-1.076-.907,3.3,3.3,0,0,0-1.484-.275h-.526v10.423q0,.919.053,1.706a5.548,5.548,0,0,0,.211,1.286,2.275,2.275,0,0,0,.459.84,2.517,2.517,0,0,0,.827.59,6.643,6.643,0,0,0,1.286.434v1.732h-13.783v-1.732a7.458,7.458,0,0,0,1.535-.565,1.948,1.948,0,0,0,.841-.84,3.808,3.808,0,0,0,.354-1.364q.08-.828.079-2.087v-22.632q0-1.233-.066-2.074a3.55,3.55,0,0,0-.342-1.366,2.12,2.12,0,0,0-.84-.852,6.435,6.435,0,0,0-1.561-.592v-1.732h13.783v1.732a5.656,5.656,0,0,0-1.615.63,2.233,2.233,0,0,0-.761.814,3.684,3.684,0,0,0-.354,1.208,17.134,17.134,0,0,0-.106,2.231v9.346h.552a5.683,5.683,0,0,0,1.916-.262,4.572,4.572,0,0,0,1.457-.945q.748-.682,2.888-3.189t3.1-3.86a11.687,11.687,0,0,0,1.313-2.231,4.635,4.635,0,0,0,.354-1.746,1.792,1.792,0,0,0-.617-1.444,2.714,2.714,0,0,0-1.746-.552v-1.732h13.415v1.785a6.146,6.146,0,0,0-1.707.551,8.191,8.191,0,0,0-1.626,1.2,31.032,31.032,0,0,0-2.337,2.428l-7.876,8.822Z" transform="translate(-303.808 -32.677)"/>
    <path id="Path_375" data-name="Path 375" class="cls-4" d="M2022.28-324.822a9.1,9.1,0,0,0,2.192,4.66,6.1,6.1,0,0,0,4.5,1.536,7.039,7.039,0,0,0,2.783-.525,4.315,4.315,0,0,0,1.981-1.694,5.322,5.322,0,0,0,.749-2.927,6.17,6.17,0,0,0-.6-2.822,7.065,7.065,0,0,0-1.943-2.271,21.6,21.6,0,0,0-3.728-2.284,34.44,34.44,0,0,1-3.7-2.126,14.274,14.274,0,0,1-2.821-2.429,10.2,10.2,0,0,1-1.812-2.9,9.3,9.3,0,0,1-.643-3.544,9.234,9.234,0,0,1,1.6-5.487,9.8,9.8,0,0,1,4.633-3.427,19.457,19.457,0,0,1,7.023-1.168,38.524,38.524,0,0,1,4.464.249,45.682,45.682,0,0,1,4.857.88v7.613h-3.6a11.036,11.036,0,0,0-1.273-3.3,4.863,4.863,0,0,0-1.931-1.8,6.511,6.511,0,0,0-2.914-.577,6.517,6.517,0,0,0-2.677.525,4.238,4.238,0,0,0-1.865,1.561,4.457,4.457,0,0,0-.682,2.508,5.557,5.557,0,0,0,.59,2.638,6.945,6.945,0,0,0,1.982,2.18,27.891,27.891,0,0,0,4.043,2.428,26.219,26.219,0,0,1,5.081,3.3,10.588,10.588,0,0,1,2.73,3.518,10.441,10.441,0,0,1,.879,4.424,10.306,10.306,0,0,1-1.5,5.6,9.6,9.6,0,0,1-4.359,3.65,16.144,16.144,0,0,1-6.616,1.273,53.868,53.868,0,0,1-5.578-.3,46.254,46.254,0,0,1-5.449-.88v-8.086Z" transform="translate(-349.289 -32.219)"/>
    <path id="Path_376" data-name="Path 376" class="cls-4" d="M2107.35-375.115v1.732l-10.659,6.931-1.707-1.838,6.406-6.825Zm-15.411,33.027h9.452l-4.2-14.781Zm10.212,3.071h-11.21l-.866,2.495a20.629,20.629,0,0,0-.6,2.034,8.926,8.926,0,0,0-.235,2.087q0,2.575,2.73,2.756v1.734h-11.211v-1.734a3.266,3.266,0,0,0,1.706-.683,5.747,5.747,0,0,0,1.339-1.575,17.12,17.12,0,0,0,1.286-2.861l10.948-29.168h7.01l8.663,29.4a20.905,20.905,0,0,0,.971,2.8,3.788,3.788,0,0,0,1.024,1.34,4.082,4.082,0,0,0,1.759.748v1.734H2100.97v-1.734a3.537,3.537,0,0,0,2.022-.761,2.206,2.206,0,0,0,.656-1.707,10.162,10.162,0,0,0-.184-1.811q-.185-1-.6-2.521Z" transform="translate(-381.666 -20.282)"/>
    <path id="Path_377" data-name="Path 377" class="cls-4" d="M2181.913-348.228v14.6h2.6a9.121,9.121,0,0,0,3.466-.565,5.257,5.257,0,0,0,2.166-1.575,5.771,5.771,0,0,0,1.1-2.377,13.846,13.846,0,0,0,.3-2.992,7.555,7.555,0,0,0-1.68-5.356,6.53,6.53,0,0,0-4.988-1.785q-2.257,0-2.967.053m2.836,32.712h-13.783v-1.732a7.44,7.44,0,0,0,1.535-.565,1.933,1.933,0,0,0,.841-.84,3.778,3.778,0,0,0,.354-1.364q.079-.828.079-2.087v-22.632q0-1.233-.066-2.074a3.54,3.54,0,0,0-.342-1.366,2.118,2.118,0,0,0-.84-.852,6.453,6.453,0,0,0-1.562-.592v-1.732h15.307a27.345,27.345,0,0,1,5.263.433,13.285,13.285,0,0,1,3.794,1.326,7.912,7.912,0,0,1,2.311,1.851,8.03,8.03,0,0,1,1.457,2.6,10.6,10.6,0,0,1,.511,3.452,9.9,9.9,0,0,1-.905,4.411,8.826,8.826,0,0,1-2.442,3.058,17.452,17.452,0,0,1-4.109,2.3v.262a9.2,9.2,0,0,1,3.217,2.246,14.571,14.571,0,0,1,2.3,3.557l1.654,3.57a14.322,14.322,0,0,0,2.193,3.584,4.474,4.474,0,0,0,2.586,1.457v1.732h-10.108a38.845,38.845,0,0,1-3.44-6.249l-2.048-4.489a15.442,15.442,0,0,0-1.575-2.834,3.738,3.738,0,0,0-1.352-1.155,5.469,5.469,0,0,0-2.14-.315h-1.523v8.454a14.053,14.053,0,0,0,.184,2.756,2.371,2.371,0,0,0,.71,1.26,4.861,4.861,0,0,0,1.943.841Z" transform="translate(-428.721 -32.677)"/>
    <path id="Path_378" data-name="Path 378" class="cls-4" d="M2112.1-224.344a2.27,2.27,0,0,1-.364,1.184,2.874,2.874,0,0,1-1.015.986,2.778,2.778,0,0,1-1.448.387,2.9,2.9,0,0,1-.974-.145,1.393,1.393,0,0,1-.68-.535,1.816,1.816,0,0,1-.27-1.055,1.966,1.966,0,0,1,1.186-1.842A8.258,8.258,0,0,1,2112.1-226Zm.14,3.7h3.213v-.575a3.492,3.492,0,0,1-.744-.27.96.96,0,0,1-.347-.311,1.394,1.394,0,0,1-.176-.487,4.3,4.3,0,0,1-.07-.662c-.008-.24-.012-.647-.012-1.227v-4.081a5.738,5.738,0,0,0-.352-2.3,2.342,2.342,0,0,0-1.055-1.132,4.033,4.033,0,0,0-1.865-.369,7.364,7.364,0,0,0-1.525.158,10.659,10.659,0,0,0-1.5.434,16.662,16.662,0,0,0-1.876.862v1.525h1.536a2.941,2.941,0,0,1,.839-1.443,2.173,2.173,0,0,1,1.471-.48,2.437,2.437,0,0,1,1.349.328,1.884,1.884,0,0,1,.738,1.032,6.235,6.235,0,0,1,.236,1.923v.763a12,12,0,0,0-5.085,1.085,2.9,2.9,0,0,0-1.695,2.644,2.841,2.841,0,0,0,.364,1.45,2.463,2.463,0,0,0,1.044.973,3.4,3.4,0,0,0,1.571.347,4.333,4.333,0,0,0,1.906-.434,7.165,7.165,0,0,0,1.917-1.478l.176.048Zm-9.933-11.318h-.716l-2.745.106v.621a3.287,3.287,0,0,1,.892.27.9.9,0,0,1,.364.369,1.765,1.765,0,0,1,.152.627c.024.266.034.7.034,1.314v8.715a6.67,6.67,0,0,1-.128,1.442,2.434,2.434,0,0,1-.376.9,2.449,2.449,0,0,1-.627.586,6.065,6.065,0,0,1-1.108.533l.4,1.032a6.575,6.575,0,0,0,2.34-1.12,3.7,3.7,0,0,0,1.179-1.671,8.279,8.279,0,0,0,.34-2.627Zm-2.089-2.217h2.146v-2.275h-2.146Zm-11.27,6.216a2.2,2.2,0,0,1,.193-.921,3.029,3.029,0,0,1,.662-.885,3.236,3.236,0,0,1,.945-.663,2.846,2.846,0,0,1,1.131-.205q2.686,0,2.687,4.6a6.811,6.811,0,0,1-.716,3.478,2.337,2.337,0,0,1-2.135,1.179,3.651,3.651,0,0,1-1.284-.188,2.251,2.251,0,0,1-.844-.569,2.1,2.1,0,0,1-.5-.991,8.185,8.185,0,0,1-.14-1.735Zm1.289,7.36a7.751,7.751,0,0,0,1.573.147,5.143,5.143,0,0,0,2.668-.663,4.215,4.215,0,0,0,1.707-1.982,8.018,8.018,0,0,0,.586-3.254,7.24,7.24,0,0,0-1.039-4.24,3.436,3.436,0,0,0-2.972-1.448,4.029,4.029,0,0,0-.885.094,3.891,3.891,0,0,0-.868.316,4.844,4.844,0,0,0-.874.557,13.549,13.549,0,0,0-1.15,1.073l-.176-.047.152-1.911h-.715l-2.756.106v.621a3.811,3.811,0,0,1,.757.211,1.079,1.079,0,0,1,.363.258,1.026,1.026,0,0,1,.207.387,2.721,2.721,0,0,1,.093.593q.025.357.024,1.2v10.063a10.346,10.346,0,0,1-.046,1.091,1.686,1.686,0,0,1-.187.651.9.9,0,0,1-.405.364,4.667,4.667,0,0,1-.685.241v.575h4.785v-.575a3.186,3.186,0,0,1-.815-.258,1.04,1.04,0,0,1-.387-.359,1.519,1.519,0,0,1-.188-.592,9.137,9.137,0,0,1-.052-1.138V-221a7.046,7.046,0,0,0,1.289.393m-9.617-3.736a2.266,2.266,0,0,1-.363,1.184,2.884,2.884,0,0,1-1.015.986,2.783,2.783,0,0,1-1.449.387,2.9,2.9,0,0,1-.973-.145,1.392,1.392,0,0,1-.68-.535,1.818,1.818,0,0,1-.27-1.055,1.965,1.965,0,0,1,1.184-1.842,8.268,8.268,0,0,1,3.565-.632Zm.142,3.7h3.214v-.575a3.52,3.52,0,0,1-.746-.27.959.959,0,0,1-.345-.311,1.365,1.365,0,0,1-.176-.487,4.064,4.064,0,0,1-.07-.662c-.008-.24-.011-.647-.011-1.227v-4.081a5.742,5.742,0,0,0-.352-2.3,2.341,2.341,0,0,0-1.056-1.132,4.025,4.025,0,0,0-1.865-.369,7.353,7.353,0,0,0-1.524.158,10.65,10.65,0,0,0-1.5.434,16.643,16.643,0,0,0-1.877.862v1.525h1.537a2.937,2.937,0,0,1,.837-1.443,2.18,2.18,0,0,1,1.473-.48,2.438,2.438,0,0,1,1.349.328,1.886,1.886,0,0,1,.738,1.032,6.288,6.288,0,0,1,.234,1.923v.763a11.994,11.994,0,0,0-5.083,1.085,2.9,2.9,0,0,0-1.695,2.644,2.824,2.824,0,0,0,.364,1.45,2.464,2.464,0,0,0,1.043.973,3.414,3.414,0,0,0,1.572.347,4.33,4.33,0,0,0,1.905-.434,7.163,7.163,0,0,0,1.918-1.478l.176.048Zm-10.111-16.783h-.7l-2.827.118v.61a3.85,3.85,0,0,1,.827.211.945.945,0,0,1,.363.282,1.326,1.326,0,0,1,.212.487,3.9,3.9,0,0,1,.094.756c.012.3.017.82.017,1.572v9.816a10.227,10.227,0,0,1-.041,1.027,2.206,2.206,0,0,1-.14.622.943.943,0,0,1-.33.391,2.621,2.621,0,0,1-.813.318v.575h4.656v-.575a2.41,2.41,0,0,1-.862-.358,1.027,1.027,0,0,1-.359-.6,7.026,7.026,0,0,1-.094-1.4Zm-5.114,16.209a3.43,3.43,0,0,1-.775-.287.967.967,0,0,1-.34-.335,1.517,1.517,0,0,1-.164-.563,10.655,10.655,0,0,1-.046-1.173V-228a8.635,8.635,0,0,0-.124-1.606,3.764,3.764,0,0,0-.369-1.085,2.481,2.481,0,0,0-.628-.755,2.539,2.539,0,0,0-.88-.452,4.016,4.016,0,0,0-1.132-.147,3.261,3.261,0,0,0-1.155.205,4.842,4.842,0,0,0-1.08.581,11.36,11.36,0,0,0-1.4,1.254l-.164-.047.13-1.911h-.716l-2.745.106v.621a3.4,3.4,0,0,1,.815.229.9.9,0,0,1,.429.41,1.834,1.834,0,0,1,.164.733q.023.459.024,1.208v5.113a6.929,6.929,0,0,1-.077,1.208,1.477,1.477,0,0,1-.212.575.978.978,0,0,1-.328.294,3.874,3.874,0,0,1-.651.246v.575h4.6v-.575a2.42,2.42,0,0,1-.863-.358,1.025,1.025,0,0,1-.357-.6,6.866,6.866,0,0,1-.094-1.4v-4.374a2.16,2.16,0,0,1,.222-1,3.23,3.23,0,0,1,.716-.879,3.5,3.5,0,0,1,.9-.627,2.108,2.108,0,0,1,.867-.183,2.258,2.258,0,0,1,.739.1,1.762,1.762,0,0,1,.5.269,1.746,1.746,0,0,1,.375.411,2.322,2.322,0,0,1,.27.668,6.268,6.268,0,0,1,.157,1.1q.047.669.048,1.49v3.073a6.816,6.816,0,0,1-.077,1.19,1.513,1.513,0,0,1-.21.581.981.981,0,0,1-.335.294,4.219,4.219,0,0,1-.656.246v.575h4.62Zm-21.1-8.679a2.409,2.409,0,0,1,2.176-1.232,2.318,2.318,0,0,1,1.5.533,3.54,3.54,0,0,1,1.038,1.671,9.133,9.133,0,0,1,.381,2.862,10.015,10.015,0,0,1-.152,1.776,5,5,0,0,1-.5,1.5,2.869,2.869,0,0,1-.9,1.027,2.288,2.288,0,0,1-1.337.381,2.42,2.42,0,0,1-2.2-1.3,7.331,7.331,0,0,1-.769-3.712,6.73,6.73,0,0,1,.757-3.506m4.837,8.778a4.4,4.4,0,0,0,1.83-2,7.517,7.517,0,0,0,.645-3.284,6.138,6.138,0,0,0-1.291-4.194,4.8,4.8,0,0,0-3.8-1.46,5.423,5.423,0,0,0-2.675.651,4.525,4.525,0,0,0-1.846,1.988,7.216,7.216,0,0,0-.675,3.273,6.194,6.194,0,0,0,1.285,4.25,4.73,4.73,0,0,0,3.723,1.438,5.641,5.641,0,0,0,2.8-.663m-18.014-16.308h-.7l-2.827.118v.61a3.814,3.814,0,0,1,.827.211.95.95,0,0,1,.364.282,1.3,1.3,0,0,1,.21.487,3.822,3.822,0,0,1,.094.756c.012.3.019.82.019,1.572v9.816a8.389,8.389,0,0,1-.06,1.185,1.565,1.565,0,0,1-.181.575.959.959,0,0,1-.347.328,3.322,3.322,0,0,1-.738.27v.575h4.645v-.575a2.856,2.856,0,0,1-.746-.276.932.932,0,0,1-.357-.375,1.669,1.669,0,0,1-.159-.569,10.824,10.824,0,0,1-.041-1.138v-4.492a1.905,1.905,0,0,1,.251-.951,3.326,3.326,0,0,1,.745-.867,3.7,3.7,0,0,1,.868-.587,2.1,2.1,0,0,1,.844-.164,1.892,1.892,0,0,1,1.3.41,2.133,2.133,0,0,1,.622,1.237,13.567,13.567,0,0,1,.159,2.388v3.073a6.825,6.825,0,0,1-.077,1.19,1.515,1.515,0,0,1-.21.581.986.986,0,0,1-.334.294,4.2,4.2,0,0,1-.657.246v.575h4.62v-.575a2.464,2.464,0,0,1-.92-.393,1.082,1.082,0,0,1-.316-.575,7.081,7.081,0,0,1-.089-1.391V-228a8.945,8.945,0,0,0-.118-1.589,3.805,3.805,0,0,0-.357-1.079,2.474,2.474,0,0,0-.623-.762,2.565,2.565,0,0,0-.885-.463,3.958,3.958,0,0,0-1.149-.153,3.278,3.278,0,0,0-1.121.188,4.531,4.531,0,0,0-1.054.557,11.321,11.321,0,0,0-1.45,1.3l-.046-.012Zm-10.9,5.747q-1.091-.224-1.812-.3a14.01,14.01,0,0,0-1.5-.077,6.475,6.475,0,0,0-2.311.376,3.245,3.245,0,0,0-1.507,1.084,2.744,2.744,0,0,0-.521,1.671,2.46,2.46,0,0,0,.369,1.361,3.376,3.376,0,0,0,1.014,1,10.788,10.788,0,0,0,1.712.867,13.791,13.791,0,0,1,1.737.839,2.257,2.257,0,0,1,.727.686,1.823,1.823,0,0,1,.235.974,1.867,1.867,0,0,1-.188.88,1.5,1.5,0,0,1-.5.557,2.168,2.168,0,0,1-.721.292,3.84,3.84,0,0,1-.827.089,2.71,2.71,0,0,1-1.712-.487,2.992,2.992,0,0,1-.938-1.565h-1.149v2.451a18.063,18.063,0,0,0,1.805.381,12.25,12.25,0,0,0,1.912.147,8.037,8.037,0,0,0,1.73-.176,3.832,3.832,0,0,0,1.367-.575,2.708,2.708,0,0,0,.891-1.032,3.453,3.453,0,0,0,.316-1.56,2.487,2.487,0,0,0-.369-1.372,3.5,3.5,0,0,0-1.02-1.008,12.011,12.011,0,0,0-1.848-.95,12.166,12.166,0,0,1-1.653-.808,2.233,2.233,0,0,1-.692-.658,1.639,1.639,0,0,1-.222-.891,1.453,1.453,0,0,1,.556-1.2,2.355,2.355,0,0,1,1.5-.439,3.166,3.166,0,0,1,1.092.164,1.946,1.946,0,0,1,.8.569,3.55,3.55,0,0,1,.61,1.107h1.126Zm-17.541,1.782a2.409,2.409,0,0,1,2.176-1.232,2.319,2.319,0,0,1,1.5.533,3.55,3.55,0,0,1,1.038,1.671,9.136,9.136,0,0,1,.381,2.862,10.165,10.165,0,0,1-.152,1.776,5.033,5.033,0,0,1-.5,1.5,2.872,2.872,0,0,1-.9,1.027,2.292,2.292,0,0,1-1.337.381,2.424,2.424,0,0,1-2.2-1.3,7.347,7.347,0,0,1-.767-3.712,6.732,6.732,0,0,1,.755-3.506m4.838,8.778a4.4,4.4,0,0,0,1.829-2,7.513,7.513,0,0,0,.646-3.284,6.138,6.138,0,0,0-1.29-4.194,4.8,4.8,0,0,0-3.8-1.46,5.418,5.418,0,0,0-2.675.651,4.524,4.524,0,0,0-1.847,1.988,7.21,7.21,0,0,0-.674,3.273,6.192,6.192,0,0,0,1.284,4.25,4.733,4.733,0,0,0,3.724,1.438,5.649,5.649,0,0,0,2.8-.663m-11.294-16.308h-.7l-2.827.118v.61a3.831,3.831,0,0,1,.827.211.945.945,0,0,1,.364.282,1.318,1.318,0,0,1,.211.487,3.891,3.891,0,0,1,.094.756c.012.3.017.82.017,1.572v9.816a10.171,10.171,0,0,1-.041,1.027,2.151,2.151,0,0,1-.141.622.939.939,0,0,1-.328.391,2.632,2.632,0,0,1-.815.318v.575h4.656v-.575a2.426,2.426,0,0,1-.862-.358,1.035,1.035,0,0,1-.358-.6,7.029,7.029,0,0,1-.093-1.4Zm-8.28,13.088a2.271,2.271,0,0,1-.364,1.184,2.881,2.881,0,0,1-1.014.986,2.784,2.784,0,0,1-1.449.387,2.906,2.906,0,0,1-.974-.145,1.4,1.4,0,0,1-.68-.535,1.816,1.816,0,0,1-.269-1.055,1.965,1.965,0,0,1,1.184-1.842,8.26,8.26,0,0,1,3.566-.632Zm.14,3.7h3.213v-.575a3.492,3.492,0,0,1-.744-.27.958.958,0,0,1-.347-.311,1.389,1.389,0,0,1-.176-.487,4.325,4.325,0,0,1-.07-.662c-.008-.24-.012-.647-.012-1.227v-4.081a5.725,5.725,0,0,0-.352-2.3,2.344,2.344,0,0,0-1.055-1.132,4.029,4.029,0,0,0-1.865-.369,7.349,7.349,0,0,0-1.524.158,10.63,10.63,0,0,0-1.5.434,16.652,16.652,0,0,0-1.877.862v1.525h1.536a2.942,2.942,0,0,1,.839-1.443,2.173,2.173,0,0,1,1.472-.48,2.437,2.437,0,0,1,1.349.328,1.894,1.894,0,0,1,.74,1.032,6.287,6.287,0,0,1,.234,1.923v.763a12,12,0,0,0-5.084,1.085,2.9,2.9,0,0,0-1.7,2.644,2.837,2.837,0,0,0,.364,1.45,2.459,2.459,0,0,0,1.044.973,3.4,3.4,0,0,0,1.571.347,4.339,4.339,0,0,0,1.907-.434,7.168,7.168,0,0,0,1.918-1.478l.175.048Zm-15.552-10.027h1.735v6.508a4.377,4.377,0,0,0,.74,2.81,2.745,2.745,0,0,0,2.251.9,3.487,3.487,0,0,0,1.543-.364,6.319,6.319,0,0,0,1.577-1.173l-.528-.634a3.313,3.313,0,0,1-.81.557,2.027,2.027,0,0,1-.879.193,1.877,1.877,0,0,1-.844-.164,1.557,1.557,0,0,1-.588-.545,2.5,2.5,0,0,1-.351-1.055,13.7,13.7,0,0,1-.094-1.813v-5.218h3.787v-1.184h-3.787v-2.9h-1.666c-.086.71-.168,1.253-.246,1.624a3.291,3.291,0,0,1-.322.926,1.694,1.694,0,0,1-.568.605,2.476,2.476,0,0,1-.951.328Zm-4.445,6.332a2.265,2.265,0,0,1-.364,1.184,2.87,2.87,0,0,1-1.014.986,2.783,2.783,0,0,1-1.449.387,2.9,2.9,0,0,1-.973-.145,1.386,1.386,0,0,1-.68-.535,1.816,1.816,0,0,1-.27-1.055,1.965,1.965,0,0,1,1.185-1.842,8.262,8.262,0,0,1,3.565-.632Zm.14,3.7h3.215v-.575a3.5,3.5,0,0,1-.745-.27.961.961,0,0,1-.347-.311,1.379,1.379,0,0,1-.176-.487,4.354,4.354,0,0,1-.07-.662c-.008-.24-.012-.647-.012-1.227v-4.081a5.747,5.747,0,0,0-.351-2.3,2.352,2.352,0,0,0-1.056-1.132,4.029,4.029,0,0,0-1.865-.369,7.353,7.353,0,0,0-1.525.158,10.7,10.7,0,0,0-1.5.434,16.762,16.762,0,0,0-1.877.862v1.525h1.536a2.947,2.947,0,0,1,.839-1.443,2.175,2.175,0,0,1,1.472-.48,2.433,2.433,0,0,1,1.349.328,1.894,1.894,0,0,1,.74,1.032,6.309,6.309,0,0,1,.234,1.923v.763a12,12,0,0,0-5.084,1.085,2.9,2.9,0,0,0-1.694,2.644,2.84,2.84,0,0,0,.363,1.45,2.458,2.458,0,0,0,1.044.973,3.408,3.408,0,0,0,1.572.347,4.335,4.335,0,0,0,1.906-.434,7.174,7.174,0,0,0,1.917-1.478l.176.048Zm-19.222-11.212v.575a1.808,1.808,0,0,1,.663.258,1.583,1.583,0,0,1,.422.5,8.892,8.892,0,0,1,.521,1.236l3.179,8.762h1.384l3.952-8.691a12.641,12.641,0,0,1,.587-1.167,2.187,2.187,0,0,1,.492-.61,1.7,1.7,0,0,1,.7-.287v-.575h-4.385v.575a2.039,2.039,0,0,1,.967.41,1,1,0,0,1,.263.751,2.675,2.675,0,0,1-.094.68,7.2,7.2,0,0,1-.328.926l-2.393,5.689-2.04-5.935a6.4,6.4,0,0,1-.24-.8,3.033,3.033,0,0,1-.077-.663.987.987,0,0,1,.111-.5.819.819,0,0,1,.335-.3,3.606,3.606,0,0,1,.762-.246v-.575Zm-5.278,11.212h4.6v-.575a2.422,2.422,0,0,1-.862-.358,1.028,1.028,0,0,1-.359-.6,7.013,7.013,0,0,1-.094-1.4v-8.385h-.715l-2.733.106v.621a3.426,3.426,0,0,1,.815.229.893.893,0,0,1,.427.41,1.828,1.828,0,0,1,.164.733q.024.459.024,1.208v5.113a6.822,6.822,0,0,1-.077,1.208,1.5,1.5,0,0,1-.21.575,1,1,0,0,1-.328.294,3.987,3.987,0,0,1-.651.246Zm1.2-13.535h2.158v-2.275h-2.158Zm-5.125.458a6.965,6.965,0,0,1,.094-1.372,1.055,1.055,0,0,1,.352-.617,2.54,2.54,0,0,1,.914-.369v-.575h-4.913v.575a2.608,2.608,0,0,1,.926.387,1.107,1.107,0,0,1,.335.575,6.457,6.457,0,0,1,.1,1.4v4.152h-6.521v-4.152a8.126,8.126,0,0,1,.065-1.2,1.451,1.451,0,0,1,.2-.581,1.068,1.068,0,0,1,.364-.323,3.2,3.2,0,0,1,.743-.258v-.575h-4.937v.575a3.987,3.987,0,0,1,.762.275,1.009,1.009,0,0,1,.359.33,1.5,1.5,0,0,1,.193.575,8.521,8.521,0,0,1,.058,1.179v10.144a8.016,8.016,0,0,1-.076,1.29,1.137,1.137,0,0,1-.323.651,2.412,2.412,0,0,1-.974.417v.575h4.937v-.575a3.3,3.3,0,0,1-.779-.282.982.982,0,0,1-.364-.352,1.625,1.625,0,0,1-.176-.574,9.051,9.051,0,0,1-.053-1.15V-228.5h6.521v4.914a6.673,6.673,0,0,1-.1,1.384,1.056,1.056,0,0,1-.359.61,2.6,2.6,0,0,1-.9.364v.575h4.913v-.575a3.716,3.716,0,0,1-.673-.223,1.081,1.081,0,0,1-.335-.234,1.13,1.13,0,0,1-.2-.333,2.088,2.088,0,0,1-.116-.547q-.036-.339-.036-1.02Zm-26.682,3.049h1.736v6.508a4.387,4.387,0,0,0,.739,2.81,2.75,2.75,0,0,0,2.252.9,3.478,3.478,0,0,0,1.542-.364A6.3,6.3,0,0,0,1921.1-222l-.528-.634a3.276,3.276,0,0,1-.809.557,2.029,2.029,0,0,1-.88.193,1.882,1.882,0,0,1-.844-.164,1.564,1.564,0,0,1-.587-.545,2.494,2.494,0,0,1-.352-1.055,13.848,13.848,0,0,1-.094-1.813v-5.218h3.789v-1.184h-3.789v-2.9h-1.665c-.086.71-.168,1.253-.246,1.624a3.318,3.318,0,0,1-.323.926,1.7,1.7,0,0,1-.569.605,2.46,2.46,0,0,1-.95.328Zm-8.737,3.272a5.214,5.214,0,0,1,.85-2.762,2.289,2.289,0,0,1,1.929-.967,1.9,1.9,0,0,1,1.291.429,2.6,2.6,0,0,1,.74,1.231,8.974,8.974,0,0,1,.316,2.07Zm6.38,4a5.133,5.133,0,0,1-1.53,1.167,4.064,4.064,0,0,1-1.731.357,2.988,2.988,0,0,1-1.846-.533,2.947,2.947,0,0,1-1.021-1.477,7.548,7.548,0,0,1-.31-2.329v-.21h7.389a10.836,10.836,0,0,0-.311-2.586,4.792,4.792,0,0,0-.775-1.642,3.39,3.39,0,0,0-1.331-1.026,4.888,4.888,0,0,0-2.017-.376,4.939,4.939,0,0,0-2.675.726,4.753,4.753,0,0,0-1.788,2.065,7.189,7.189,0,0,0-.627,3.085,6.448,6.448,0,0,0,1.231,4.275,4.521,4.521,0,0,0,3.647,1.449,5.16,5.16,0,0,0,1.654-.253,5.212,5.212,0,0,0,1.378-.7,10,10,0,0,0,1.379-1.232Zm-12.046-14.027h-.7l-2.827.118v.61a3.856,3.856,0,0,1,.827.211.943.943,0,0,1,.363.282,1.322,1.322,0,0,1,.212.487,3.9,3.9,0,0,1,.094.756c.012.3.017.82.017,1.572v9.816a10.143,10.143,0,0,1-.041,1.027,2.185,2.185,0,0,1-.14.622.938.938,0,0,1-.328.391,2.652,2.652,0,0,1-.815.318v.575h4.656v-.575a2.422,2.422,0,0,1-.862-.358,1.032,1.032,0,0,1-.358-.6,7,7,0,0,1-.094-1.4Zm-13.875,3.143h1.959v-2.065h-1.959Zm3.977,0h1.959v-2.065h-1.959Zm-6.78,3a2.212,2.212,0,0,1,.945.4,1.124,1.124,0,0,1,.293.587,7.8,7.8,0,0,1,.077,1.354v4.433a6.48,6.48,0,0,0,.34,2.364,2.535,2.535,0,0,0,1.032,1.261,3.332,3.332,0,0,0,1.759.422,3.628,3.628,0,0,0,1.777-.492,7.773,7.773,0,0,0,1.858-1.549l.176.046-.07,1.924h.716l2.685-.118v-.61a3.081,3.081,0,0,1-.879-.276.913.913,0,0,1-.364-.381,1.772,1.772,0,0,1-.152-.634q-.036-.4-.036-1.3v-8.011h-3.343v.575a3.4,3.4,0,0,1,.663.222,1.029,1.029,0,0,1,.316.235,1.165,1.165,0,0,1,.193.333,2.056,2.056,0,0,1,.118.545q.035.342.035,1.008v4.4a2.239,2.239,0,0,1-.217,1.008,2.952,2.952,0,0,1-.721.874,3.589,3.589,0,0,1-.916.615,2.131,2.131,0,0,1-.855.176,1.982,1.982,0,0,1-1.068-.246,1.769,1.769,0,0,1-.6-.61,3.12,3.12,0,0,1-.317-1.078,15.475,15.475,0,0,1-.106-2.087v-5.97h-3.343Zm-6.356-.68h-.715l-2.744.116v.61a3.4,3.4,0,0,1,.814.229.9.9,0,0,1,.429.41,1.836,1.836,0,0,1,.164.733q.024.459.024,1.208v5.113a7.5,7.5,0,0,1-.07,1.208,1.388,1.388,0,0,1-.212.575,1.048,1.048,0,0,1-.335.294,3.915,3.915,0,0,1-.639.246v.575h4.727v-.575a2.562,2.562,0,0,1-.9-.294,1.028,1.028,0,0,1-.427-.591,5.525,5.525,0,0,1-.13-1.473v-4.1a2.9,2.9,0,0,1,.147-.974,3.029,3.029,0,0,1,.533-.88,3.132,3.132,0,0,1,.8-.714,1.632,1.632,0,0,1,.839-.246,1.244,1.244,0,0,1,.868.287,2.764,2.764,0,0,1,.6.92h1.325v-2.7a9.9,9.9,0,0,0-1.232-.07,4.007,4.007,0,0,0-1.448.246,4.345,4.345,0,0,0-1.191.7,9.044,9.044,0,0,0-1.2,1.237l-.165-.034Zm-12.737,4.562a5.212,5.212,0,0,1,.851-2.762,2.286,2.286,0,0,1,1.929-.967,1.9,1.9,0,0,1,1.29.429,2.589,2.589,0,0,1,.739,1.231,8.908,8.908,0,0,1,.316,2.07Zm6.381,4a5.132,5.132,0,0,1-1.531,1.167,4.055,4.055,0,0,1-1.73.357,2.992,2.992,0,0,1-1.847-.533,2.937,2.937,0,0,1-1.021-1.477,7.516,7.516,0,0,1-.311-2.329v-.21h7.389a10.844,10.844,0,0,0-.31-2.586,4.794,4.794,0,0,0-.774-1.642,3.406,3.406,0,0,0-1.332-1.026,4.895,4.895,0,0,0-2.018-.376,4.934,4.934,0,0,0-2.673.726,4.756,4.756,0,0,0-1.79,2.065,7.191,7.191,0,0,0-.627,3.085,6.44,6.44,0,0,0,1.232,4.275,4.519,4.519,0,0,0,3.647,1.449,5.169,5.169,0,0,0,1.654-.253,5.227,5.227,0,0,0,1.378-.7,9.913,9.913,0,0,0,1.377-1.232Zm-17.711-14.027h-.7l-2.827.118v.61a3.855,3.855,0,0,1,.827.211.943.943,0,0,1,.363.282,1.32,1.32,0,0,1,.212.487,3.93,3.93,0,0,1,.094.756c.012.3.017.82.017,1.572v9.816a10.185,10.185,0,0,1-.041,1.027,2.2,2.2,0,0,1-.14.622.94.94,0,0,1-.328.391,2.651,2.651,0,0,1-.815.318v.575h4.656v-.575a2.421,2.421,0,0,1-.861-.358,1.032,1.032,0,0,1-.359-.6,7,7,0,0,1-.094-1.4V-226.4h.658a1.454,1.454,0,0,1,.5.071,1.04,1.04,0,0,1,.357.234,6.965,6.965,0,0,1,.569.692l1.4,1.877q.526.727.727,1.02a2.441,2.441,0,0,1,.263.463.96.96,0,0,1,.065.345.374.374,0,0,1-.147.335,1.042,1.042,0,0,1-.452.135v.575h4.5v-.575a2.5,2.5,0,0,1-1.037-.487,6.184,6.184,0,0,1-1.062-1.143l-3.377-4.409,2.7-2.557a7.865,7.865,0,0,1,1.254-.986,3.5,3.5,0,0,1,1.15-.48v-.575h-5.055v.575a1.312,1.312,0,0,1,.709.27.712.712,0,0,1,.217.551,1.353,1.353,0,0,1-.094.492,2.391,2.391,0,0,1-.381.646,7.976,7.976,0,0,1-.815.856,11.444,11.444,0,0,1-1,.85,2.8,2.8,0,0,1-.644.359,2.066,2.066,0,0,1-.634.082h-.376Zm-13.2,16.783h2.369v-2.721h-2.369Zm-4.071-13.077a8.109,8.109,0,0,1,.065-1.2,1.436,1.436,0,0,1,.2-.581,1.077,1.077,0,0,1,.363-.323,3.234,3.234,0,0,1,.745-.258v-.575h-4.95v.575a4,4,0,0,1,.762.275,1,1,0,0,1,.358.33,1.47,1.47,0,0,1,.193.575,8.467,8.467,0,0,1,.058,1.179v10.144a7.959,7.959,0,0,1-.076,1.29,1.134,1.134,0,0,1-.323.651,2.411,2.411,0,0,1-.974.417v.575h4.95v-.575a3.288,3.288,0,0,1-.78-.282.981.981,0,0,1-.364-.352,1.625,1.625,0,0,1-.176-.574,9.145,9.145,0,0,1-.053-1.15Zm-7.787,0a8.141,8.141,0,0,1,.064-1.2,1.462,1.462,0,0,1,.2-.581,1.084,1.084,0,0,1,.364-.323,3.216,3.216,0,0,1,.745-.258v-.575h-4.95v.575a4.055,4.055,0,0,1,.762.275,1,1,0,0,1,.357.33,1.459,1.459,0,0,1,.193.575,8.237,8.237,0,0,1,.06,1.179v10.144a7.96,7.96,0,0,1-.077,1.29,1.128,1.128,0,0,1-.323.651,2.414,2.414,0,0,1-.973.417v.575h4.95v-.575a3.3,3.3,0,0,1-.781-.282.976.976,0,0,1-.363-.352,1.6,1.6,0,0,1-.176-.574,8.759,8.759,0,0,1-.053-1.15Zm-7.788,0a7.909,7.909,0,0,1,.065-1.2,1.43,1.43,0,0,1,.2-.581,1.065,1.065,0,0,1,.363-.323,3.246,3.246,0,0,1,.745-.258v-.575h-4.949v.575a3.993,3.993,0,0,1,.762.275,1.009,1.009,0,0,1,.359.33,1.5,1.5,0,0,1,.193.575,8.521,8.521,0,0,1,.058,1.179v10.144a7.794,7.794,0,0,1-.077,1.29,1.127,1.127,0,0,1-.321.651,2.423,2.423,0,0,1-.974.417v.575h4.949v-.575a3.286,3.286,0,0,1-.779-.282.978.978,0,0,1-.364-.352,1.618,1.618,0,0,1-.176-.574,8.781,8.781,0,0,1-.053-1.15Zm-18.073-2.932v.575a2.474,2.474,0,0,1,.376.159,1.574,1.574,0,0,1,.369.3,4.659,4.659,0,0,1,.446.551q.24.341.709,1.092l3.307,5.442-2.767,4.316q-.693,1.08-1.009,1.513a8.472,8.472,0,0,1-.576.716,2.815,2.815,0,0,1-.539.463,2.76,2.76,0,0,1-.716.311v.575h4.434v-.575a1.2,1.2,0,0,1-.7-.34.942.942,0,0,1-.211-.634,3.175,3.175,0,0,1,.563-1.525l2.24-3.671,2.123,3.543a8.4,8.4,0,0,1,.521.985,1.875,1.875,0,0,1,.17.727.741.741,0,0,1-.258.617,1.785,1.785,0,0,1-.8.3v.575h5.149v-.575a2.658,2.658,0,0,1-.687-.364,3.24,3.24,0,0,1-.516-.5,8.061,8.061,0,0,1-.516-.7q-.274-.417-.907-1.461l-2.979-4.9,2.65-4.105q.728-1.114,1.121-1.631a4.333,4.333,0,0,1,.738-.786,2.56,2.56,0,0,1,.78-.41v-.575h-4.35v.575a1.177,1.177,0,0,1,.7.346.924.924,0,0,1,.211.616,1.671,1.671,0,0,1-.076.5,3.929,3.929,0,0,1-.264.61q-.188.363-.563.973l-1.677,2.711-1.7-2.851a11.473,11.473,0,0,1-.633-1.173,2.076,2.076,0,0,1-.224-.822.778.778,0,0,1,.246-.609,1.533,1.533,0,0,1,.81-.306v-.575Zm-13.721,0v.575a2.5,2.5,0,0,1,.375.159,1.575,1.575,0,0,1,.369.3,4.517,4.517,0,0,1,.446.551q.24.341.709,1.092l3.307,5.442-2.767,4.316q-.693,1.08-1.008,1.513a8.468,8.468,0,0,1-.576.716,2.765,2.765,0,0,1-.539.463,2.75,2.75,0,0,1-.716.311v.575h4.433v-.575a1.2,1.2,0,0,1-.7-.34.942.942,0,0,1-.21-.634,3.175,3.175,0,0,1,.562-1.525l2.241-3.671,2.123,3.543a8.272,8.272,0,0,1,.521.985,1.87,1.87,0,0,1,.171.727.742.742,0,0,1-.258.617,1.78,1.78,0,0,1-.8.3v.575h5.149v-.575a2.65,2.65,0,0,1-.687-.364,3.33,3.33,0,0,1-.516-.5,7.777,7.777,0,0,1-.515-.7q-.276-.417-.909-1.461l-2.979-4.9,2.651-4.105q.726-1.114,1.119-1.631a4.329,4.329,0,0,1,.739-.786,2.541,2.541,0,0,1,.781-.41v-.575h-4.352v.575a1.176,1.176,0,0,1,.7.346.924.924,0,0,1,.212.616,1.667,1.667,0,0,1-.077.5,3.9,3.9,0,0,1-.263.61c-.126.242-.312.566-.562.973l-1.678,2.711-1.7-2.851a11.514,11.514,0,0,1-.633-1.173,2.083,2.083,0,0,1-.223-.822.778.778,0,0,1,.246-.609,1.535,1.535,0,0,1,.81-.306v-.575Zm-7.26,4.973q-1.092-.224-1.812-.3a14.012,14.012,0,0,0-1.5-.077,6.475,6.475,0,0,0-2.311.376,3.239,3.239,0,0,0-1.507,1.084,2.744,2.744,0,0,0-.521,1.671,2.46,2.46,0,0,0,.369,1.361,3.375,3.375,0,0,0,1.014,1,10.717,10.717,0,0,0,1.712.867,13.812,13.812,0,0,1,1.737.839,2.258,2.258,0,0,1,.727.686,1.824,1.824,0,0,1,.235.974,1.87,1.87,0,0,1-.188.88,1.5,1.5,0,0,1-.5.557,2.179,2.179,0,0,1-.721.292,3.835,3.835,0,0,1-.827.089,2.711,2.711,0,0,1-1.713-.487,2.988,2.988,0,0,1-.939-1.565h-1.15v2.451a18.044,18.044,0,0,0,1.807.381,12.234,12.234,0,0,0,1.912.147,8.047,8.047,0,0,0,1.73-.176,3.825,3.825,0,0,0,1.366-.575,2.714,2.714,0,0,0,.892-1.032,3.473,3.473,0,0,0,.316-1.56,2.484,2.484,0,0,0-.369-1.372,3.5,3.5,0,0,0-1.02-1.008,12.006,12.006,0,0,0-1.848-.95,12.084,12.084,0,0,1-1.653-.808,2.234,2.234,0,0,1-.692-.658,1.625,1.625,0,0,1-.224-.891,1.454,1.454,0,0,1,.557-1.2,2.354,2.354,0,0,1,1.5-.439,3.165,3.165,0,0,1,1.092.164,1.943,1.943,0,0,1,.8.569,3.55,3.55,0,0,1,.611,1.107h1.126ZM1762.3-229.9a2.408,2.408,0,0,1,2.176-1.232,2.32,2.32,0,0,1,1.5.533,3.55,3.55,0,0,1,1.038,1.671,9.136,9.136,0,0,1,.381,2.862,10.165,10.165,0,0,1-.152,1.776,5.033,5.033,0,0,1-.5,1.5,2.871,2.871,0,0,1-.9,1.027,2.293,2.293,0,0,1-1.337.381,2.424,2.424,0,0,1-2.2-1.3,7.346,7.346,0,0,1-.767-3.712,6.732,6.732,0,0,1,.755-3.506m4.838,8.778a4.4,4.4,0,0,0,1.829-2,7.517,7.517,0,0,0,.646-3.284,6.138,6.138,0,0,0-1.29-4.194,4.8,4.8,0,0,0-3.8-1.46,5.418,5.418,0,0,0-2.675.651,4.527,4.527,0,0,0-1.848,1.988,7.211,7.211,0,0,0-.673,3.273,6.194,6.194,0,0,0,1.284,4.25,4.734,4.734,0,0,0,3.724,1.438,5.648,5.648,0,0,0,2.8-.663m-14.192-10.843h-.715l-2.745.116v.61a3.416,3.416,0,0,1,.815.229.9.9,0,0,1,.429.41,1.862,1.862,0,0,1,.164.733q.022.459.023,1.208v5.113a7.343,7.343,0,0,1-.07,1.208,1.368,1.368,0,0,1-.211.575,1.041,1.041,0,0,1-.335.294,3.917,3.917,0,0,1-.639.246v.575h4.727v-.575a2.539,2.539,0,0,1-.9-.294,1.037,1.037,0,0,1-.429-.591,5.62,5.62,0,0,1-.128-1.473v-4.1a2.9,2.9,0,0,1,.145-.974,3.05,3.05,0,0,1,.534-.88,3.132,3.132,0,0,1,.8-.714,1.63,1.63,0,0,1,.838-.246,1.239,1.239,0,0,1,.868.287,2.738,2.738,0,0,1,.6.92h1.326v-2.7a9.9,9.9,0,0,0-1.232-.07,4,4,0,0,0-1.448.246,4.323,4.323,0,0,0-1.191.7,9.052,9.052,0,0,0-1.2,1.237l-.164-.034Zm-9.5-5.594-2.427,3.752.763.61,3.717-3.775v-.587Zm1.056,13.217a2.266,2.266,0,0,1-.364,1.184,2.876,2.876,0,0,1-1.015.986,2.781,2.781,0,0,1-1.448.387,2.91,2.91,0,0,1-.974-.145,1.394,1.394,0,0,1-.68-.535,1.816,1.816,0,0,1-.27-1.055,1.966,1.966,0,0,1,1.186-1.842,8.257,8.257,0,0,1,3.565-.632Zm.14,3.7h3.213v-.575a3.5,3.5,0,0,1-.744-.27.956.956,0,0,1-.346-.311,1.38,1.38,0,0,1-.176-.487,4.369,4.369,0,0,1-.07-.662c-.008-.24-.012-.647-.012-1.227v-4.081a5.74,5.74,0,0,0-.352-2.3,2.343,2.343,0,0,0-1.054-1.132,4.034,4.034,0,0,0-1.865-.369,7.365,7.365,0,0,0-1.526.158,10.668,10.668,0,0,0-1.5.434,16.643,16.643,0,0,0-1.877.862v1.525h1.537a2.945,2.945,0,0,1,.839-1.443,2.174,2.174,0,0,1,1.472-.48,2.437,2.437,0,0,1,1.349.328,1.886,1.886,0,0,1,.739,1.032,6.253,6.253,0,0,1,.235,1.923v.763a12,12,0,0,0-5.084,1.085,2.9,2.9,0,0,0-1.7,2.644,2.843,2.843,0,0,0,.364,1.45,2.462,2.462,0,0,0,1.044.973,3.407,3.407,0,0,0,1.571.347,4.335,4.335,0,0,0,1.906-.434,7.175,7.175,0,0,0,1.917-1.478l.176.048Zm-19.222-11.212v.575a1.79,1.79,0,0,1,.662.258,1.548,1.548,0,0,1,.422.5,8.84,8.84,0,0,1,.523,1.236l3.179,8.762h1.383l3.953-8.691a12.743,12.743,0,0,1,.586-1.167,2.19,2.19,0,0,1,.492-.61,1.691,1.691,0,0,1,.7-.287v-.575h-4.387v.575a2.036,2.036,0,0,1,.969.41,1,1,0,0,1,.263.751,2.742,2.742,0,0,1-.094.68,7.239,7.239,0,0,1-.328.926l-2.393,5.689-2.04-5.935a6.691,6.691,0,0,1-.241-.8,3.112,3.112,0,0,1-.076-.663.989.989,0,0,1,.111-.5.827.827,0,0,1,.334-.3,3.65,3.65,0,0,1,.763-.246v-.575Zm-6.78-5.7-2.651,3.752.774.61,3.483-3.775v-.587Zm3.565,0-2.65,3.752.773.61,3.484-3.775v-.587Zm-5.2,7.659a2.408,2.408,0,0,1,2.176-1.232,2.318,2.318,0,0,1,1.5.533,3.541,3.541,0,0,1,1.039,1.671,9.136,9.136,0,0,1,.381,2.862,10.036,10.036,0,0,1-.154,1.776,5,5,0,0,1-.5,1.5,2.9,2.9,0,0,1-.9,1.027,2.3,2.3,0,0,1-1.337.381,2.424,2.424,0,0,1-2.2-1.3,7.343,7.343,0,0,1-.769-3.712,6.73,6.73,0,0,1,.757-3.506m4.838,8.778a4.41,4.41,0,0,0,1.829-2,7.508,7.508,0,0,0,.646-3.284,6.139,6.139,0,0,0-1.29-4.194,4.8,4.8,0,0,0-3.8-1.46,5.417,5.417,0,0,0-2.673.651,4.526,4.526,0,0,0-1.847,1.988,7.208,7.208,0,0,0-.675,3.273,6.192,6.192,0,0,0,1.285,4.25,4.733,4.733,0,0,0,3.724,1.438,5.649,5.649,0,0,0,2.8-.663m-19.576-15.534v.575a4.027,4.027,0,0,1,.764.275,1,1,0,0,1,.357.33,1.478,1.478,0,0,1,.193.575,8.272,8.272,0,0,1,.058,1.179v10.144a8.016,8.016,0,0,1-.076,1.29,1.136,1.136,0,0,1-.323.651,2.412,2.412,0,0,1-.974.417v.575h5.208v-.575a5.548,5.548,0,0,1-.785-.229,1.138,1.138,0,0,1-.505-.369,1.6,1.6,0,0,1-.269-.668,6.1,6.1,0,0,1-.082-1.126v-4.6h2.415a1.581,1.581,0,0,1,.815.169,1.346,1.346,0,0,1,.475.576,5.5,5.5,0,0,1,.376,1.2h1.1v-4.95h-1.1a5.751,5.751,0,0,1-.369,1.232,1.27,1.27,0,0,1-.487.568,1.615,1.615,0,0,1-.81.171h-2.415v-6.38h3.435a3.274,3.274,0,0,1,.926.106,1.474,1.474,0,0,1,.617.363,2.709,2.709,0,0,1,.5.752,10.32,10.32,0,0,1,.5,1.289h1.15v-3.542Zm-14.4,5.982h1.735v6.508a4.376,4.376,0,0,0,.74,2.81,2.744,2.744,0,0,0,2.251.9,3.475,3.475,0,0,0,1.542-.364,6.277,6.277,0,0,0,1.578-1.173l-.527-.634a3.3,3.3,0,0,1-.81.557,2.027,2.027,0,0,1-.88.193,1.882,1.882,0,0,1-.844-.164,1.563,1.563,0,0,1-.587-.545,2.507,2.507,0,0,1-.351-1.055,13.873,13.873,0,0,1-.093-1.813v-5.218h3.787v-1.184h-3.787v-2.9h-1.666c-.086.71-.168,1.253-.246,1.624a3.283,3.283,0,0,1-.323.926,1.693,1.693,0,0,1-.569.605,2.461,2.461,0,0,1-.949.328Zm-1.76-1.008q-1.09-.224-1.812-.3a13.994,13.994,0,0,0-1.5-.077,6.479,6.479,0,0,0-2.311.376,3.248,3.248,0,0,0-1.507,1.084,2.744,2.744,0,0,0-.521,1.671,2.459,2.459,0,0,0,.369,1.361,3.381,3.381,0,0,0,1.015,1,10.717,10.717,0,0,0,1.712.867,13.757,13.757,0,0,1,1.735.839,2.263,2.263,0,0,1,.728.686,1.824,1.824,0,0,1,.234.974,1.852,1.852,0,0,1-.188.88,1.476,1.476,0,0,1-.5.557,2.155,2.155,0,0,1-.721.292,3.841,3.841,0,0,1-.827.089,2.716,2.716,0,0,1-1.713-.487,2.992,2.992,0,0,1-.938-1.565h-1.149v2.451a17.97,17.97,0,0,0,1.806.381,12.218,12.218,0,0,0,1.911.147,8.029,8.029,0,0,0,1.73-.176,3.838,3.838,0,0,0,1.367-.575,2.71,2.71,0,0,0,.89-1.032,3.455,3.455,0,0,0,.318-1.56,2.484,2.484,0,0,0-.369-1.372,3.533,3.533,0,0,0-1.02-1.008,12.063,12.063,0,0,0-1.848-.95,12.144,12.144,0,0,1-1.654-.808,2.249,2.249,0,0,1-.692-.658,1.639,1.639,0,0,1-.222-.891,1.45,1.45,0,0,1,.557-1.2,2.349,2.349,0,0,1,1.5-.439,3.158,3.158,0,0,1,1.09.164,1.958,1.958,0,0,1,.8.569,3.552,3.552,0,0,1,.609,1.107h1.126Zm-17.3,4.28a5.212,5.212,0,0,1,.851-2.762,2.286,2.286,0,0,1,1.929-.967,1.9,1.9,0,0,1,1.29.429,2.584,2.584,0,0,1,.739,1.231,8.908,8.908,0,0,1,.316,2.07Zm6.38,4a5.116,5.116,0,0,1-1.53,1.167,4.058,4.058,0,0,1-1.73.357,2.993,2.993,0,0,1-1.848-.533,2.939,2.939,0,0,1-1.021-1.477,7.517,7.517,0,0,1-.311-2.329v-.21h7.389a10.773,10.773,0,0,0-.311-2.586,4.764,4.764,0,0,0-.773-1.642,3.4,3.4,0,0,0-1.331-1.026,4.894,4.894,0,0,0-2.018-.376,4.934,4.934,0,0,0-2.673.726,4.756,4.756,0,0,0-1.79,2.065,7.191,7.191,0,0,0-.627,3.085,6.442,6.442,0,0,0,1.232,4.275,4.519,4.519,0,0,0,3.647,1.449,5.153,5.153,0,0,0,1.653-.253,5.231,5.231,0,0,0,1.379-.7,9.92,9.92,0,0,0,1.377-1.232Zm-18.835-4.562a2.205,2.205,0,0,1,.193-.921,3.007,3.007,0,0,1,.663-.885,3.211,3.211,0,0,1,.943-.663,2.847,2.847,0,0,1,1.131-.205q2.686,0,2.687,4.6a6.806,6.806,0,0,1-.716,3.478,2.336,2.336,0,0,1-2.135,1.179,3.649,3.649,0,0,1-1.284-.188,2.248,2.248,0,0,1-.844-.569,2.1,2.1,0,0,1-.5-.991,8.193,8.193,0,0,1-.14-1.735Zm1.289,7.36a7.754,7.754,0,0,0,1.572.147,5.143,5.143,0,0,0,2.668-.663,4.217,4.217,0,0,0,1.707-1.982,8.016,8.016,0,0,0,.586-3.254,7.242,7.242,0,0,0-1.039-4.24,3.435,3.435,0,0,0-2.972-1.448,4.026,4.026,0,0,0-.885.094,3.893,3.893,0,0,0-.868.316,4.863,4.863,0,0,0-.873.557,13.442,13.442,0,0,0-1.15,1.073l-.176-.047.152-1.911h-.715l-2.756.106v.621a3.8,3.8,0,0,1,.757.211,1.083,1.083,0,0,1,.364.258,1.046,1.046,0,0,1,.205.387,2.829,2.829,0,0,1,.094.593c.014.238.022.639.022,1.2v10.063a10.236,10.236,0,0,1-.046,1.091,1.671,1.671,0,0,1-.188.651.894.894,0,0,1-.4.364,4.625,4.625,0,0,1-.686.241v.575h4.785v-.575a3.165,3.165,0,0,1-.815-.258,1.046,1.046,0,0,1-.388-.359,1.532,1.532,0,0,1-.188-.592,9.156,9.156,0,0,1-.052-1.138V-221a7.057,7.057,0,0,0,1.289.393m-9.617-3.736a2.268,2.268,0,0,1-.363,1.184,2.885,2.885,0,0,1-1.015.986,2.782,2.782,0,0,1-1.448.387,2.9,2.9,0,0,1-.974-.145,1.391,1.391,0,0,1-.68-.535,1.816,1.816,0,0,1-.27-1.055,1.965,1.965,0,0,1,1.185-1.842,8.268,8.268,0,0,1,3.565-.632Zm.142,3.7h3.213v-.575a3.491,3.491,0,0,1-.745-.27.96.96,0,0,1-.345-.311,1.365,1.365,0,0,1-.176-.487,4.121,4.121,0,0,1-.07-.662c-.008-.24-.012-.647-.012-1.227v-4.081a5.743,5.743,0,0,0-.352-2.3,2.343,2.343,0,0,0-1.056-1.132,4.023,4.023,0,0,0-1.864-.369,7.349,7.349,0,0,0-1.525.158,10.654,10.654,0,0,0-1.5.434,16.6,16.6,0,0,0-1.877.862v1.525h1.537a2.947,2.947,0,0,1,.838-1.443,2.178,2.178,0,0,1,1.473-.48,2.439,2.439,0,0,1,1.349.328,1.886,1.886,0,0,1,.738,1.032,6.287,6.287,0,0,1,.234,1.923v.763a11.994,11.994,0,0,0-5.083,1.085,2.9,2.9,0,0,0-1.695,2.644,2.842,2.842,0,0,0,.364,1.45,2.468,2.468,0,0,0,1.043.973,3.416,3.416,0,0,0,1.573.347,4.331,4.331,0,0,0,1.905-.434,7.168,7.168,0,0,0,1.918-1.478l.176.048Zm-12.128-4.328a4.4,4.4,0,0,1-.082.938,2.348,2.348,0,0,1-.241.644,2.96,2.96,0,0,1-.5.622,3.44,3.44,0,0,1-.668.533,2.554,2.554,0,0,1-.67.282,3.531,3.531,0,0,1-.855.087,2.1,2.1,0,0,1-1.958-1.173,7.255,7.255,0,0,1-.646-3.425,6.315,6.315,0,0,1,.786-3.454,2.564,2.564,0,0,1,2.287-1.2,3.334,3.334,0,0,1,.944.118,2.143,2.143,0,0,1,.721.375,1.915,1.915,0,0,1,.523.634,2.981,2.981,0,0,1,.275.926,10.429,10.429,0,0,1,.082,1.467Zm0-6.556a6.585,6.585,0,0,0-1.3-.4,7.381,7.381,0,0,0-1.407-.123,5.157,5.157,0,0,0-2.6.656,4.629,4.629,0,0,0-1.836,2,7.162,7.162,0,0,0-.68,3.266,7.189,7.189,0,0,0,1.044,4.217,3.428,3.428,0,0,0,2.967,1.461,3.676,3.676,0,0,0,1.319-.234,5.089,5.089,0,0,0,1.161-.629,9.419,9.419,0,0,0,1.285-1.178l.176.046-.142,1.924h.7l2.768-.118v-.61a3.185,3.185,0,0,1-.886-.276.91.91,0,0,1-.369-.381,1.768,1.768,0,0,1-.152-.627q-.036-.393-.036-1.307v-13.582h-.691l-2.839.118v.61a3.855,3.855,0,0,1,.827.211.944.944,0,0,1,.363.282,1.318,1.318,0,0,1,.212.487,3.92,3.92,0,0,1,.094.756c.012.3.017.82.017,1.572Zm-21.463.246a2.224,2.224,0,0,1,.945.4,1.125,1.125,0,0,1,.292.587,7.894,7.894,0,0,1,.077,1.354v4.433a6.483,6.483,0,0,0,.34,2.364,2.535,2.535,0,0,0,1.032,1.261,3.332,3.332,0,0,0,1.759.422,3.632,3.632,0,0,0,1.777-.492,7.771,7.771,0,0,0,1.858-1.549l.176.046-.07,1.924h.716l2.685-.118v-.61a3.1,3.1,0,0,1-.88-.276.918.918,0,0,1-.363-.381,1.785,1.785,0,0,1-.154-.634q-.034-.4-.034-1.3v-8.011h-3.343v.575a3.438,3.438,0,0,1,.663.222,1.037,1.037,0,0,1,.316.235,1.168,1.168,0,0,1,.193.333,2.074,2.074,0,0,1,.118.545q.036.342.036,1.008v4.4a2.233,2.233,0,0,1-.217,1.008,2.947,2.947,0,0,1-.721.874,3.6,3.6,0,0,1-.916.615,2.136,2.136,0,0,1-.856.176,1.978,1.978,0,0,1-1.066-.246,1.765,1.765,0,0,1-.6-.61,3.129,3.129,0,0,1-.316-1.078,15.23,15.23,0,0,1-.106-2.087v-5.97h-3.343Zm-10.556,2.839h1.818a6.36,6.36,0,0,1,2.393.363,2.545,2.545,0,0,1,1.283,1.1,3.788,3.788,0,0,1,.417,1.877,4.2,4.2,0,0,1-.381,1.895,2.469,2.469,0,0,1-1.232,1.143,5.9,5.9,0,0,1-2.386.387q-1.056,0-1.913-.082Zm0-1.032v-6.076q.363-.024,1.091-.046t1.173-.024a6.572,6.572,0,0,1,1.372.135,3.04,3.04,0,0,1,1.1.451,2.177,2.177,0,0,1,.727.85,3.033,3.033,0,0,1,.264,1.343,3.219,3.219,0,0,1-.945,2.5,3.9,3.9,0,0,1-2.726.863Zm2.475,8.831a9.367,9.367,0,0,0,3.1-.451,3.97,3.97,0,0,0,1.988-1.461,4.428,4.428,0,0,0,.709-2.6,3.652,3.652,0,0,0-.821-2.386,4.825,4.825,0,0,0-2.417-1.485v-.1a7.272,7.272,0,0,0,1.63-.916,3.756,3.756,0,0,0,1.026-1.243,3.766,3.766,0,0,0,.393-1.771,3.413,3.413,0,0,0-.551-2.011,3.343,3.343,0,0,0-1.684-1.179,9.229,9.229,0,0,0-3-.4h-6.416v.575a4,4,0,0,1,.762.275,1,1,0,0,1,.357.33,1.457,1.457,0,0,1,.193.575,8.237,8.237,0,0,1,.059,1.179v10.144a7.822,7.822,0,0,1-.077,1.29,1.12,1.12,0,0,1-.323.651,2.415,2.415,0,0,1-.972.417v.575Z" transform="translate(-131.138 -92.032)"/>
  </g>
</svg>
