<svg xmlns="http://www.w3.org/2000/svg" xmlns:xlink="http://www.w3.org/1999/xlink" width="182" height="138" viewBox="0 0 182 138">
  <defs>
    <style>
      .cls-1 {
        fill: #e5e5e5;
      }

      .cls-2 {
        clip-path: url(#clip-path);
      }
    </style>
    <clipPath id="clip-path">
      <rect id="SVGID" class="cls-1" width="182" height="138"/>
    </clipPath>
  </defs>
  <g id="Group_11" data-name="Group 11" transform="translate(0)">
    <g id="Group_10" data-name="Group 10" transform="translate(0)">
      <g id="Group_9" data-name="Group 9" class="cls-2">
        <path id="Path_61" data-name="Path 61" class="cls-1" d="M499.308,336.846h15.923v-15.7A16.13,16.13,0,0,1,531.154,305H659.246a15.942,15.942,0,0,1,15.923,15.923v95.538A26.569,26.569,0,0,1,648.631,443H520.538A26.569,26.569,0,0,1,494,416.462V342.154a5.307,5.307,0,0,1,5.308-5.308Zm37.154-15.923a5.3,5.3,0,0,0-5.461-5.3,5.458,5.458,0,0,0-5.154,5.526v79.394h10.615Zm128.092,95.538V320.923a5.314,5.314,0,0,0-5.308-5.308H546.173a15.921,15.921,0,0,1,.9,5.308v95.538a26.4,26.4,0,0,1-5.322,15.923H648.631a15.942,15.942,0,0,0,15.923-15.923Zm-159.938,0a15.923,15.923,0,1,0,31.846,0v-5.308H520.538a5.307,5.307,0,0,1-5.308-5.308V347.462H504.615Zm0,0" transform="translate(-493.585 -305)"/>
      </g>
    </g>
    <path id="Path_62" data-name="Path 62" class="cls-1" d="M559.308,365h85.631a5.308,5.308,0,1,1,0,10.615H559.308a5.308,5.308,0,0,1,0-10.615Zm0,0" transform="translate(-489.892 -343.769)"/>
    <path id="Path_63" data-name="Path 63" class="cls-1" d="M559.308,425h85.631a5.308,5.308,0,1,1,0,10.615H559.308a5.308,5.308,0,0,1,0-10.615Zm0,0" transform="translate(-489.892 -382.538)"/>
    <path id="Path_64" data-name="Path 64" class="cls-1" d="M560.308,485h42.815a5.307,5.307,0,0,1,5.308,5.308v42.462a5.307,5.307,0,0,1-5.308,5.308H560.308A5.307,5.307,0,0,1,555,532.769V490.308A5.307,5.307,0,0,1,560.308,485Zm5.308,42.462h32.2V495.615h-32.2Zm0,0" transform="translate(-448.431 -421.308)"/>
    <path id="Path_65" data-name="Path 65" class="cls-1" d="M740.308,485h21.585a5.308,5.308,0,0,1,0,10.615H740.308a5.308,5.308,0,0,1,0-10.615Zm0,0" transform="translate(-670.892 -421.308)"/>
    <path id="Path_66" data-name="Path 66" class="cls-1" d="M740.308,545h21.585a5.308,5.308,0,0,1,0,10.615H740.308a5.308,5.308,0,0,1,0-10.615Zm0,0" transform="translate(-670.892 -460.077)"/>
    <path id="Path_67" data-name="Path 67" class="cls-1" d="M740.308,605h21.585a5.308,5.308,0,0,1,0,10.615H740.308a5.308,5.308,0,0,1,0-10.615Zm0,0" transform="translate(-670.892 -498.846)"/>
  </g>
</svg>
