<svg xmlns="http://www.w3.org/2000/svg" xmlns:xlink="http://www.w3.org/1999/xlink" width="140" height="140" viewBox="0 0 140 140">
  <defs>
    <style>
      .cls-1 {
        fill: #252d3a;
      }

      .cls-2 {
        clip-path: url(#clip-path);
      }
    </style>
    <clipPath id="clip-path">
      <rect id="Rectangle_40" data-name="Rectangle 40" class="cls-1" width="140" height="140" transform="translate(0)"/>
    </clipPath>
  </defs>
  <g id="Group_22" data-name="Group 22" transform="translate(-558 -308)">
    <g id="Group_21" data-name="Group 21" transform="translate(558 308)">
      <g id="Group_20" data-name="Group 20" class="cls-2" transform="translate(0 0)">
        <path id="Path_72" data-name="Path 72" class="cls-1" d="M698,363.527v-.013c0-.117-.007-.232-.016-.347,0-.031-.007-.063-.01-.094-.01-.091-.023-.179-.039-.269-.005-.032-.011-.065-.019-.1-.021-.107-.047-.215-.077-.32l-.008-.031c-.031-.107-.068-.214-.11-.318-.016-.04-.033-.08-.049-.118-.03-.071-.062-.141-.1-.209l-.06-.12c-.051-.1-.105-.19-.164-.282-.023-.034-.047-.067-.07-.1-.046-.067-.093-.133-.143-.2-.026-.034-.053-.067-.079-.1-.073-.087-.147-.172-.226-.253l-.019-.02c-.084-.085-.175-.167-.268-.245-.011-.01-.021-.021-.032-.031l-6.994-5.8V336.717a9.582,9.582,0,0,0-9.57-9.57H656.5L637.6,311.467a15.048,15.048,0,0,0-19.209,0L599.5,327.147H576.047a9.581,9.581,0,0,0-9.57,9.57v17.836l-6.994,5.8c-.011.009-.021.02-.032.03-.093.078-.184.159-.268.246-.007.006-.013.013-.019.019-.079.081-.154.167-.226.253-.027.034-.054.069-.079.1-.05.064-.1.129-.143.2-.024.033-.049.065-.07.1-.059.093-.113.187-.164.282-.021.04-.04.079-.06.12-.034.07-.065.138-.1.209-.017.04-.034.078-.048.118-.042.105-.078.211-.11.319,0,.01-.006.02-.008.031-.031.105-.056.212-.077.32-.007.033-.013.066-.019.1-.016.089-.028.178-.039.268,0,.031-.007.063-.01.094-.008.115-.016.23-.016.347v69.447a14.991,14.991,0,0,0,4.716,10.92c.082.083.165.164.253.238A14.974,14.974,0,0,0,573.039,448H682.961a14.985,14.985,0,0,0,10.072-3.881c.087-.074.17-.155.251-.237A14.994,14.994,0,0,0,698,432.962V363.528ZM576.047,335.35H679.953a1.369,1.369,0,0,1,1.367,1.367v31.905L679,370.548l-46.634,38.7a6.84,6.84,0,0,1-8.73,0L577,370.548l-2.321-1.926V336.717a1.369,1.369,0,0,1,1.367-1.367ZM566.2,432.962V372.247l1.765,1.465h0l40.05,33.237-41.4,28.371a6.8,6.8,0,0,1-.42-2.36ZM614.585,412.4l3.811,3.163a15.048,15.048,0,0,0,19.209,0l3.811-3.163L681.4,439.8H574.6Zm33.4-5.448,40.05-33.237h0l1.765-1.465v60.715a6.8,6.8,0,0,1-.42,2.36ZM623.635,317.78a6.838,6.838,0,0,1,8.73,0l11.288,9.367H612.347Zm0,0" transform="translate(-558 -308.002)"/>
      </g>
    </g>
    <path id="Path_73" data-name="Path 73" class="cls-1" d="M656.625,424.6a4.1,4.1,0,0,0,4.1,4.1h38.828a4.1,4.1,0,0,0,0-8.2H660.727a4.1,4.1,0,0,0-4.1,4.1Zm0,0" transform="translate(-62.668 -71.482)"/>
    <path id="Path_74" data-name="Path 74" class="cls-1" d="M660.727,473.7h59.883a4.1,4.1,0,0,0,0-8.2H660.727a4.1,4.1,0,0,0,0,8.2Zm0,0" transform="translate(-62.668 -100.075)"/>
  </g>
</svg>
