<svg xmlns="http://www.w3.org/2000/svg" xmlns:xlink="http://www.w3.org/1999/xlink" width="97.123" height="93.929" viewBox="0 0 97.123 93.929">
  <defs>
    <style>
      .cls-1, .cls-3 {
        fill: none;
      }

      .cls-2 {
        clip-path: url(#clip-path);
      }

      .cls-3 {
        stroke: #4a3d2b;
        stroke-miterlimit: 22.926;
        stroke-width: 0.145px;
      }

      .cls-4 {
        fill: #bfa161;
      }

      .cls-5 {
        fill: #bd9e61;
      }

      .cls-6 {
        fill: #d9261c;
      }

      .cls-7 {
        fill: #70615c;
      }

      .cls-8 {
        fill: #99bdc2;
      }

      .cls-9 {
        fill: #1f1a1a;
      }

      .cls-10 {
        fill: #b2abab;
      }
    </style>
    <clipPath id="clip-path">
      <rect id="Rectangle_132" data-name="Rectangle 132" class="cls-1" width="97.123" height="93.929"/>
    </clipPath>
  </defs>
  <g id="Group_136" data-name="Group 136" transform="translate(4 -352.514)">
    <g id="Group_135" data-name="Group 135" transform="translate(-4 352.514)">
      <g id="Group_134" data-name="Group 134" class="cls-2">
        <path id="Path_293" data-name="Path 293" class="cls-3" d="M14,383.1c.31-.022.307-.126.544.135l1.116,1.413c-.135.287-.845.623-1.114.889a8.221,8.221,0,0,1-1.36-1.928,1.371,1.371,0,0,1,.61-.409,13.137,13.137,0,0,0-2.266.975c-.511.274-1.7,1.079-2.233.988-.486-.842-.316-2.812-.621-3.838-.491-.071-2.633.024-3.442.026-.382,0-.674-.108-.758.279-.166.774-.413.082-1.231,1.074-.314.383-.261.292-.338.8a4.07,4.07,0,0,0-.091,1.043c1.258-.091,2.951-.623,4.119.073a7.355,7.355,0,0,1,2.383,2.335c2.259,3.54.252,5.929-1.727,5.7.391-1.393-.031-3.2-1.8-2.938-1.468.212-2.1,1.426-2.363,2.761a5.471,5.471,0,0,0,.723,4.176,5.159,5.159,0,0,0,2.834,2.286c3.378.884,5.854-.889,6.595-.555.077.035,1.147.88,1.468,1.07a4.789,4.789,0,0,0,3.971.833,9.816,9.816,0,0,0,1.873-.665c.557-.243,1.178-.8,1.8-.732a2.3,2.3,0,0,0,.789,1.618,3.891,3.891,0,0,0,1.481.869,17.329,17.329,0,0,0,4.028.734c.524.068,1.7.044,2.063.358a8.361,8.361,0,0,0,1.388.968,1.942,1.942,0,0,1,.661.553,1.927,1.927,0,0,0,.608.595c1.057.783.449.462.639,1.605-.195.212-.659.48-.787.807-.144.374.091.889.2,1.284l1.161.281c.378.747.181,1.128.621,1.976a1.778,1.778,0,0,0,1.693.88c1.733.031,1.939-1.638,2.191-2.985.55-.148,1.3-.137,1.466-.811a1.112,1.112,0,0,0-.827-1.424c.053-1.7-.21-.9,1.3-2.277.363-.329.831-.851,1.209-1.143.975-.754.166-.429,1.718-.641,1.952-.268,6.372-1.194,7.411-3.024.206-.365.172-.619.316-.875.272.055,1.51.937,2.076,1.161,3.86,1.526,6.871-1.5,7.163-1.49.175.046.862.632,1.24.811a5.922,5.922,0,0,0,4.919-.018c1.422-.8,3.4-2.607,3.692-4.271a5.393,5.393,0,0,0-.292-3.429,4.528,4.528,0,0,0-1.727-2.251c-1.632-.986-3.3,1.172-2.443,2.5.471.732.827.475,1.2.8a2.25,2.25,0,0,1-1.988.712,3.478,3.478,0,0,1-1.707-.966,4,4,0,0,1-.566-2.1,7,7,0,0,1,.909-3.093c.128-.223.164-.137.265-.4,1.114-2.9,3.243-2.56,5.936-2.085-.327-3.018-1.092-1.362-1.729-2.7l-4.291-.02-.276,3.61c-1.019-.2-1.7-1.136-2.54-1.539a8.165,8.165,0,0,0-3.044-.99,16.766,16.766,0,0,0-7.077.665c-.553.168-.873.418-1.459.59-.566.166-1.013.183-1.6.4a16.913,16.913,0,0,1-2.971,1c-.869.179-2.335,4.5-2.62,5.425a4.54,4.54,0,0,1-2.118-.265c-.035-.915,1.506-3.031-1.691-3.414-.7.694-.986,1.223-2.171,1.256a2.653,2.653,0,0,1-2.235-1.1c-.683.305-1.545.217-2.027.988-.506.814.329,1.864.183,2.492a3.985,3.985,0,0,1-2.083.265c-.27-.8-1.773-5.295-2.638-5.443-3.033-.524-5.5-2.027-8.693-2.487-.486-.069-.884-.232-1.349-.254A13.641,13.641,0,0,0,14,383.1Zm-9.067-.276c-.071-.794,3.316-.871,3.378-.055C8.378,383.663,5,383.6,4.932,382.825Zm50.446.484a2.288,2.288,0,0,1,.442-.482c.214-.21.183-.294.508-.279a9.292,9.292,0,0,1,1.563.183,9.139,9.139,0,0,1-.926,1.419A7.717,7.717,0,0,1,55.378,383.31Zm11.417-1.256a3.107,3.107,0,0,1,2.045.427c.915.942-2.454,1.413-3.3.581C64.9,382.425,66.379,382.078,66.795,382.054Zm-50.995.833a8.417,8.417,0,0,1,1.744-.177l.707.719a4.627,4.627,0,0,1-1.55.882,5.744,5.744,0,0,1-.511-.677C15.9,383.232,15.776,383.124,15.8,382.887Zm42.176,1.629a14.2,14.2,0,0,1,1.284-1.6,1.953,1.953,0,0,1,1.2.513,9.339,9.339,0,0,1-1.335,1.963Zm-4.4.769a7.259,7.259,0,0,1,1.282-1.342,5.96,5.96,0,0,1,1.528,1l-1.008,1.468C54.843,386.23,54.14,385.569,53.572,385.286Zm-26.662.5a10.806,10.806,0,0,1,1.355,1.669l-3,0-.29-2.695a4.1,4.1,0,0,1,1.278.232C26.321,385.027,26.817,385.668,26.909,385.781ZM45.4,387.269a10.56,10.56,0,0,1,1.318-1.651,1.961,1.961,0,0,1,1.93-1.048,22.026,22.026,0,0,1-.287,2.691A23.167,23.167,0,0,1,45.4,387.269ZM17.257,385.06a9.115,9.115,0,0,1,1.576-.968l1.234,1.271a13.151,13.151,0,0,1-1.733,1.189A9.125,9.125,0,0,1,17.257,385.06Zm32.183.422a8.125,8.125,0,0,1,1.128-1.2,8.678,8.678,0,0,1,1.331,1.081,9.655,9.655,0,0,1-1.1,1.2Zm-27.715.055a7.126,7.126,0,0,1,1.377-1.1,6.16,6.16,0,0,1,1.09,1.236l-1.4,1.032Zm35.782,2.48-1.2-.783,1.165-1.921,1.2.884ZM16.16,385.35a13.464,13.464,0,0,1,1.3,2.065,5.314,5.314,0,0,1-1.357.86,12.212,12.212,0,0,1-1.236-1.954Zm46.233,1.178c.139.144-.029.122-.254.8a10.82,10.82,0,0,0-.646,3.407,3.669,3.669,0,0,0,2.275,3.155,6.879,6.879,0,0,0,2.377.376c.577,0,2.083-.738,2.1-.035a8.407,8.407,0,0,1-.8,1.915,2.413,2.413,0,0,1-1.479,1.247,6.655,6.655,0,0,1-4.488-.42c-2.653-1.289-3.117-5.425-1.718-7.66a10.393,10.393,0,0,1,1.273-1.45C61.166,387.713,62.327,386.553,62.393,386.528Zm-51.231.119c.248.073.617.606.847.814a6.724,6.724,0,0,1,2.277,2.916,6.08,6.08,0,0,1-.665,5.485,3.543,3.543,0,0,1-1.965,1.477c-1.579.588-4.238.807-5.313-.769-.316-.464-1.1-1.946-.867-2.447.871-.307.909.626,3.453.184a3.54,3.54,0,0,0,2.5-1.479c.889-1.223.763-1.649.595-3.086a7.689,7.689,0,0,0-.325-1.669C11.551,387.592,11.275,387.044,11.162,386.648Zm42.014,3a17.091,17.091,0,0,1-1.824-1.733,17.533,17.533,0,0,1,1.556-1.888,12.878,12.878,0,0,1,1.817,1.386C54.629,387.736,53.448,389.181,53.176,389.65ZM18.9,387.6a12.789,12.789,0,0,1,1.784-1.4l1.614,1.808a14.589,14.589,0,0,1-1.8,1.789A20.865,20.865,0,0,1,18.9,387.6Zm36.613,4.234c-.391-.126-1.225-1.1-1.713-1.366a17.709,17.709,0,0,1,1.654-2.4c.511.261,1.041.913,1.609,1.183A20.2,20.2,0,0,1,55.517,391.83Zm-38.935-2.379,1.561-1.223a14.594,14.594,0,0,1,1.674,2.328l-1.651,1.455A20.412,20.412,0,0,1,16.583,389.451Zm28.548-1.357a22.683,22.683,0,0,1,3.2.113,8.9,8.9,0,0,1,.265,2.076l-4.185-.122A5.344,5.344,0,0,1,45.131,388.094Zm-21.774,5.244a17.258,17.258,0,0,1-2.251-2.8c.219-.27.6-.586.86-.875.276-.307.579-.763.99-.893a5.429,5.429,0,0,0,.7.875c.484.553.391.285.232,1.092C23.721,391.589,23.556,392.491,23.357,393.338Zm1.7-2.909.208-2.1,3.285-.084a8.925,8.925,0,0,1,.719,2.074Zm25.694-1.811a12.576,12.576,0,0,1,1.782,1.817,28.839,28.839,0,0,1-2.2,2.739,17.073,17.073,0,0,1-.573-2.6c-.188-.924-.234-.5.25-1.128A8.378,8.378,0,0,1,50.749,388.618ZM37.11,394.335a9.555,9.555,0,0,1-1.422-2.673c-.438-1.258-.248-2.328,1.187-2.6,1.269-.241,1.685,1.428,1.506,2.4A7.94,7.94,0,0,1,37.11,394.335ZM56.4,392.489a15.415,15.415,0,0,1,1.587-2.483,33.209,33.209,0,0,1,.21,4.444A15.082,15.082,0,0,1,56.4,392.489Zm-41,2.142.181-4.453c.279.068.2.113.475.537.135.212.261.422.4.628a12.057,12.057,0,0,1,.785,1.267,10.055,10.055,0,0,1-.849,1.019A3.953,3.953,0,0,1,15.407,394.631Zm37.153,2.377a20.668,20.668,0,0,1-1.974-2.346c.091-.234,2.335-3.135,2.638-3.469a17.84,17.84,0,0,1,1.8,1.9C54.936,393.349,52.721,396.882,52.559,397.008Zm-33.951-3.829c.338-.223,1.338-1.479,1.777-1.828.172.113,2.445,3.082,2.66,3.431a20.971,20.971,0,0,1-1.934,2.388A33.365,33.365,0,0,1,18.608,393.179Zm25.413-1.6,4.435.064a10.517,10.517,0,0,1,.7,1.91c-.367.093-4.674.075-5.224.018Zm-18.821.232c.65-.046,3.962-.155,4.415-.057l.111,1.965-5.211.02A5.594,5.594,0,0,1,25.2,391.812Zm14.441.621a4.087,4.087,0,0,1,.858,1.13c.478.8.3.736.453,1.539a2.737,2.737,0,0,1,.071,1.667c-.6,1.7-2.717.73-2.651-1.625A7.583,7.583,0,0,1,39.641,392.434Zm4.243,2c.394-.082,4.645-.073,5.341-.055a18.414,18.414,0,0,1,1.207,2.441c-.962-.022-3.022-1.223-3.628-.071-.816-.091-1.627-.354-2.534-.429-.539-.044-.741-.157-.736-.754A2.22,2.22,0,0,1,43.884,394.437Zm-9.858-1.952a6.561,6.561,0,0,1,.785,1.278,4.036,4.036,0,0,1,.575,1.563c.172,1.952-2.034,3.677-2.856,1.678a3.038,3.038,0,0,1,.049-1.791,3.318,3.318,0,0,1,.491-1.567C33.279,393.285,33.632,392.628,34.026,392.484Zm-10.8,4.468a11.7,11.7,0,0,1,1.2-2.414c.195-.1,4.061.026,4.954.026.447,0,.418.007.57.433s.316,1.271-.254,1.441c-.363.106-1.625.177-2.547.42-.449.117-.329-.1-.641-.287C25.574,396,24.057,397.065,23.228,396.952Zm30.357.729,2.326-3.161,2.757,2.8c-.226.705-1.676,1.315-2.363,1.333A3.016,3.016,0,0,1,53.585,397.682Zm-10.168-.389c.436-.1,1.351.427,1.822.586a8.078,8.078,0,0,0,2.016.447c.752.027,1.055-.869,1.786-.65.794.237.931.884.506,1.578a3.475,3.475,0,0,1-.683.531c-.376.265-.4.354-.891.389a4.358,4.358,0,0,1-2.217-.272C45.127,399.568,43.267,398.051,43.418,397.293Zm-28.522.15c.411-.464.933-1.03,1.366-1.47.256-.261.475-.431.732-.719.181-.2.491-.634.736-.7a37.031,37.031,0,0,1,2.41,3.372C18.718,399.8,15.057,398.717,14.9,397.443Zm15.319,0c.159.774-1.691,2.3-2.33,2.618a4.378,4.378,0,0,1-2.191.27,1.226,1.226,0,0,1-.858-.332,6.111,6.111,0,0,1-.723-.55,2.208,2.208,0,0,1-.25-.975c.042-.358.371-.517.679-.626.741-.261,1.1.639,1.755.641C27.849,398.493,29.7,397.315,30.215,397.441Zm9.641,5.609a11.7,11.7,0,0,1-1.481,1.738c-.307-.3-.944-1.271-1.207-1.435L36.089,404.9a8.513,8.513,0,0,1-1.592-1.536c-.027-.413,1.519-1.369.427-2.89-.312-.433-.635-.223-.988-.433.135-.281.632-.312.924-.44a3.728,3.728,0,0,0,1.466-1.3c.159-.243.431-.409.659-.738.329.166.354.451.59.685.128.128.595.63.654.674.42.323,1.375.433,1.791.882-.161.378-.889.5-1.021,1.521C38.879,402.241,39.232,402.546,39.856,403.05Zm1.256-1.585.122-1.691a23.178,23.178,0,0,1,1.99-1.32c.25.6.761,1.287.931,1.873C43.365,400.432,41.943,401.359,41.112,401.465ZM29.5,400.4a14.07,14.07,0,0,1,.971-1.773c.608.279,1.351,1.066,1.923,1.289l.13,1.682A14.963,14.963,0,0,1,29.5,400.4Zm7.335,5.832.27-.977c.254.033.48.725.573.982.367.1.745.064.924.466a1.433,1.433,0,0,1-.06,1.163c-.2.462-.745,1.475-1.313,1.477-.431,0-1.185-1.052-1.357-1.43a1.753,1.753,0,0,1,.055-1.143C36.131,406.267,36.332,406.28,36.832,406.231Z" transform="translate(12.242 -317.659)"/>
        <path id="Path_294" data-name="Path 294" class="cls-4" d="M14,383.1c.31-.022.307-.126.544.135l1.116,1.413c-.135.287-.845.623-1.114.889a8.221,8.221,0,0,1-1.36-1.928,1.371,1.371,0,0,1,.61-.409,13.137,13.137,0,0,0-2.266.975c-.511.274-1.7,1.079-2.233.988-.486-.842-.316-2.812-.621-3.838-.491-.071-2.633.024-3.442.026-.382,0-.674-.108-.758.279-.166.774-.413.082-1.231,1.074-.314.383-.261.292-.338.8a4.07,4.07,0,0,0-.091,1.043c1.258-.091,2.951-.623,4.119.073a7.355,7.355,0,0,1,2.383,2.335c2.259,3.54.252,5.929-1.727,5.7.391-1.393-.031-3.2-1.8-2.938-1.468.212-2.1,1.426-2.363,2.761a5.471,5.471,0,0,0,.723,4.176,5.159,5.159,0,0,0,2.834,2.286c3.378.884,5.854-.889,6.595-.555.077.035,1.147.88,1.468,1.07a4.789,4.789,0,0,0,3.971.833,9.816,9.816,0,0,0,1.873-.665c.557-.243,1.178-.8,1.8-.732a2.3,2.3,0,0,0,.789,1.618,3.891,3.891,0,0,0,1.481.869,17.329,17.329,0,0,0,4.028.734c.524.068,1.7.044,2.063.358a8.361,8.361,0,0,0,1.388.968,1.942,1.942,0,0,1,.661.553,1.927,1.927,0,0,0,.608.595c1.057.783.449.462.639,1.605-.195.212-.659.48-.787.807-.144.374.091.889.2,1.284l1.161.281c.378.747.181,1.128.621,1.976a1.778,1.778,0,0,0,1.693.88c1.733.031,1.939-1.638,2.191-2.985.55-.148,1.3-.137,1.466-.811a1.112,1.112,0,0,0-.827-1.424c.053-1.7-.21-.9,1.3-2.277.363-.329.831-.851,1.209-1.143.975-.754.166-.429,1.718-.641,1.952-.268,6.372-1.194,7.411-3.024.206-.365.172-.619.316-.875.272.055,1.51.937,2.076,1.161,3.86,1.526,6.871-1.5,7.163-1.49.175.046.862.632,1.24.811a5.922,5.922,0,0,0,4.919-.018c1.422-.8,3.4-2.607,3.692-4.271a5.393,5.393,0,0,0-.292-3.429,4.528,4.528,0,0,0-1.727-2.251c-1.632-.986-3.3,1.172-2.443,2.5.471.732.827.475,1.2.8a2.25,2.25,0,0,1-1.988.712,3.478,3.478,0,0,1-1.707-.966,4,4,0,0,1-.566-2.1,7,7,0,0,1,.909-3.093c.128-.223.164-.137.265-.4,1.114-2.9,3.243-2.56,5.936-2.085-.327-3.018-1.092-1.362-1.729-2.7l-4.291-.02-.276,3.61c-1.019-.2-1.7-1.136-2.54-1.539a8.165,8.165,0,0,0-3.044-.99,16.766,16.766,0,0,0-7.077.665c-.553.168-.873.418-1.459.59-.566.166-1.013.183-1.6.4a16.913,16.913,0,0,1-2.971,1c-.869.179-2.335,4.5-2.62,5.425a4.54,4.54,0,0,1-2.118-.265c-.035-.915,1.506-3.031-1.691-3.414-.7.694-.986,1.223-2.171,1.256a2.653,2.653,0,0,1-2.235-1.1c-.683.305-1.545.217-2.027.988-.506.814.329,1.864.183,2.492a3.985,3.985,0,0,1-2.083.265c-.27-.8-1.773-5.295-2.638-5.443-3.033-.524-5.5-2.027-8.693-2.487-.486-.069-.884-.232-1.349-.254A13.641,13.641,0,0,0,14,383.1m-9.067-.276c-.071-.794,3.316-.871,3.378-.055.069.893-3.31.833-3.378.055m50.446.484a2.288,2.288,0,0,1,.442-.482c.214-.21.183-.294.508-.279a9.292,9.292,0,0,1,1.563.183,9.139,9.139,0,0,1-.926,1.419,7.717,7.717,0,0,1-1.587-.842m11.417-1.256a3.107,3.107,0,0,1,2.045.427c.915.942-2.454,1.413-3.3.581-.648-.637.836-.984,1.251-1.008m-50.995.833a8.417,8.417,0,0,1,1.744-.177l.707.719a4.627,4.627,0,0,1-1.55.882,5.744,5.744,0,0,1-.511-.677c-.292-.4-.416-.511-.391-.747m42.176,1.629a14.2,14.2,0,0,1,1.284-1.6,1.953,1.953,0,0,1,1.2.513,9.339,9.339,0,0,1-1.335,1.963Zm-4.4.769a7.259,7.259,0,0,1,1.282-1.342,5.96,5.96,0,0,1,1.528,1l-1.008,1.468c-.531-.186-1.234-.847-1.8-1.13m-26.662.5a10.806,10.806,0,0,1,1.355,1.669l-3,0-.29-2.695a4.1,4.1,0,0,1,1.278.232c.066.044.562.685.654.8M45.4,387.269a10.56,10.56,0,0,1,1.318-1.651,1.961,1.961,0,0,1,1.93-1.048,22.026,22.026,0,0,1-.287,2.691,23.167,23.167,0,0,1-2.96.009M17.257,385.06a9.115,9.115,0,0,1,1.576-.968l1.234,1.271a13.151,13.151,0,0,1-1.733,1.189,9.125,9.125,0,0,1-1.077-1.492m32.183.422a8.125,8.125,0,0,1,1.128-1.2,8.678,8.678,0,0,1,1.331,1.081,9.655,9.655,0,0,1-1.1,1.2Zm-27.715.055a7.126,7.126,0,0,1,1.377-1.1,6.16,6.16,0,0,1,1.09,1.236l-1.4,1.032Zm35.782,2.48-1.2-.783,1.165-1.921,1.2.884ZM16.16,385.35a13.464,13.464,0,0,1,1.3,2.065,5.314,5.314,0,0,1-1.357.86,12.212,12.212,0,0,1-1.236-1.954Zm46.233,1.178c.139.144-.029.122-.254.8a10.82,10.82,0,0,0-.646,3.407,3.669,3.669,0,0,0,2.275,3.155,6.879,6.879,0,0,0,2.377.376c.577,0,2.083-.738,2.1-.035a8.407,8.407,0,0,1-.8,1.915,2.413,2.413,0,0,1-1.479,1.247,6.655,6.655,0,0,1-4.488-.42c-2.653-1.289-3.117-5.425-1.718-7.66a10.393,10.393,0,0,1,1.273-1.45c.13-.148,1.291-1.309,1.357-1.333m-51.231.119c.248.073.617.606.847.814a6.724,6.724,0,0,1,2.277,2.916,6.08,6.08,0,0,1-.665,5.485,3.543,3.543,0,0,1-1.965,1.477c-1.579.588-4.238.807-5.313-.769-.316-.464-1.1-1.946-.867-2.447.871-.307.909.626,3.453.184a3.54,3.54,0,0,0,2.5-1.479c.889-1.223.763-1.649.595-3.086a7.689,7.689,0,0,0-.325-1.669c-.144-.48-.42-1.028-.533-1.424m42.014,3a17.091,17.091,0,0,1-1.824-1.733,17.533,17.533,0,0,1,1.556-1.888,12.878,12.878,0,0,1,1.817,1.386c-.1.321-1.278,1.766-1.55,2.235M18.9,387.6a12.789,12.789,0,0,1,1.784-1.4l1.614,1.808a14.589,14.589,0,0,1-1.8,1.789,20.865,20.865,0,0,1-1.6-2.2m36.613,4.234c-.391-.126-1.225-1.1-1.713-1.366a17.709,17.709,0,0,1,1.654-2.4c.511.261,1.041.913,1.609,1.183a20.2,20.2,0,0,1-1.55,2.587m-38.935-2.379,1.561-1.223a14.594,14.594,0,0,1,1.674,2.328l-1.651,1.455a20.412,20.412,0,0,1-1.583-2.56m28.548-1.357a22.683,22.683,0,0,1,3.2.113,8.9,8.9,0,0,1,.265,2.076l-4.185-.122a5.344,5.344,0,0,1,.723-2.067m-21.774,5.244a17.258,17.258,0,0,1-2.251-2.8c.219-.27.6-.586.86-.875.276-.307.579-.763.99-.893a5.429,5.429,0,0,0,.7.875c.484.553.391.285.232,1.092-.168.856-.334,1.758-.533,2.6m1.7-2.909.208-2.1,3.285-.084a8.925,8.925,0,0,1,.719,2.074Zm25.694-1.811a12.576,12.576,0,0,1,1.782,1.817,28.839,28.839,0,0,1-2.2,2.739,17.073,17.073,0,0,1-.573-2.6c-.188-.924-.234-.5.25-1.128a8.378,8.378,0,0,1,.745-.833M37.11,394.335a9.555,9.555,0,0,1-1.422-2.673c-.438-1.258-.248-2.328,1.187-2.6,1.269-.241,1.685,1.428,1.506,2.4a7.94,7.94,0,0,1-1.271,2.876M56.4,392.489a15.415,15.415,0,0,1,1.587-2.483,33.209,33.209,0,0,1,.21,4.444,15.082,15.082,0,0,1-1.8-1.961m-41,2.142.181-4.453c.279.068.2.113.475.537.135.212.261.422.4.628a12.057,12.057,0,0,1,.785,1.267,10.055,10.055,0,0,1-.849,1.019,3.953,3.953,0,0,1-.99,1m37.153,2.377a20.668,20.668,0,0,1-1.974-2.346c.091-.234,2.335-3.135,2.638-3.469a17.84,17.84,0,0,1,1.8,1.9c-.082.256-2.3,3.789-2.458,3.915m-33.951-3.829c.338-.223,1.338-1.479,1.777-1.828.172.113,2.445,3.082,2.66,3.431a20.971,20.971,0,0,1-1.934,2.388,33.365,33.365,0,0,1-2.5-3.99m25.413-1.6,4.435.064a10.517,10.517,0,0,1,.7,1.91c-.367.093-4.674.075-5.224.018Zm-18.821.232c.65-.046,3.962-.155,4.415-.057l.111,1.965-5.211.02a5.594,5.594,0,0,1,.685-1.928m14.441.621a4.087,4.087,0,0,1,.858,1.13c.478.8.3.736.453,1.539a2.737,2.737,0,0,1,.071,1.667c-.6,1.7-2.717.73-2.651-1.625a7.583,7.583,0,0,1,1.269-2.71m4.243,2c.394-.082,4.645-.073,5.341-.055a18.414,18.414,0,0,1,1.207,2.441c-.962-.022-3.022-1.223-3.628-.071-.816-.091-1.627-.354-2.534-.429-.539-.044-.741-.157-.736-.754a2.22,2.22,0,0,1,.349-1.132m-9.858-1.952a6.561,6.561,0,0,1,.785,1.278,4.036,4.036,0,0,1,.575,1.563c.172,1.952-2.034,3.677-2.856,1.678a3.038,3.038,0,0,1,.049-1.791,3.318,3.318,0,0,1,.491-1.567c.21-.36.564-1.017.957-1.161m-10.8,4.468a11.7,11.7,0,0,1,1.2-2.414c.195-.1,4.061.026,4.954.026.447,0,.418.007.57.433s.316,1.271-.254,1.441c-.363.106-1.625.177-2.547.42-.449.117-.329-.1-.641-.287-.937-.568-2.454.493-3.283.38m30.357.729,2.326-3.161,2.757,2.8c-.226.705-1.676,1.315-2.363,1.333a3.016,3.016,0,0,1-2.719-.968m-10.168-.389c.436-.1,1.351.427,1.822.586a8.078,8.078,0,0,0,2.016.447c.752.027,1.055-.869,1.786-.65.794.237.931.884.506,1.578a3.475,3.475,0,0,1-.683.531c-.376.265-.4.354-.891.389a4.358,4.358,0,0,1-2.217-.272c-.63-.334-2.489-1.85-2.339-2.609m-28.522.15c.411-.464.933-1.03,1.366-1.47.256-.261.475-.431.732-.719.181-.2.491-.634.736-.7a37.031,37.031,0,0,1,2.41,3.372c-1.422,1.875-5.083.794-5.244-.48m15.319,0c.159.774-1.691,2.3-2.33,2.618a4.378,4.378,0,0,1-2.191.27,1.226,1.226,0,0,1-.858-.332,6.111,6.111,0,0,1-.723-.55,2.208,2.208,0,0,1-.25-.975c.042-.358.371-.517.679-.626.741-.261,1.1.639,1.755.641,1.552.007,3.4-1.172,3.918-1.046m9.641,5.609a11.7,11.7,0,0,1-1.481,1.738c-.307-.3-.944-1.271-1.207-1.435L36.089,404.9a8.513,8.513,0,0,1-1.592-1.536c-.027-.413,1.519-1.369.427-2.89-.312-.433-.635-.223-.988-.433.135-.281.632-.312.924-.44a3.728,3.728,0,0,0,1.466-1.3c.159-.243.431-.409.659-.738.329.166.354.451.59.685.128.128.595.63.654.674.42.323,1.375.433,1.791.882-.161.378-.889.5-1.021,1.521-.119.924.234,1.229.858,1.733m1.256-1.585.122-1.691a23.178,23.178,0,0,1,1.99-1.32c.25.6.761,1.287.931,1.873-.789.106-2.211,1.032-3.042,1.139M29.5,400.4a14.07,14.07,0,0,1,.971-1.773c.608.279,1.351,1.066,1.923,1.289l.13,1.682a14.963,14.963,0,0,1-3.024-1.2m7.335,5.832.27-.977c.254.033.48.725.573.982.367.1.745.064.924.466a1.433,1.433,0,0,1-.06,1.163c-.2.462-.745,1.475-1.313,1.477-.431,0-1.185-1.052-1.357-1.43a1.753,1.753,0,0,1,.055-1.143c.208-.5.409-.489.909-.537" transform="translate(12.242 -317.659)"/>
        <path id="Path_295" data-name="Path 295" class="cls-3" d="M77.135,357.677a5.317,5.317,0,0,1-.175,2.832,7.115,7.115,0,0,1-.436,1.136c-.022.038-.705.884-.73.906a3.418,3.418,0,0,1-2.549.668,13.007,13.007,0,0,1-2.938-.338,21.523,21.523,0,0,1-2.483-.719,6.556,6.556,0,0,0-2.549-.69c-1.165-.033-11.636-.234-12.659.04-.243.066-.628.526-.853.727a6.67,6.67,0,0,1-3.365,1.532c-2.783.411-4.782-.82-7.079-2.392-.5-.338-1.563-.946-1.685-1.532l-.316-.007c-.051.482-.318.528-.677.8L36.9,361.979a16.37,16.37,0,0,1-3.146,1.51,4.472,4.472,0,0,1-2.629.378,5.969,5.969,0,0,1-3.416-1.189c-.732-.484-.7-1.183-1.853-1.181-3.436,0-7.411-.21-10.742-.06a5.261,5.261,0,0,0-2.657.433c-1.769.948-5.5,2.405-7.05.712a5.605,5.605,0,0,1-1.28-4.707c.871.159,1.384.8,2.381.029a1.666,1.666,0,0,0,.212-2.251c-1.147-1.313-3.467-.466-4.68.323A5.806,5.806,0,0,0-.306,359.87c-.265,6.836,4.019,7.03,8,10.689a12.911,12.911,0,0,1,2.863,3.36c1.249,2.2,1.077,3.856,1.479,4.72,2.246-.157,3.849-1.114,6.23-.062a2.7,2.7,0,0,1,1.762,1.87,14.947,14.947,0,0,1,.714,9.323,27.585,27.585,0,0,1-.734,2.894,11.676,11.676,0,0,1-.871,2.691,34.792,34.792,0,0,1-2.441,4.875,13.876,13.876,0,0,0-3.124,4.176,12.74,12.74,0,0,0-1.141,6.128c.06,1.189.312,5.653.752,6.515.566-.007,3.089-1.78,5.41-2.3,4.459-1,8.476,1.094,12.628,2.33a23.36,23.36,0,0,0,3.329.531,33.86,33.86,0,0,0,3.6-.312c.192-.128.332-2.169,2.5-2.326,1.517-.111,2.284.869,2.726,2.131a16.871,16.871,0,0,0,6.929-.232c.862-.239,1.786-.811,2.764-1.039a6.09,6.09,0,0,0,1.532-.4A5.032,5.032,0,0,1,56,414.9a15.711,15.711,0,0,1,6.8-.493c.517.1,1.052.23,1.563.36a7.735,7.735,0,0,1,1.331.6c.882.413,1.269,1.094,2.363,1.486.119-2.222.451-4.424.617-6.641.19-2.518-.024-3.685-1.632-5.611-2.551-3.053-4.258-5.016-5.843-8.77-1.647-3.9-2.852-7.806-2.025-12.091.252-1.3,1.176-4.276,2.251-5.078,1.685-1.26,4.324-.365,6.206-.1a9.337,9.337,0,0,1,1.831-4.6c2.938-4.008,7.744-5.573,10.63-8.75,2.264-2.492,1.985-7.194-.73-9.226-1.2-.9-3.637-1.707-4.875-.548a1.755,1.755,0,0,0-.391,1.227,2.341,2.341,0,0,0,.6,1.026C75.656,358.767,76.319,357.706,77.135,357.677Zm-63.952,5.644.007,7.557a48.813,48.813,0,0,1-6.666-3.433,21.038,21.038,0,0,1-2.147-1.234l-1.895-1.49a5.221,5.221,0,0,1-1.057-5.187c.2-.55.712-2,1.313-2.12.148.268-.139,1.094.015,2.211.292,2.136.915,3.535,2.814,4.477a6.377,6.377,0,0,0,4.081.564,9.593,9.593,0,0,0,1.862-.548A9.048,9.048,0,0,1,13.183,363.321Zm65.226-6.073c.522-.044.517.5.864.884.911,1.008.935,3.292.562,4.523-.559,1.831-2.2,2.757-3.8,3.573s-3.3,1.716-4.957,2.412c-.677.283-1.992.789-2.569,1.112a19.2,19.2,0,0,1-2.682,1.057c0-.971-.135-7.075.033-7.459a15.181,15.181,0,0,1,2.012.575c.727.206,1.459.378,2.2.513a9.07,9.07,0,0,0,4.738-.166,5.188,5.188,0,0,0,3.61-4.53C78.541,358.4,78.3,357.936,78.408,357.248ZM14.69,413.94v-.086c-.256-.4-.093-3.624-.093-4.338,0-1.833-.148-1.972.873-3.5,1.384-2.071,2.817-3.192,5.386-3.371a9.5,9.5,0,0,0-1.061-2.222c-.285-.557-.252-.639.022-1.174l1.488-3.4a26.622,26.622,0,0,0,1.946-7.95,16.6,16.6,0,0,0,.035-3.2,8.919,8.919,0,0,0-.544-2.757,21.937,21.937,0,0,0-4.528-8.567,17.43,17.43,0,0,0-1.831-1.424c-.988-.725-1.388-.524-1.521-1.813-.051-.5.088-6.307.148-6.425.3-.307,7.928-.15,9.4-.161.69-.007.814.219,1.368.562,4.134,2.551,7.335,2.892,11.448.064a21.934,21.934,0,0,1,2.332-1.605c.376.265.683.621,1.072.875s.78.5,1.178.752a14.553,14.553,0,0,0,2.545,1.322c3.265,1.218,6.126.252,8.918-1.537.723-.462.517-.5,1.439-.506,1.8-.007,8.545-.181,9.352.08l-.033,7.424a17.92,17.92,0,0,0-2.456,3c-.52.893-1.561,2.613-1.95,3.48-.287.639-.48,1.28-.794,1.926a15.1,15.1,0,0,0-1.616,6.573,18.726,18.726,0,0,0,1.044,7.143c.183.646.513,1.291.736,1.983a29.43,29.43,0,0,0,1.819,3.615c1.284,1.9-.219,2.162-.482,3.884,1.552.279,1.873.139,3.25,1.07a9.115,9.115,0,0,1,2.122,2.229,4.748,4.748,0,0,1,.931,3.447,31.38,31.38,0,0,1-.128,4.313c-.968.161-2.173-1.638-6.535-1.393a23.874,23.874,0,0,0-5.047.977,7.485,7.485,0,0,1-1.49.553c-2.08.316-2.169,1.353-6.447,1.6a15.825,15.825,0,0,1-3.582-.232,6.889,6.889,0,0,1-1.567-.427c-.785-.356-.694-.734-1.072-.986-.409.128-.5,1.044-2.593,1.517-4.006.9-6.626.049-10.393-1.262-3.365-1.17-6.772-2.094-10.307-.966a9.975,9.975,0,0,0-1.464.59c-.281.141-1.185.7-1.377.6C14.564,413.874,14.615,414.051,14.69,413.94Zm-3.754-42.423a10.564,10.564,0,0,1,2.514.526,10.048,10.048,0,0,1,1.147.425,9.135,9.135,0,0,1,2.5,2.337c.431.539,1.185,1.176,1.28,1.921-.853-.057-1.8-.281-2.646-.268-.725.011-2.2.276-2.788.208-.2-.48-.1-.873-.394-1.422-.2-.371-.334-.867-.528-1.284C11.8,373.493,10.775,371.926,10.936,371.517Zm50.524,5.229a7.375,7.375,0,0,1,1.2-1.968,11.433,11.433,0,0,1,1.534-1.609,4.853,4.853,0,0,1,2.018-1.125,10.2,10.2,0,0,1,2.7-.531c.038.911-1.45,2.379-1.923,4.561-.2.92.241.643-2.439.478A8.868,8.868,0,0,0,61.46,376.745Z" transform="translate(8.459 -349.663)"/>
        <path id="Path_296" data-name="Path 296" class="cls-4" d="M77.135,357.677a5.317,5.317,0,0,1-.175,2.832,7.115,7.115,0,0,1-.436,1.136c-.022.038-.705.884-.73.906a3.418,3.418,0,0,1-2.549.668,13.007,13.007,0,0,1-2.938-.338,21.523,21.523,0,0,1-2.483-.719,6.556,6.556,0,0,0-2.549-.69c-1.165-.033-11.636-.234-12.659.04-.243.066-.628.526-.853.727a6.67,6.67,0,0,1-3.365,1.532c-2.783.411-4.782-.82-7.079-2.392-.5-.338-1.563-.946-1.685-1.532l-.316-.007c-.051.482-.318.528-.677.8L36.9,361.979a16.37,16.37,0,0,1-3.146,1.51,4.472,4.472,0,0,1-2.629.378,5.969,5.969,0,0,1-3.416-1.189c-.732-.484-.7-1.183-1.853-1.181-3.436,0-7.411-.21-10.742-.06a5.261,5.261,0,0,0-2.657.433c-1.769.948-5.5,2.405-7.05.712a5.605,5.605,0,0,1-1.28-4.707c.871.159,1.384.8,2.381.029a1.666,1.666,0,0,0,.212-2.251c-1.147-1.313-3.467-.466-4.68.323A5.806,5.806,0,0,0-.306,359.87c-.265,6.836,4.019,7.03,8,10.689a12.911,12.911,0,0,1,2.863,3.36c1.249,2.2,1.077,3.856,1.479,4.72,2.246-.157,3.849-1.114,6.23-.062a2.7,2.7,0,0,1,1.762,1.87,14.947,14.947,0,0,1,.714,9.323,27.585,27.585,0,0,1-.734,2.894,11.676,11.676,0,0,1-.871,2.691,34.792,34.792,0,0,1-2.441,4.875,13.876,13.876,0,0,0-3.124,4.176,12.74,12.74,0,0,0-1.141,6.128c.06,1.189.312,5.653.752,6.515.566-.007,3.089-1.78,5.41-2.3,4.459-1,8.476,1.094,12.628,2.33a23.36,23.36,0,0,0,3.329.531,33.86,33.86,0,0,0,3.6-.312c.192-.128.332-2.169,2.5-2.326,1.517-.111,2.284.869,2.726,2.131a16.871,16.871,0,0,0,6.929-.232c.862-.239,1.786-.811,2.764-1.039a6.09,6.09,0,0,0,1.532-.4A5.032,5.032,0,0,1,56,414.9a15.711,15.711,0,0,1,6.8-.493c.517.1,1.052.23,1.563.36a7.735,7.735,0,0,1,1.331.6c.882.413,1.269,1.094,2.363,1.486.119-2.222.451-4.424.617-6.641.19-2.518-.024-3.685-1.632-5.611-2.551-3.053-4.258-5.016-5.843-8.77-1.647-3.9-2.852-7.806-2.025-12.091.252-1.3,1.176-4.276,2.251-5.078,1.685-1.26,4.324-.365,6.206-.1a9.337,9.337,0,0,1,1.831-4.6c2.938-4.008,7.744-5.573,10.63-8.75,2.264-2.492,1.985-7.194-.73-9.226-1.2-.9-3.637-1.707-4.875-.548a1.755,1.755,0,0,0-.391,1.227,2.341,2.341,0,0,0,.6,1.026c.957,1.07,1.621.009,2.436-.02m-63.952,5.644.007,7.557a48.813,48.813,0,0,1-6.666-3.433,21.038,21.038,0,0,1-2.147-1.234l-1.895-1.49a5.221,5.221,0,0,1-1.057-5.187c.2-.55.712-2,1.313-2.12.148.268-.139,1.094.015,2.211.292,2.136.915,3.535,2.814,4.477a6.377,6.377,0,0,0,4.081.564,9.593,9.593,0,0,0,1.862-.548,9.048,9.048,0,0,1,1.671-.8m65.226-6.073c.522-.044.517.5.864.884.911,1.008.935,3.292.562,4.523-.559,1.831-2.2,2.757-3.8,3.573s-3.3,1.716-4.957,2.412c-.677.283-1.992.789-2.569,1.112a19.2,19.2,0,0,1-2.682,1.057c0-.971-.135-7.075.033-7.459a15.181,15.181,0,0,1,2.012.575c.727.206,1.459.378,2.2.513a9.07,9.07,0,0,0,4.738-.166,5.188,5.188,0,0,0,3.61-4.53c.124-1.346-.113-1.806-.009-2.494M14.69,413.94v-.086c-.256-.4-.093-3.624-.093-4.338,0-1.833-.148-1.972.873-3.5,1.384-2.071,2.817-3.192,5.386-3.371a9.5,9.5,0,0,0-1.061-2.222c-.285-.557-.252-.639.022-1.174l1.488-3.4a26.622,26.622,0,0,0,1.946-7.95,16.6,16.6,0,0,0,.035-3.2,8.919,8.919,0,0,0-.544-2.757,21.937,21.937,0,0,0-4.528-8.567,17.43,17.43,0,0,0-1.831-1.424c-.988-.725-1.388-.524-1.521-1.813-.051-.5.088-6.307.148-6.425.3-.307,7.928-.15,9.4-.161.69-.007.814.219,1.368.562,4.134,2.551,7.335,2.892,11.448.064a21.934,21.934,0,0,1,2.332-1.605c.376.265.683.621,1.072.875s.78.5,1.178.752a14.553,14.553,0,0,0,2.545,1.322c3.265,1.218,6.126.252,8.918-1.537.723-.462.517-.5,1.439-.506,1.8-.007,8.545-.181,9.352.08l-.033,7.424a17.92,17.92,0,0,0-2.456,3c-.52.893-1.561,2.613-1.95,3.48-.287.639-.48,1.28-.794,1.926a15.1,15.1,0,0,0-1.616,6.573,18.726,18.726,0,0,0,1.044,7.143c.183.646.513,1.291.736,1.983a29.43,29.43,0,0,0,1.819,3.615c1.284,1.9-.219,2.162-.482,3.884,1.552.279,1.873.139,3.25,1.07a9.115,9.115,0,0,1,2.122,2.229,4.748,4.748,0,0,1,.931,3.447,31.38,31.38,0,0,1-.128,4.313c-.968.161-2.173-1.638-6.535-1.393a23.874,23.874,0,0,0-5.047.977,7.485,7.485,0,0,1-1.49.553c-2.08.316-2.169,1.353-6.447,1.6a15.825,15.825,0,0,1-3.582-.232,6.889,6.889,0,0,1-1.567-.427c-.785-.356-.694-.734-1.072-.986-.409.128-.5,1.044-2.593,1.517-4.006.9-6.626.049-10.393-1.262-3.365-1.17-6.772-2.094-10.307-.966a9.975,9.975,0,0,0-1.464.59c-.281.141-1.185.7-1.377.6-.069-.352-.018-.175.057-.285m-3.754-42.423a10.564,10.564,0,0,1,2.514.526,10.048,10.048,0,0,1,1.147.425,9.135,9.135,0,0,1,2.5,2.337c.431.539,1.185,1.176,1.28,1.921-.853-.057-1.8-.281-2.646-.268-.725.011-2.2.276-2.788.208-.2-.48-.1-.873-.394-1.422-.2-.371-.334-.867-.528-1.284-.219-.466-1.242-2.034-1.081-2.443m50.524,5.229a7.375,7.375,0,0,1,1.2-1.968,11.433,11.433,0,0,1,1.534-1.609,4.853,4.853,0,0,1,2.018-1.125,10.2,10.2,0,0,1,2.7-.531c.038.911-1.45,2.379-1.923,4.561-.2.92.241.643-2.439.478a8.868,8.868,0,0,0-3.093.195" transform="translate(8.459 -349.663)"/>
        <path id="Path_297" data-name="Path 297" class="cls-3" d="M3.444,369.2c.617-.383.581-.464,1-1.114a7.782,7.782,0,0,1-1.386.531c-2.094.411-2.12.86-2.454,3.268a26.343,26.343,0,0,1-.827,2.976c-.082.281-.1.533-.164.807-.082.329-.226.4-.305.661-.086.276-.031.486-.2.76a25.952,25.952,0,0,1-1.727,2.987c-.628.592-2.184,4.057-.639,5.624.818.831,2.083.637,3.168.654a7.709,7.709,0,0,0-.473,1.95,4.231,4.231,0,0,0,.422,1.886c.626.889,1.318,1.751,1.95,2.642,1.567,2.211.049,2.012.071,3.263.015.8,1.512,2.151,1.55,3.024-.69.588-1.6,1.143-2.343,1.753-.177.144-.416.407-.535.493-.354.259-1.426.831-1.667,1.349a1.928,1.928,0,0,0,.685.718c.442-.177,1.742-1.64,3.113-2.235a2.006,2.006,0,0,1,2.094.075c.929.451.652.736,1.846.776-.018-.829-.073-2.078.9-2.343a8.954,8.954,0,0,1,2.971-.221c1.044.062,2.091.024,3.137.015.937-.007,2.233.049,3.128-.055.1-.3-.115-3.111-.148-3.654-.864.1-.946.36-1.961.261-1.572-.153-1.192-1.11-2.284-2.315-.268-.294-.4-.281-.369-.778a2.422,2.422,0,0,1,.367-.787,5.079,5.079,0,0,0,.652-3.679,14.966,14.966,0,0,0-1.207-3.358,32.819,32.819,0,0,0-2.788,2c-2.4,1.766-1.755,1.638-1.444,2.642a6.785,6.785,0,0,1,.272,2.149c-.011.692-.259,1.51.2,2.08.7.871,2.527.988,2.458,2.366a4.273,4.273,0,0,1-2.673.708,4.549,4.549,0,0,1-2.71-.672c-.153-.836.422-1.377.8-2.036a15.073,15.073,0,0,0,.639-2.2c.59-2.443-.615-2.578,1.333-4.289a34.982,34.982,0,0,1,3.186-2.432,3.706,3.706,0,0,0,1.43-1.4,8.041,8.041,0,0,0,.5-.884,3.665,3.665,0,0,0,.281-1.116,3.084,3.084,0,0,1,2.118.064c3.164.71,1.4.86,2.237,1.265.878.42,1.948-.8,2.445-.212.237.283-.141.239.363.668.183.155.367.3.546.48.389.385.665.878-.007,1.128l.183.577c.513-1.041,2.6-4.853,2.744-5.744-1.143-.9-1.461-.427-2.392.358-.811.685-1.846.942-2.445-.141-.352-.632-.814-1.941-1.428-2.308-.478-.285-1.143-.148-1.424-.453a1.049,1.049,0,0,1,.122-1.318c.382-.336,2.6.268,2.83-.913.274-1.369-.122-1.545.736-2.936,1.174-1.9,3.975.829,5.512.458a13.249,13.249,0,0,0-.378-3.765,23.993,23.993,0,0,0-1.11-3.049c-1.731.243-.975,1.587-1.888,2.631-.449.515-.979.473-1.634.6a9.077,9.077,0,0,0-3.3,1.229c-1.143.942-.363.259-1.037,1.194-.973,1.353-2.974.436-3.579.9a4.307,4.307,0,0,0,.482,1.147,2.049,2.049,0,0,1,.367,1.32l-1.68.016c.018.741.926,2.018.814,2.971-.672-.108-1.574-1.159-2.144-1.1a11.669,11.669,0,0,1-.376,1.981c-.588-.133-1.488-.935-2.231-1.123.029.217.161,1.088.148,1.2a4.071,4.071,0,0,1-.3,1c-.588-.281-1.583-1.614-1.917-1.709-.181,1.09.115,2.713-.99,3.38-.44.265-.88.619-1.34.836A5.763,5.763,0,0,0,2,383.427a9.958,9.958,0,0,1-2.58,1.76c-1.333.268-2.469-.232-2.116-1.8.139-.615.155-1.309.292-1.875a41.1,41.1,0,0,1,1.866-4.6,21.242,21.242,0,0,1,1.426-2.925A14.414,14.414,0,0,1,3.1,371.947c-.232.018-.887.009-.522-.36.022-.022.641-.265.721-.3-.318,0-.453.075-.721-.062.038-.327.741-.427.741-.427a1.945,1.945,0,0,0,.707-.374c-.508-.208-.531-.159-.679-.5l.281-.318C3.554,369.435,3.506,369.528,3.444,369.2Z" transform="translate(4.088 -335.939)"/>
        <path id="Path_298" data-name="Path 298" class="cls-5" d="M3.444,369.2c.617-.383.581-.464,1-1.114a7.782,7.782,0,0,1-1.386.531c-2.094.411-2.12.86-2.454,3.268a26.343,26.343,0,0,1-.827,2.976c-.082.281-.1.533-.164.807-.082.329-.226.4-.305.661-.086.276-.031.486-.2.76a25.952,25.952,0,0,1-1.727,2.987c-.628.592-2.184,4.057-.639,5.624.818.831,2.083.637,3.168.654a7.709,7.709,0,0,0-.473,1.95,4.231,4.231,0,0,0,.422,1.886c.626.889,1.318,1.751,1.95,2.642,1.567,2.211.049,2.012.071,3.263.015.8,1.512,2.151,1.55,3.024-.69.588-1.6,1.143-2.343,1.753-.177.144-.416.407-.535.493-.354.259-1.426.831-1.667,1.349a1.928,1.928,0,0,0,.685.718c.442-.177,1.742-1.64,3.113-2.235a2.006,2.006,0,0,1,2.094.075c.929.451.652.736,1.846.776-.018-.829-.073-2.078.9-2.343a8.954,8.954,0,0,1,2.971-.221c1.044.062,2.091.024,3.137.015.937-.007,2.233.049,3.128-.055.1-.3-.115-3.111-.148-3.654-.864.1-.946.36-1.961.261-1.572-.153-1.192-1.11-2.284-2.315-.268-.294-.4-.281-.369-.778a2.422,2.422,0,0,1,.367-.787,5.079,5.079,0,0,0,.652-3.679,14.966,14.966,0,0,0-1.207-3.358,32.819,32.819,0,0,0-2.788,2c-2.4,1.766-1.755,1.638-1.444,2.642a6.785,6.785,0,0,1,.272,2.149c-.011.692-.259,1.51.2,2.08.7.871,2.527.988,2.458,2.366a4.273,4.273,0,0,1-2.673.708,4.549,4.549,0,0,1-2.71-.672c-.153-.836.422-1.377.8-2.036a15.073,15.073,0,0,0,.639-2.2c.59-2.443-.615-2.578,1.333-4.289a34.982,34.982,0,0,1,3.186-2.432,3.706,3.706,0,0,0,1.43-1.4,8.041,8.041,0,0,0,.5-.884,3.665,3.665,0,0,0,.281-1.116,3.084,3.084,0,0,1,2.118.064c3.164.71,1.4.86,2.237,1.265.878.42,1.948-.8,2.445-.212.237.283-.141.239.363.668.183.155.367.3.546.48.389.385.665.878-.007,1.128l.183.577c.513-1.041,2.6-4.853,2.744-5.744-1.143-.9-1.461-.427-2.392.358-.811.685-1.846.942-2.445-.141-.352-.632-.814-1.941-1.428-2.308-.478-.285-1.143-.148-1.424-.453a1.049,1.049,0,0,1,.122-1.318c.382-.336,2.6.268,2.83-.913.274-1.369-.122-1.545.736-2.936,1.174-1.9,3.975.829,5.512.458a13.249,13.249,0,0,0-.378-3.765,23.993,23.993,0,0,0-1.11-3.049c-1.731.243-.975,1.587-1.888,2.631-.449.515-.979.473-1.634.6a9.077,9.077,0,0,0-3.3,1.229c-1.143.942-.363.259-1.037,1.194-.973,1.353-2.974.436-3.579.9a4.307,4.307,0,0,0,.482,1.147,2.049,2.049,0,0,1,.367,1.32l-1.68.016c.018.741.926,2.018.814,2.971-.672-.108-1.574-1.159-2.144-1.1a11.669,11.669,0,0,1-.376,1.981c-.588-.133-1.488-.935-2.231-1.123.029.217.161,1.088.148,1.2a4.071,4.071,0,0,1-.3,1c-.588-.281-1.583-1.614-1.917-1.709-.181,1.09.115,2.713-.99,3.38-.44.265-.88.619-1.34.836A5.763,5.763,0,0,0,2,383.427a9.958,9.958,0,0,1-2.58,1.76c-1.333.268-2.469-.232-2.116-1.8.139-.615.155-1.309.292-1.875a41.1,41.1,0,0,1,1.866-4.6,21.242,21.242,0,0,1,1.426-2.925A14.414,14.414,0,0,1,3.1,371.947c-.232.018-.887.009-.522-.36.022-.022.641-.265.721-.3-.318,0-.453.075-.721-.062.038-.327.741-.427.741-.427a1.945,1.945,0,0,0,.707-.374c-.508-.208-.531-.159-.679-.5l.281-.318c-.075-.172-.124-.08-.186-.409" transform="translate(4.088 -335.939)"/>
        <path id="Path_299" data-name="Path 299" class="cls-3" d="M43.246,378.421a2.455,2.455,0,0,1-1.176.7c-.232-.705-.188-1.331-.394-1.983-.674.022-1.459,1.013-2.122,1.1-.086-1.021.818-2.3.807-2.98l-1.685-.007c.046-.276.062-.535.106-.8.071-.433.139-.285.305-.548a4.409,4.409,0,0,0,.447-1.119c-.705-.466-2.593.491-3.608-.929-.128-.177-.343-.61-.438-.705a5.516,5.516,0,0,0-2.111-1.2c-.911-.4-2.821-.416-3.4-1.079-.858-.99-.2-2.394-1.813-2.626-.745.723-1.983,5.852-1.512,6.816,1.508.321,4.262-2.348,5.5-.438a4.233,4.233,0,0,1,.555,1.32c.1.539.044,1.236.175,1.689.3,1.037,2.5.473,2.841.84a1.016,1.016,0,0,1,.031,1.349c-.29.241-.946.093-1.433.442-.626.449-1.013,1.669-1.4,2.337-.6,1.035-1.685.668-2.445.038-.9-.749-1.216-1.251-2.35-.334a24.319,24.319,0,0,0,1.3,2.962c.464.948.957,1.932,1.455,2.8l.188-.581c-.7-.276-.389-.75-.091-1.092.458-.528.758-.343.9-.99.146-.663.946-.241,1.3-.1a1.36,1.36,0,0,0,1.419-.011l.139-.59c.785-.4,3.27-1.072,4.017-.626.066.239,0,.345.086.648a3.205,3.205,0,0,0,.212.509,4.729,4.729,0,0,0,1.943,2.277c1.044.8,2.224,1.572,3.192,2.425,1.786,1.579.818,2.209,1.307,4.313a14,14,0,0,0,.648,2.191c.4.641.911,1.189.785,2a4.639,4.639,0,0,1-2.713.674,4.307,4.307,0,0,1-2.675-.71c-.082-1.563,2.481-1.6,2.722-2.832.091-.466-.1-1.886-.022-2.613a5.85,5.85,0,0,1,.234-1.152,8.869,8.869,0,0,0,.349-.988,26.7,26.7,0,0,0-4.583-3.659,15.668,15.668,0,0,0-1.167,3.161c-.716,2.991,1.3,4.075.917,5.08-.018.049-.758,1.01-.909,1.267-.254.436-.464,1.03-.946,1.236a2.944,2.944,0,0,1-1.826.126l-.263,3.489c1.937.073,4,.047,5.934-.024a8,8,0,0,1,2.73.292c.778.27.714,1.645.73,2.29,1.1.011,1-.367,1.884-.794a1.972,1.972,0,0,1,2.045-.057c1.4.615,2.631,2.027,3.115,2.237a1.817,1.817,0,0,0,.685-.761,5.553,5.553,0,0,0-1.112-.957,6.581,6.581,0,0,1-1.116-.878c-.661-.546-1.744-1.187-2.308-1.727.018-.911,1.554-2.178,1.541-3.08-.011-.619-.641-1-.626-1.7.015-.754,1.2-2.231,1.722-2.9.867-1.112,1.419-1.716,1.342-3.257a7.239,7.239,0,0,0-.471-1.789c1.125-.206,2.213.27,3.175-.692,1.528-1.525,0-5.014-.643-5.624a13.5,13.5,0,0,1-1.4-2.414,3.134,3.134,0,0,0-.354-.61,4.738,4.738,0,0,1-.2-.769,3.832,3.832,0,0,1-.3-.657c-.066-.276-.082-.531-.168-.811-.15-.5-.318-.966-.455-1.475-.955-3.493-.009-4.114-2.863-4.731a7.546,7.546,0,0,1-1.338-.519c.4.626.44.778,1.037,1.132-.137.484-.356.433-.029.595a.778.778,0,0,1-.588.617c.716.654,1.4.184,1.424.867l-.705-.015c.108.055.7.274.725.3.367.378-.31.38-.528.363a13.885,13.885,0,0,0,1.2.948,5.727,5.727,0,0,1,1.052,1.125,53.96,53.96,0,0,1,3.274,7.537c.128.577.141,1.223.283,1.826.1.4.237.418.053.827a2.324,2.324,0,0,1-.4.69,2.14,2.14,0,0,1-1.813.281c-1.136-.272-1.808-1.614-3.92-2.536a13.359,13.359,0,0,1-1.342-.831c-1.021-.623-.789-2.335-.948-3.358-.318.086-1.349,1.43-1.917,1.711a3.582,3.582,0,0,1-.3-1.05c0-.091.126-.926.15-1.143C43.938,378.074,43.593,378.406,43.246,378.421Z" transform="translate(40.993 -335.901)"/>
        <path id="Path_300" data-name="Path 300" class="cls-5" d="M43.246,378.421a2.455,2.455,0,0,1-1.176.7c-.232-.705-.188-1.331-.394-1.983-.674.022-1.459,1.013-2.122,1.1-.086-1.021.818-2.3.807-2.98l-1.685-.007c.046-.276.062-.535.106-.8.071-.433.139-.285.305-.548a4.409,4.409,0,0,0,.447-1.119c-.705-.466-2.593.491-3.608-.929-.128-.177-.343-.61-.438-.705a5.516,5.516,0,0,0-2.111-1.2c-.911-.4-2.821-.416-3.4-1.079-.858-.99-.2-2.394-1.813-2.626-.745.723-1.983,5.852-1.512,6.816,1.508.321,4.262-2.348,5.5-.438a4.233,4.233,0,0,1,.555,1.32c.1.539.044,1.236.175,1.689.3,1.037,2.5.473,2.841.84a1.016,1.016,0,0,1,.031,1.349c-.29.241-.946.093-1.433.442-.626.449-1.013,1.669-1.4,2.337-.6,1.035-1.685.668-2.445.038-.9-.749-1.216-1.251-2.35-.334a24.319,24.319,0,0,0,1.3,2.962c.464.948.957,1.932,1.455,2.8l.188-.581c-.7-.276-.389-.75-.091-1.092.458-.528.758-.343.9-.99.146-.663.946-.241,1.3-.1a1.36,1.36,0,0,0,1.419-.011l.139-.59c.785-.4,3.27-1.072,4.017-.626.066.239,0,.345.086.648a3.205,3.205,0,0,0,.212.509,4.729,4.729,0,0,0,1.943,2.277c1.044.8,2.224,1.572,3.192,2.425,1.786,1.579.818,2.209,1.307,4.313a14,14,0,0,0,.648,2.191c.4.641.911,1.189.785,2a4.639,4.639,0,0,1-2.713.674,4.307,4.307,0,0,1-2.675-.71c-.082-1.563,2.481-1.6,2.722-2.832.091-.466-.1-1.886-.022-2.613a5.85,5.85,0,0,1,.234-1.152,8.869,8.869,0,0,0,.349-.988,26.7,26.7,0,0,0-4.583-3.659,15.668,15.668,0,0,0-1.167,3.161c-.716,2.991,1.3,4.075.917,5.08-.018.049-.758,1.01-.909,1.267-.254.436-.464,1.03-.946,1.236a2.944,2.944,0,0,1-1.826.126l-.263,3.489c1.937.073,4,.047,5.934-.024a8,8,0,0,1,2.73.292c.778.27.714,1.645.73,2.29,1.1.011,1-.367,1.884-.794a1.972,1.972,0,0,1,2.045-.057c1.4.615,2.631,2.027,3.115,2.237a1.817,1.817,0,0,0,.685-.761,5.553,5.553,0,0,0-1.112-.957,6.581,6.581,0,0,1-1.116-.878c-.661-.546-1.744-1.187-2.308-1.727.018-.911,1.554-2.178,1.541-3.08-.011-.619-.641-1-.626-1.7.015-.754,1.2-2.231,1.722-2.9.867-1.112,1.419-1.716,1.342-3.257a7.239,7.239,0,0,0-.471-1.789c1.125-.206,2.213.27,3.175-.692,1.528-1.525,0-5.014-.643-5.624a13.5,13.5,0,0,1-1.4-2.414,3.134,3.134,0,0,0-.354-.61,4.738,4.738,0,0,1-.2-.769,3.832,3.832,0,0,1-.3-.657c-.066-.276-.082-.531-.168-.811-.15-.5-.318-.966-.455-1.475-.955-3.493-.009-4.114-2.863-4.731a7.546,7.546,0,0,1-1.338-.519c.4.626.44.778,1.037,1.132-.137.484-.356.433-.029.595a.778.778,0,0,1-.588.617c.716.654,1.4.184,1.424.867l-.705-.015c.108.055.7.274.725.3.367.378-.31.38-.528.363a13.885,13.885,0,0,0,1.2.948,5.727,5.727,0,0,1,1.052,1.125,53.96,53.96,0,0,1,3.274,7.537c.128.577.141,1.223.283,1.826.1.4.237.418.053.827a2.324,2.324,0,0,1-.4.69,2.14,2.14,0,0,1-1.813.281c-1.136-.272-1.808-1.614-3.92-2.536a13.359,13.359,0,0,1-1.342-.831c-1.021-.623-.789-2.335-.948-3.358-.318.086-1.349,1.43-1.917,1.711a3.582,3.582,0,0,1-.3-1.05c0-.091.126-.926.15-1.143-.363.077-.707.409-1.055.424" transform="translate(40.993 -335.901)"/>
        <path id="Path_301" data-name="Path 301" class="cls-3" d="M26.505,356.6l-4.521.431a1.846,1.846,0,0,1,.248-1.377,1.943,1.943,0,0,0,.517-1.108c.04-.634-.1-.749-.517-1.105a1.722,1.722,0,0,0-3.007.8c-.031.639-.292.634.272,1.209,1.008,1.028.931.049,1.07,1.444l-4.786.48c-.141-.944-.164-.99.115-1.3a1.545,1.545,0,0,0-1.3-2.587,1.566,1.566,0,0,0-1.689,1.393c-.1.65-.146.743.316,1.165a1.4,1.4,0,0,0,1.07.548l.027.778c-.387.1-.8.181-1.141.281a7.648,7.648,0,0,1-1.284.155c-2.352.323-2.133.942-2.982-.17-.281-.369.051-.511.133-.875a1.6,1.6,0,0,0-.774-1.676c-1.3-.5-3.159-.015-2.421,1.813.29.719.7.847,1.366,1.1a1.929,1.929,0,0,1,1.207,1.3c.1.707.179,1.534.234,2.246.024.3.232,1.937.312,2.131.21.068,10.24-1.072,11.467-1.185a120,120,0,0,1,12.153-.635c2,.073,4.013.214,6.016.307,1.006.046,2.041.08,3.042.155s1.912.239,2.912.29,2.018.122,3.027.19c.975.066,2,.221,2.938.274,1.015.057,1.946.115,2.962.219a12.4,12.4,0,0,0,2.918.2c.294-.637.665-3.559.849-3.847.029-.044,1.059-1.22,1.1-1.251.325-.265,1.116-.287,1.678-.683,1.019-.719.409-2.582-.937-2.748-1.5-.186-1.777,1.083-2,1.559-.312.668-.009.471.237.736-.088.274-.042.157-.23.3-.27.206-.062.091-.252.294-.3.32-.305.044-.5.632l-4.718-.948c.066-1.384.772-.878,1.083-1.884a1.484,1.484,0,1,0-2.794-1c-.478,1.229.221,1.092.345,1.6a1.071,1.071,0,0,1-.02.723,33.992,33.992,0,0,1-5.012-.155l.015-.7c.091-.245,1.364-.425.871-1.773a1.87,1.87,0,0,0-2.887-.586c-.338.268-.265.754-.217,1.17.137,1.15.971.816.9,1.926-.926-.007-4.64-.307-5.587-.442-.17-1.311.712-.862.882-1.965.144-.924-.577-1.258-1.353-1.413a1.537,1.537,0,0,0-1.819,2.118c.237.511.513.318.853.6l.071.663-9.193.033-.1-.929a1.358,1.358,0,0,0,.836-1.968,3.028,3.028,0,0,0-.809-.75c-1.074-.736-2.909.453-2.346,1.742.237.542.385.491.761.8A2.309,2.309,0,0,1,26.505,356.6Zm3.52,2.609a8.094,8.094,0,0,1,1.269-.657c1.468-.736,1.333-.734,2.664.186.531.365.873.237,1.158.882-.212.168-.776.237-1.373.548-1.1.57-.875,1-3.018-.241-.172-.1-.1-.091-.281-.206C30.211,359.571,30.036,359.516,30.025,359.209Zm8.549.593c-.141-1.353,3.493-1.13,4.134-.948a4.162,4.162,0,0,1,.672.237c.2.1,1.021.944-.416,1.36C41.731,360.8,38.671,360.739,38.574,359.8ZM20.8,359.483a6.014,6.014,0,0,1,4.979-.164.761.761,0,0,1-.473,1.161,5.618,5.618,0,0,1-1.521.239,4.583,4.583,0,0,1-2.951-.606Zm27.96.442a6.807,6.807,0,0,1,2.313-.641,6,6,0,0,1,1.892,1.044c-.088.44-.195.265-1.015.6-1.605.657-1.192.23-1.738-.024-.179-.082-.352-.172-.528-.259C49.392,360.5,48.786,360.274,48.759,359.925Zm-35.419.909c-.015-.444.4-.617.741-.84,1.081-.7.825-1.357,3.122.29-.075.347-.444.528-.738.712C15.142,361.82,16.214,361.636,13.34,360.834Z" transform="translate(15.726 -352.426)"/>
        <path id="Path_302" data-name="Path 302" class="cls-5" d="M26.505,356.6l-4.521.431a1.846,1.846,0,0,1,.248-1.377,1.943,1.943,0,0,0,.517-1.108c.04-.634-.1-.749-.517-1.105a1.722,1.722,0,0,0-3.007.8c-.031.639-.292.634.272,1.209,1.008,1.028.931.049,1.07,1.444l-4.786.48c-.141-.944-.164-.99.115-1.3a1.545,1.545,0,0,0-1.3-2.587,1.566,1.566,0,0,0-1.689,1.393c-.1.65-.146.743.316,1.165a1.4,1.4,0,0,0,1.07.548l.027.778c-.387.1-.8.181-1.141.281a7.648,7.648,0,0,1-1.284.155c-2.352.323-2.133.942-2.982-.17-.281-.369.051-.511.133-.875a1.6,1.6,0,0,0-.774-1.676c-1.3-.5-3.159-.015-2.421,1.813.29.719.7.847,1.366,1.1a1.929,1.929,0,0,1,1.207,1.3c.1.707.179,1.534.234,2.246.024.3.232,1.937.312,2.131.21.068,10.24-1.072,11.467-1.185a120,120,0,0,1,12.153-.635c2,.073,4.013.214,6.016.307,1.006.046,2.041.08,3.042.155s1.912.239,2.912.29,2.018.122,3.027.19c.975.066,2,.221,2.938.274,1.015.057,1.946.115,2.962.219a12.4,12.4,0,0,0,2.918.2c.294-.637.665-3.559.849-3.847.029-.044,1.059-1.22,1.1-1.251.325-.265,1.116-.287,1.678-.683,1.019-.719.409-2.582-.937-2.748-1.5-.186-1.777,1.083-2,1.559-.312.668-.009.471.237.736-.088.274-.042.157-.23.3-.27.206-.062.091-.252.294-.3.32-.305.044-.5.632l-4.718-.948c.066-1.384.772-.878,1.083-1.884a1.484,1.484,0,1,0-2.794-1c-.478,1.229.221,1.092.345,1.6a1.071,1.071,0,0,1-.02.723,33.992,33.992,0,0,1-5.012-.155l.015-.7c.091-.245,1.364-.425.871-1.773a1.87,1.87,0,0,0-2.887-.586c-.338.268-.265.754-.217,1.17.137,1.15.971.816.9,1.926-.926-.007-4.64-.307-5.587-.442-.17-1.311.712-.862.882-1.965.144-.924-.577-1.258-1.353-1.413a1.537,1.537,0,0,0-1.819,2.118c.237.511.513.318.853.6l.071.663-9.193.033-.1-.929a1.358,1.358,0,0,0,.836-1.968,3.028,3.028,0,0,0-.809-.75c-1.074-.736-2.909.453-2.346,1.742.237.542.385.491.761.8a2.309,2.309,0,0,1,.4,1.242m3.52,2.609a8.094,8.094,0,0,1,1.269-.657c1.468-.736,1.333-.734,2.664.186.531.365.873.237,1.158.882-.212.168-.776.237-1.373.548-1.1.57-.875,1-3.018-.241-.172-.1-.1-.091-.281-.206-.234-.15-.409-.206-.42-.513m8.549.593c-.141-1.353,3.493-1.13,4.134-.948a4.162,4.162,0,0,1,.672.237c.2.1,1.021.944-.416,1.36-1.234.356-4.293.29-4.391-.648M20.8,359.483a6.014,6.014,0,0,1,4.979-.164.761.761,0,0,1-.473,1.161,5.618,5.618,0,0,1-1.521.239,4.583,4.583,0,0,1-2.951-.606Zm27.96.442a6.807,6.807,0,0,1,2.313-.641,6,6,0,0,1,1.892,1.044c-.088.44-.195.265-1.015.6-1.605.657-1.192.23-1.738-.024-.179-.082-.352-.172-.528-.259-.292-.146-.9-.371-.924-.721m-35.419.909c-.015-.444.4-.617.741-.84,1.081-.7.825-1.357,3.122.29-.075.347-.444.528-.738.712-1.322.825-.25.641-3.124-.161" transform="translate(15.726 -352.426)"/>
        <path id="Path_303" data-name="Path 303" class="cls-3" d="M8.5,371.733c.049.141.113.115.294.113.915,0,1.817-.19,1.6-1.514a3.576,3.576,0,0,0-.707-2.08c-.336-.546-.369-.5-.2-.533.153-.239.312-.217.535-.623A3.147,3.147,0,0,0,10,364.4l-4.061-.188c-.159-1.176.394-2.271-1.125-2.377-1.377-.1-1.426.749-2.052,1.472-.323-.044-.778-.511-1.214-.694-.827-.354-1.835.212-1.917,1.572-.042.661.234.871.394,1.384-.466.36-1.3.254-2.127,1.411-.367.515-.869,2.5,0,2.655a9.375,9.375,0,0,0-.062,2.253c.141.657-.352,1.38-.254,2.063.066.482.948,3.847,1.1,3.5.241-.1.175-.61.226-.871.38-1.957.345-2.377,2.569-2.819.635-.128.982-.493,1.537-.59a2.636,2.636,0,0,1-1.068,1.375c.29.776.1.25-.091.7.148.294.489.192.749.471-.347.393-1.391.573-1.506.756l1.105-.086c-.254.471-1.019.338-1.192.659.272.2.42,0,.747.029-.035.329-1.733,1.3-2.005,1.844,1.621,1.994.486,1,2.319,2.372.677.506.305.367.7.878.374.482,1.1,1.123,1.532,1.6a9.581,9.581,0,0,0,1.621,1.5c.175-1.165.259-.363.033-2.142.663-.051,1.932,1.1,2.308,1.061.183-.3.177-1.629.407-1.917.635-.071,1.448.856,2.067,1.061-.051-.729-.909-2.571-.831-2.936l1.665-.011c-.033-.219-.044-.524-.086-.727-.084-.371-.153-.212-.3-.484-.785-1.422-.444-1.223.287-1.769-1.647-1.417-.968-1.934-1.218-3.809-.635.015-1.044.369-1.9.21A3.357,3.357,0,0,1,6.928,373a1.393,1.393,0,0,1-.029-1.656C7.4,370.838,8.029,371.532,8.5,371.733Zm-2.646-6.288c.9.741-.038,1.539-.953,1.311-.369-.093-.524-.825-.25-.984C4.726,365.729,5.721,365.47,5.851,365.446Z" transform="translate(5.718 -341.231)"/>
        <path id="Path_304" data-name="Path 304" class="cls-5" d="M8.5,371.733c.049.141.113.115.294.113.915,0,1.817-.19,1.6-1.514a3.576,3.576,0,0,0-.707-2.08c-.336-.546-.369-.5-.2-.533.153-.239.312-.217.535-.623A3.147,3.147,0,0,0,10,364.4l-4.061-.188c-.159-1.176.394-2.271-1.125-2.377-1.377-.1-1.426.749-2.052,1.472-.323-.044-.778-.511-1.214-.694-.827-.354-1.835.212-1.917,1.572-.042.661.232.871.394,1.384-.466.36-1.3.254-2.127,1.411-.367.515-.869,2.5,0,2.655a9.375,9.375,0,0,0-.062,2.253c.141.657-.352,1.38-.254,2.063.066.482.948,3.847,1.1,3.5.241-.1.175-.61.226-.871.38-1.957.345-2.377,2.569-2.819.635-.128.982-.493,1.537-.59a2.636,2.636,0,0,1-1.068,1.375c.29.776.1.25-.091.7.148.294.489.192.749.471-.347.393-1.391.573-1.506.756l1.105-.086c-.254.471-1.019.338-1.192.659.272.2.42,0,.747.029-.035.329-1.733,1.3-2.005,1.844,1.621,1.994.486,1,2.319,2.372.677.506.305.367.7.878.374.482,1.1,1.123,1.532,1.6a9.581,9.581,0,0,0,1.621,1.5c.175-1.165.259-.363.033-2.142.663-.051,1.932,1.1,2.308,1.061.183-.3.177-1.629.407-1.917.635-.071,1.448.856,2.067,1.061-.051-.729-.909-2.571-.831-2.936l1.665-.011c-.033-.219-.044-.524-.086-.727-.084-.371-.153-.212-.3-.484-.785-1.422-.444-1.223.287-1.769-1.647-1.417-.968-1.934-1.218-3.809-.635.015-1.044.369-1.9.21A3.357,3.357,0,0,1,6.928,373a1.393,1.393,0,0,1-.029-1.656c.5-.506,1.13.188,1.6.389m-2.646-6.288c.9.741-.038,1.539-.953,1.311-.369-.093-.524-.825-.25-.984.077-.044,1.072-.3,1.2-.327" transform="translate(5.718 -341.231)"/>
        <path id="Path_305" data-name="Path 305" class="cls-3" d="M33.969,367.5l.336.272-.78,1.238c-.082,1.024-.7,2.127.371,2.708a1.608,1.608,0,0,0,1.433-.007c1.59-1.183,1.85.007,1.669.763-.148.608-.332.632-.789.966-1.176.86-2.193.166-2.8.2-.029,1.842.223,2.567-1.2,3.8.568.533,1.176.164.287,1.769-.15.272-.226.119-.307.482-.046.214-.053.5-.08.727l1.656.018c.071.281-.758,2.233-.829,2.94.639-.228,1.393-1.112,2.069-1.068.232.283.217,1.57.407,1.917.294.024.7-.478,1.1-.5a1.8,1.8,0,0,1,1.2-.555c-.031.38-.064.8-.128,1.161a3.794,3.794,0,0,0,.168.979,31.32,31.32,0,0,0,3.181-3.139c.413-.635.015-.332.716-.858.294-.221.621-.436.909-.659a12.021,12.021,0,0,0,1.362-1.762c-.637-.7-1.979-1.5-2-1.778.34-.042.482.17.745-.033-.195-.325-.937-.2-1.2-.663l1.11.062c-.172-.195-1.165-.3-1.506-.727.254-.241.354-.21.544-.5-.345-.391-.148.084.1-.659a2.711,2.711,0,0,1-1.059-1.384c.548.106.929.469,1.587.6a3.948,3.948,0,0,1,1.625.555c1.061.794.7,2.766,1.112,3.177a12.336,12.336,0,0,0,1.119-3.61c.073-.67-.4-1.333-.265-2a6.362,6.362,0,0,0-.075-2.155c.234-.256.59-.053.429-1.362a2.579,2.579,0,0,0-1.349-2.259c-.3-.175-1-.383-1.189-.544.135-.533.46-.683.394-1.437a1.869,1.869,0,0,0-.57-1.3c-1.055-.875-2.1.4-2.571.5-.433-.875-.959-1.565-2.041-1.488-1.709.119-.765,1.326-1.145,2.37l-4.117.192C33.414,365.309,33.118,366.872,33.969,367.5Zm5.18-1.647c.084.884-.274,1.105-1.108.873-.73-.2-.7-.842-.192-1.267Z" transform="translate(47.723 -341.191)"/>
        <path id="Path_306" data-name="Path 306" class="cls-5" d="M33.969,367.5l.336.272-.78,1.238c-.082,1.024-.7,2.127.371,2.708a1.608,1.608,0,0,0,1.433-.007c1.59-1.183,1.85.007,1.669.763-.148.608-.332.632-.789.966-1.176.86-2.193.166-2.8.2-.029,1.842.223,2.567-1.2,3.8.568.533,1.176.164.287,1.769-.15.272-.226.119-.307.482-.046.214-.053.5-.08.727l1.656.018c.071.281-.758,2.233-.829,2.94.639-.228,1.393-1.112,2.069-1.068.232.283.217,1.57.407,1.917.294.024.7-.478,1.1-.5a1.8,1.8,0,0,1,1.2-.555c-.031.38-.064.8-.128,1.161a3.794,3.794,0,0,0,.168.979,31.32,31.32,0,0,0,3.181-3.139c.413-.635.015-.332.716-.858.294-.221.621-.436.909-.659a12.021,12.021,0,0,0,1.362-1.762c-.637-.7-1.979-1.5-2-1.778.34-.042.482.17.745-.033-.195-.325-.937-.2-1.2-.663l1.11.062c-.172-.195-1.165-.3-1.506-.727.254-.241.354-.21.544-.5-.345-.391-.148.084.1-.659a2.711,2.711,0,0,1-1.059-1.384c.548.106.929.469,1.587.6a3.948,3.948,0,0,1,1.625.555c1.061.794.7,2.766,1.112,3.177a12.336,12.336,0,0,0,1.119-3.61c.073-.67-.4-1.333-.265-2a6.362,6.362,0,0,0-.075-2.155c.234-.256.59-.053.429-1.362a2.579,2.579,0,0,0-1.349-2.259c-.3-.175-1-.383-1.189-.544.135-.533.46-.683.394-1.437a1.869,1.869,0,0,0-.57-1.3c-1.055-.875-2.1.4-2.571.5-.433-.875-.959-1.565-2.041-1.488-1.709.119-.765,1.326-1.145,2.37l-4.117.192c-.195.875-.491,2.439.36,3.066m5.18-1.647c.084.884-.274,1.105-1.108.873-.73-.2-.7-.842-.192-1.267Z" transform="translate(47.723 -341.191)"/>
        <path id="Path_307" data-name="Path 307" class="cls-3" d="M17,370.918c-.15.274-2.147.882-2.615,2.907-.237,1.028.128,3.646,1.03,4.362a18.371,18.371,0,0,1,1.36,1.415c.38.391,1.088.882,1.525,1.247.955.8,2.863,2.091,4.057,2.947.407.294.36.292.741-.086,1.265-1.265.665-.559,1.579-1.2.119-.086.34-.19.407-.254.124-.119.119-.261.334-.4.17-.106.294-.084.475-.192l1.2-.909a7.278,7.278,0,0,0,1.532-1.245,7.924,7.924,0,0,0,1.342-1.428,5.411,5.411,0,0,0,.957-3.243,5.528,5.528,0,0,0-.641-2.206c-.553-.548-.654-.911-1.466-1.331a5.531,5.531,0,0,0-2.144-.564,5.053,5.053,0,0,0-3.215.884,2.283,2.283,0,0,0-.71.608c-.438-.033-1.74-1.154-2.423-1.426a5.376,5.376,0,0,0-2.615-.1C17.443,370.768,17.248,370.883,17,370.918Z" transform="translate(26.179 -330.628)"/>
        <path id="Path_308" data-name="Path 308" class="cls-6" d="M17,370.918c-.15.274-2.147.882-2.615,2.907-.237,1.028.128,3.646,1.03,4.362a18.371,18.371,0,0,1,1.36,1.415c.38.391,1.088.882,1.525,1.247.955.8,2.863,2.091,4.057,2.947.407.294.36.292.741-.086,1.265-1.265.665-.559,1.579-1.2.119-.086.34-.19.407-.254.124-.119.119-.261.334-.4.17-.106.294-.084.475-.192l1.2-.909a7.278,7.278,0,0,0,1.532-1.245,7.924,7.924,0,0,0,1.342-1.428,5.411,5.411,0,0,0,.957-3.243,5.528,5.528,0,0,0-.641-2.206c-.553-.548-.654-.911-1.466-1.331a5.531,5.531,0,0,0-2.144-.564,5.053,5.053,0,0,0-3.215.884,2.283,2.283,0,0,0-.71.608c-.438-.033-1.74-1.154-2.423-1.426a5.376,5.376,0,0,0-2.615-.1c-.265.064-.46.179-.705.214" transform="translate(26.179 -330.628)"/>
        <path id="Path_309" data-name="Path 309" class="cls-3" d="M18.124,375.955a4.847,4.847,0,0,1,.382-.539l.511-.46c.285-.2.959-.677,1.271-.643l-.051-.064-1.273-1.141c.051-.429,3.024-3.2,3.506-3.933a3.74,3.74,0,0,0-1.329-1.388c-.088.06-.2.122-.259.164s-.214.175-.265.219c-.2.17-.338.285-.515.449-.349.321-.592.626-.906.966a9.272,9.272,0,0,1-1.979,1.826c-.46-.223-1.388-1.6-1.93-1.751-.374.1-1.326,1.411-1.629,1.751.413.82,1.618,1.572,1.749,2.054,0,.407-3.624,3.73-3.8,4.468a4.869,4.869,0,0,0,1.751,1.209c.436-.113,3.464-3.825,3.862-4.108C17.449,375.186,18.064,375.707,18.124,375.955Z" transform="translate(22.894 -334.022)"/>
        <path id="Path_310" data-name="Path 310" class="cls-7" d="M18.124,375.955a4.847,4.847,0,0,1,.382-.539l.511-.46c.285-.2.959-.677,1.271-.643l-.051-.064-1.273-1.141c.051-.429,3.024-3.2,3.506-3.933a3.74,3.74,0,0,0-1.329-1.388c-.088.06-.2.122-.259.164s-.214.175-.265.219c-.2.17-.338.285-.515.449-.349.321-.592.626-.906.966a9.272,9.272,0,0,1-1.979,1.826c-.46-.223-1.388-1.6-1.93-1.751-.374.1-1.326,1.411-1.629,1.751.413.82,1.618,1.572,1.749,2.054,0,.407-3.624,3.73-3.8,4.468a4.869,4.869,0,0,0,1.751,1.209c.436-.113,3.464-3.825,3.862-4.108.232.153.847.674.906.922" transform="translate(22.894 -334.022)"/>
        <path id="Path_311" data-name="Path 311" class="cls-3" d="M20.921,377.99c-.011-.259-.413-.449-.606-.6s-.524-.5-.747-.531c-.212.256-2.878,2.571-3.29,2.39a2.273,2.273,0,0,1-.36-1.375,12.183,12.183,0,0,1,.427-1.391,12.4,12.4,0,0,1-1.335-1.273c-.31-.367-.831-1.357-1.086-1.583a8.433,8.433,0,0,1-.818,2.885,3.357,3.357,0,0,0-.422.8,3.777,3.777,0,0,1,1.609,1.881,9.2,9.2,0,0,1,.3,3.179c.451.073,1.108.122,1.528.241.449.128-.022.148.694.192a2.379,2.379,0,0,1,.7.217,2.4,2.4,0,0,1,1.525,2.052l4.2-.606c-.424-.542-1.309-.8-2.184-2.08-.36-.524-.146-.842-.316-1.112-.334.19.175.279-.829.42a4.037,4.037,0,0,1-1.273.033,1.321,1.321,0,0,1-.856-.475c-.4-.524.869-1.479,1.287-1.747A17.393,17.393,0,0,1,20.921,377.99Z" transform="translate(24.201 -326.954)"/>
        <path id="Path_312" data-name="Path 312" class="cls-8" d="M20.921,377.99c-.011-.259-.413-.449-.606-.6s-.524-.5-.747-.531c-.212.256-2.878,2.571-3.29,2.39a2.273,2.273,0,0,1-.36-1.375,12.183,12.183,0,0,1,.427-1.391,12.4,12.4,0,0,1-1.335-1.273c-.31-.367-.831-1.357-1.086-1.583a8.433,8.433,0,0,1-.818,2.885,3.357,3.357,0,0,0-.422.8,3.777,3.777,0,0,1,1.609,1.881,9.2,9.2,0,0,1,.3,3.179c.451.073,1.108.122,1.528.241.449.128-.022.148.694.192a2.379,2.379,0,0,1,.7.217,2.4,2.4,0,0,1,1.525,2.052l4.2-.606c-.424-.542-1.309-.8-2.184-2.08-.36-.524-.146-.842-.316-1.112-.334.19.175.279-.829.42a4.037,4.037,0,0,1-1.273.033,1.321,1.321,0,0,1-.856-.475c-.4-.524.869-1.479,1.287-1.747a17.393,17.393,0,0,1,1.859-1.517" transform="translate(24.201 -326.954)"/>
        <path id="Path_313" data-name="Path 313" class="cls-3" d="M20.794,373.791a4.679,4.679,0,0,1,1.417,1.105c.5-.157,2.06-1.857,2.733-2.186.066,1.366-.214,2.715.248,3.321a.707.707,0,0,0,.878.2c1.017-.522.447-3.144.665-4.119.327-.049.318.04.546-.34A2.507,2.507,0,0,0,27.3,369.2c-.621-1.108-3.089-1.528-3.557,1.085-.175.971.13.88-.659,1.512C22.337,372.4,21.539,373.245,20.794,373.791Z" transform="translate(34.021 -333.353)"/>
        <path id="Path_314" data-name="Path 314" class="cls-8" d="M20.794,373.791a4.679,4.679,0,0,1,1.417,1.105c.5-.157,2.06-1.857,2.733-2.186.066,1.366-.214,2.715.248,3.321a.707.707,0,0,0,.878.2c1.017-.522.447-3.144.665-4.119.327-.049.318.04.546-.34A2.507,2.507,0,0,0,27.3,369.2c-.621-1.108-3.089-1.528-3.557,1.085-.175.971.13.88-.659,1.512-.752.6-1.55,1.444-2.295,1.99" transform="translate(34.021 -333.353)"/>
        <path id="Path_315" data-name="Path 315" class="cls-3" d="M11.687,360.55c.533.6-.677,3.035-.917,3.776l.814,0a1.259,1.259,0,0,1,.186-1.17l1.035.053a2.1,2.1,0,0,1,.108.619c-.011.241-.117.334-.075.5l2.626,0c.071-.25-.241-.681.049-1.165a1.494,1.494,0,0,1,.466.75,4.347,4.347,0,0,0,1.848,1.57,2.586,2.586,0,0,1-.544-1.169l.847-.06a2.783,2.783,0,0,1,.159-1.864c.422.259.325,1.879,1.289,1.886.108-.363.254-1.508.584-1.638.276.221.2,1.267.146,1.632l1.209.013a3.745,3.745,0,0,1-.418-1.766,10.763,10.763,0,0,1-.009-1.97l-1.013,0c-.265.528-.214,1.236-.637,1.837-.511-.184-.489-1.322-.719-1.775l-1.039,0a4.212,4.212,0,0,1-.06,1.831c-.091.464.06,1.6-.42,1.8-.321-.15-.8-1.4-.964-1.8.637-.471.652-1.368.21-1.647a4.884,4.884,0,0,0-2.094-.237c.146.67.356,3.181.009,3.67-.988-.084-1.01-2.971-1.574-3.641Zm3.721,1.822a5.885,5.885,0,0,1-.015-1.307A.675.675,0,0,1,15.408,362.372Zm-3.473.245c-.035-.265.069-.862.327-.968a1.82,1.82,0,0,1,.3.964A.848.848,0,0,1,11.935,362.617Z" transform="translate(21.884 -342.804)"/>
        <path id="Path_316" data-name="Path 316" class="cls-5" d="M11.687,360.55c.533.6-.677,3.035-.917,3.776l.814,0a1.259,1.259,0,0,1,.186-1.17l1.035.053a2.1,2.1,0,0,1,.108.619c-.011.241-.117.334-.075.5l2.626,0c.071-.25-.241-.681.049-1.165a1.494,1.494,0,0,1,.466.75,4.347,4.347,0,0,0,1.848,1.57,2.586,2.586,0,0,1-.544-1.169l.847-.06a2.783,2.783,0,0,1,.159-1.864c.422.259.325,1.879,1.289,1.886.108-.363.254-1.508.584-1.638.276.221.2,1.267.146,1.632l1.209.013a3.745,3.745,0,0,1-.418-1.766,10.763,10.763,0,0,1-.009-1.97l-1.013,0c-.265.528-.214,1.236-.637,1.837-.511-.184-.489-1.322-.719-1.775l-1.039,0a4.212,4.212,0,0,1-.06,1.831c-.091.464.06,1.6-.42,1.8-.321-.15-.8-1.4-.964-1.8.637-.471.652-1.368.21-1.647a4.884,4.884,0,0,0-2.094-.237c.146.67.356,3.181.009,3.67-.988-.084-1.01-2.971-1.574-3.641Zm3.721,1.822a5.885,5.885,0,0,1-.015-1.307.675.675,0,0,1,.015,1.307m-3.473.245c-.035-.265.069-.862.327-.968a1.82,1.82,0,0,1,.3.964.848.848,0,0,1-.626,0" transform="translate(21.884 -342.804)"/>
        <path id="Path_317" data-name="Path 317" class="cls-3" d="M19.331,376.623c.462.082,1.293,1.079,1.724,1.415.747.581,4.649,4.3,4.977,4.382l1.643-1.859c-.1-.137-1.3-1.212-1.5-1.366-.449-.349-1.094-.971-1.519-1.38a30.335,30.335,0,0,1-2.974-2.764c-.4.276-.71.573-1.09.847-1.079.776-.489.367-1.074.61C19.269,376.612,19.466,376.512,19.331,376.623Z" transform="translate(32.25 -325.226)"/>
        <path id="Path_318" data-name="Path 318" class="cls-7" d="M19.331,376.623c.462.082,1.293,1.079,1.724,1.415.747.581,4.649,4.3,4.977,4.382l1.643-1.859c-.1-.137-1.3-1.212-1.5-1.366-.449-.349-1.094-.971-1.519-1.38a30.335,30.335,0,0,1-2.974-2.764c-.4.276-.71.573-1.09.847-1.079.776-.489.367-1.074.61-.252.1-.055,0-.19.115" transform="translate(32.25 -325.226)"/>
        <path id="Path_319" data-name="Path 319" class="cls-3" d="M19.151,372.259c-.4-.473-1.24-2.753-2.063-2.655a13.214,13.214,0,0,0-.157,1.968,2.06,2.06,0,0,0,.458,1.66,4.062,4.062,0,0,0,2.266,1.961,3.147,3.147,0,0,0,1.519-1.537,4.581,4.581,0,0,0-.1-2.675c-.347-.86-.394-.531-.615-.889A21.164,21.164,0,0,0,18.32,367.6a5.646,5.646,0,0,0-.168,1.318,1.667,1.667,0,0,0,.144,1.234C18.484,370.639,19.377,371.857,19.151,372.259Z" transform="translate(29.336 -334.246)"/>
        <path id="Path_320" data-name="Path 320" class="cls-5" d="M19.151,372.259c-.4-.473-1.24-2.753-2.063-2.655a13.214,13.214,0,0,0-.157,1.968,2.06,2.06,0,0,0,.458,1.66,4.062,4.062,0,0,0,2.266,1.961,3.147,3.147,0,0,0,1.519-1.537,4.581,4.581,0,0,0-.1-2.675c-.347-.86-.394-.531-.615-.889A21.164,21.164,0,0,0,18.32,367.6a5.646,5.646,0,0,0-.168,1.318,1.667,1.667,0,0,0,.144,1.234c.188.486,1.081,1.7.856,2.107" transform="translate(29.336 -334.246)"/>
        <path id="Path_321" data-name="Path 321" class="cls-3" d="M17.217,385.025c.606,3.181,5.492,2.222,4.835-.948C21.4,380.933,16.609,381.846,17.217,385.025Zm2.034-1.742a1.33,1.33,0,0,1,.736,2.556A1.33,1.33,0,0,1,19.251,383.283Z" transform="translate(29.626 -316.656)"/>
        <path id="Path_322" data-name="Path 322" class="cls-5" d="M17.217,385.025c.606,3.181,5.492,2.222,4.835-.948-.65-3.144-5.443-2.231-4.835.948m2.034-1.742a1.33,1.33,0,0,1,.736,2.556,1.33,1.33,0,0,1-.736-2.556" transform="translate(29.626 -316.656)"/>
        <path id="Path_323" data-name="Path 323" class="cls-3" d="M21.537,363.687c.168.272.177.179.133.553a6.921,6.921,0,0,1-.394,1.406,9.512,9.512,0,0,0-.6,1.782l.858-.015c-.177-.371-.3.122-.02-1.114l1.088.024a1.328,1.328,0,0,1,.093,1.094,11.361,11.361,0,0,0,2.642-.057,1.335,1.335,0,0,1-.024-1.128c.478.471.787,1.6,1.649,1.092-.1-.263-.491-.962-.646-1.245-.407-.747-.071-.608.25-1.176a.892.892,0,0,0-.559-1.161,5.046,5.046,0,0,0-1.8-.08,7.423,7.423,0,0,1,.115,2.885c-.046.449.033.648-.159.829-.926-.341-1.048-3.19-1.528-3.608A3.237,3.237,0,0,0,21.537,363.687Zm3.714,1.771a2.13,2.13,0,0,1,.06-1.247C26.1,364.328,25.722,365.413,25.251,365.458Zm-3.462.338c-.051-.4-.046-.635.261-.871a1.662,1.662,0,0,1,.378.847Z" transform="translate(33.877 -339.065)"/>
        <path id="Path_324" data-name="Path 324" class="cls-5" d="M21.537,363.687c.168.272.177.179.133.553a6.921,6.921,0,0,1-.394,1.406,9.512,9.512,0,0,0-.6,1.782l.858-.015c-.177-.371-.3.122-.02-1.114l1.088.024a1.328,1.328,0,0,1,.093,1.094,11.361,11.361,0,0,0,2.642-.057,1.335,1.335,0,0,1-.024-1.128c.478.471.787,1.6,1.649,1.092-.1-.263-.491-.962-.646-1.245-.407-.747-.071-.608.25-1.176a.892.892,0,0,0-.559-1.161,5.046,5.046,0,0,0-1.8-.08,7.423,7.423,0,0,1,.115,2.885c-.046.449.033.648-.159.829-.926-.341-1.048-3.19-1.528-3.608a3.237,3.237,0,0,0-1.1-.082m3.714,1.771a2.13,2.13,0,0,1,.06-1.247c.794.117.411,1.2-.06,1.247m-3.462.338c-.051-.4-.046-.635.261-.871a1.662,1.662,0,0,1,.378.847Z" transform="translate(33.877 -339.065)"/>
        <path id="Path_325" data-name="Path 325" class="cls-3" d="M13.422,366.824c-.586.356-.884-.018-1.393-.183.1.953.4.86,1.313.758.986-.106.749-.652,1.187-.948.356.155.228.663.922.858a2.041,2.041,0,0,0,2.642-2.408,1.739,1.739,0,0,0-2.516-1.057c-.783.466-.785.513-.948,2.209-.378.038-.422-.371-.741-.679s-.615-.385-.9-.634c.015-.765.369-.679.962-.385l.022-.588c-.413-.066-1.052-.261-1.417-.038a1.29,1.29,0,0,0-.478,1.169C12.226,366.1,13.647,365.659,13.422,366.824Zm3.228.15c-1.307.119-1.561-2.377-.5-2.806.659-.268,1.024.6,1.1,1.108A1.524,1.524,0,0,1,16.65,366.975Z" transform="translate(23.408 -339.061)"/>
        <path id="Path_326" data-name="Path 326" class="cls-5" d="M13.422,366.824c-.586.356-.884-.018-1.393-.183.1.953.4.86,1.313.758.986-.106.749-.652,1.187-.948.356.155.228.663.922.858a2.041,2.041,0,0,0,2.642-2.408,1.739,1.739,0,0,0-2.516-1.057c-.783.466-.785.513-.948,2.209-.378.038-.422-.371-.741-.679s-.615-.385-.9-.634c.015-.765.369-.679.962-.385l.022-.588c-.413-.066-1.052-.261-1.417-.038a1.29,1.29,0,0,0-.478,1.169c.144,1.2,1.565.761,1.34,1.926m3.228.15c-1.307.119-1.561-2.377-.5-2.806.659-.268,1.024.6,1.1,1.108a1.524,1.524,0,0,1-.6,1.7" transform="translate(23.408 -339.061)"/>
        <path id="Path_327" data-name="Path 327" class="cls-3" d="M18.083,363.662a10.9,10.9,0,0,1,.15,2.971c0,.559-.144.489-.168.754l1.059-.015c.1-.462-.226-.831.053-1.178.542.256.772,2.248,2.213,2.288-.378-.787-.719-1.623-1.123-2.4-.281-.546-.5-.714-.166-1.355.206-.4.612-.707.73-1.072l-.955.007c.055.195.113.254,0,.464-.177.332-.5.933-.811,1.059a7.742,7.742,0,0,1,.153-1.532Z" transform="translate(30.717 -339.029)"/>
        <path id="Path_328" data-name="Path 328" class="cls-5" d="M18.083,363.662a10.9,10.9,0,0,1,.15,2.971c0,.559-.144.489-.168.754l1.059-.015c.1-.462-.226-.831.053-1.178.542.256.772,2.248,2.213,2.288-.378-.787-.719-1.623-1.123-2.4-.281-.546-.5-.714-.166-1.355.206-.4.612-.707.73-1.072l-.955.007c.055.195.113.254,0,.464-.177.332-.5.933-.811,1.059a7.742,7.742,0,0,1,.153-1.532Z" transform="translate(30.717 -339.029)"/>
        <path id="Path_329" data-name="Path 329" class="cls-3" d="M14.954,367.367l1.092.031c-.084-.276-.287-1.165-.046-1.428.188.13.141.245.334.677.334.743.783,1.373,1.693,1.366a15.544,15.544,0,0,0-1.094-2.1c-.27-.606.181-.493.338-1.046.146-.526-.139-.758-.347-1.156l-1.97-.049a7.139,7.139,0,0,1,.031,1.019c0,.349.111.608.1.878a5.611,5.611,0,0,0,0,.944A5.84,5.84,0,0,1,14.954,367.367Zm.937-3.153a.718.718,0,0,1,.524.137l-.007.917-.5.2Z" transform="translate(26.95 -339.011)"/>
        <path id="Path_330" data-name="Path 330" class="cls-5" d="M14.954,367.367l1.092.031c-.084-.276-.287-1.165-.046-1.428.188.13.141.245.334.677.334.743.783,1.373,1.693,1.366a15.544,15.544,0,0,0-1.094-2.1c-.27-.606.181-.493.338-1.046.146-.526-.139-.758-.347-1.156l-1.97-.049a7.139,7.139,0,0,1,.031,1.019c0,.349.111.608.1.878a5.611,5.611,0,0,0,0,.944,5.84,5.84,0,0,1-.124.86m.937-3.153a.718.718,0,0,1,.524.137l-.007.917-.5.2Z" transform="translate(26.95 -339.011)"/>
        <path id="Path_331" data-name="Path 331" class="cls-3" d="M19.292,360.538c-2.078.615-1.464,4.461.935,3.732,1.8-.546,1.495-2.927.57-3.491A2.471,2.471,0,0,0,19.292,360.538Zm.27.506c.825-.175.917.6,1.028,1.212a1.37,1.37,0,0,1-.623,1.585c-.471.19-1.386-.486-.933-2.2C19.132,361.261,19.148,361.131,19.561,361.044Z" transform="translate(30.675 -342.845)"/>
        <path id="Path_332" data-name="Path 332" class="cls-5" d="M19.292,360.538c-2.078.615-1.464,4.461.935,3.732,1.8-.546,1.495-2.927.57-3.491a2.471,2.471,0,0,0-1.506-.241m.27.506c.825-.175.917.6,1.028,1.212a1.37,1.37,0,0,1-.623,1.585c-.471.19-1.386-.486-.933-2.2.1-.376.115-.506.528-.593" transform="translate(30.675 -342.845)"/>
        <path id="Path_333" data-name="Path 333" class="cls-3" d="M22.793,360.552a8.031,8.031,0,0,1-.106,3.727c1.174.053,3.268.091,3.093-1.817C25.6,360.466,24.586,360.429,22.793,360.552Zm.964.681c1.514-.865,1.506,3.058.013,2.445A11.717,11.717,0,0,1,23.757,361.233Z" transform="translate(36.313 -342.83)"/>
        <path id="Path_334" data-name="Path 334" class="cls-5" d="M22.793,360.552a8.031,8.031,0,0,1-.106,3.727c1.174.053,3.268.091,3.093-1.817-.181-2-1.194-2.034-2.987-1.91m.964.681c1.514-.865,1.506,3.058.013,2.445a11.717,11.717,0,0,1-.013-2.445" transform="translate(36.313 -342.83)"/>
        <path id="Path_335" data-name="Path 335" class="cls-3" d="M19.792,365.73a1.644,1.644,0,0,0-1.47-2.076c-1.311-.044-1.811.429-1.963,1.7a2.629,2.629,0,0,0,.195,1.543,1.385,1.385,0,0,0,1.269.5A2.194,2.194,0,0,0,19.792,365.73Zm-2.591-.122c-.159-1.837,1.5-2.209,1.753-.146a1.247,1.247,0,0,1-.774,1.466C17.592,367.074,17.243,366.092,17.2,365.608Z" transform="translate(28.614 -339.03)"/>
        <path id="Path_336" data-name="Path 336" class="cls-5" d="M19.792,365.73a1.644,1.644,0,0,0-1.47-2.076c-1.311-.044-1.811.429-1.963,1.7a2.629,2.629,0,0,0,.195,1.543,1.385,1.385,0,0,0,1.269.5,2.194,2.194,0,0,0,1.97-1.671m-2.591-.122c-.159-1.837,1.5-2.209,1.753-.146a1.247,1.247,0,0,1-.774,1.466c-.588.146-.937-.836-.979-1.32" transform="translate(28.614 -339.03)"/>
        <path id="Path_337" data-name="Path 337" class="cls-3" d="M15.694,364.276l.8-.033a1.459,1.459,0,0,1,.208-1.046l1.024-.071c.141.581.243.559.06,1.163l1.254-.04a13.565,13.565,0,0,1-1.242-3.714H16.689C17.036,361.256,16.01,363.506,15.694,364.276Zm1.223-1.665c-.066-.161-.051-.8.325-.9l.232.845A.559.559,0,0,1,16.917,362.611Z" transform="translate(27.846 -342.802)"/>
        <path id="Path_338" data-name="Path 338" class="cls-5" d="M15.694,364.276l.8-.033a1.459,1.459,0,0,1,.208-1.046l1.024-.071c.141.581.243.559.06,1.163l1.254-.04a13.565,13.565,0,0,1-1.242-3.714H16.689c.347.721-.679,2.971-.995,3.741m1.223-1.665c-.066-.161-.051-.8.325-.9l.232.845a.559.559,0,0,1-.557.057" transform="translate(27.846 -342.802)"/>
        <path id="Path_339" data-name="Path 339" class="cls-3" d="M19.725,364.31l1.1-.038-.1-1.534c.929-.186,1.539-.449,1.287-1.526-.206-.887-1.5-.663-2.206-.681-.1.818.1,2.251.044,2.938C19.836,363.762,19.749,364.027,19.725,364.31Zm1.048-3.2c.157-.035.272.062.4.17.117.418.17,1.214-.449,1.227Z" transform="translate(32.727 -342.821)"/>
        <path id="Path_340" data-name="Path 340" class="cls-5" d="M19.725,364.31l1.1-.038-.1-1.534c.929-.186,1.539-.449,1.287-1.526-.206-.887-1.5-.663-2.206-.681-.1.818.1,2.251.044,2.938-.022.292-.108.557-.133.84m1.048-3.2c.157-.035.272.062.4.17.117.418.17,1.214-.449,1.227Z" transform="translate(32.727 -342.821)"/>
        <path id="Path_341" data-name="Path 341" class="cls-3" d="M19.485,366.578c.075.975.506.948,1.4.8.314-.051.639-.077.778-.352a1.649,1.649,0,0,0,.157-.931c-.108-.756-.515-.822-1.114-1.163-.307-.175-.48-.608-.071-.754.305-.111.548.051.847.108l-.015-.544a1.873,1.873,0,0,0-1.426.024,1.279,1.279,0,0,0-.528,1.143,2.507,2.507,0,0,0,.767.924c.38.225.92.336.648.957C20.462,367.168,19.947,366.684,19.485,366.578Z" transform="translate(32.436 -339.071)"/>
        <path id="Path_342" data-name="Path 342" class="cls-5" d="M19.485,366.578c.075.975.506.948,1.4.8.314-.051.639-.077.778-.352a1.649,1.649,0,0,0,.157-.931c-.108-.756-.515-.822-1.114-1.163-.307-.175-.48-.608-.071-.754.305-.111.548.051.847.108l-.015-.544a1.873,1.873,0,0,0-1.426.024,1.279,1.279,0,0,0-.528,1.143,2.507,2.507,0,0,0,.767.924c.38.225.92.336.648.957-.469.374-.984-.111-1.446-.217" transform="translate(32.436 -339.071)"/>
        <path id="Path_343" data-name="Path 343" class="cls-3" d="M20.96,364.128l.986.115a4.167,4.167,0,0,1-.093-1.574,7.32,7.32,0,0,1-.046-1.6c.462.1.475.135.52.643.055.63-.128.535-.369.922a1.435,1.435,0,0,0,.975-.389,1.8,1.8,0,0,0,.161-1.161c-.292-.769-1.552-.524-2.158-.464-.031.1.091,1.393.077,1.7A14.483,14.483,0,0,0,20.96,364.128Z" transform="translate(34.186 -342.805)"/>
        <path id="Path_344" data-name="Path 344" class="cls-5" d="M20.96,364.128l.986.115a4.167,4.167,0,0,1-.093-1.574,7.32,7.32,0,0,1-.046-1.6c.462.1.475.135.52.643.055.63-.128.535-.369.922a1.435,1.435,0,0,0,.975-.389,1.8,1.8,0,0,0,.161-1.161c-.292-.769-1.552-.524-2.158-.464-.031.1.091,1.393.077,1.7a14.483,14.483,0,0,0-.053,1.811" transform="translate(34.186 -342.805)"/>
        <path id="Path_345" data-name="Path 345" class="cls-3" d="M23.4,364.24c-.5-.141-.363-1.426-.34-1.85.053-1.059-.086-1.26.144-1.864l-1.035.018c-.046.391.08,1.386.075,1.9,0,.323-.015.646-.018.968-.011.842-.091.363-.177.882Z" transform="translate(35.536 -342.813)"/>
        <path id="Path_346" data-name="Path 346" class="cls-5" d="M23.4,364.24c-.5-.141-.363-1.426-.34-1.85.053-1.059-.086-1.26.144-1.864l-1.035.018c-.046.391.08,1.386.075,1.9,0,.323-.015.646-.018.968-.011.842-.091.363-.177.882Z" transform="translate(35.536 -342.813)"/>
        <path id="Path_347" data-name="Path 347" class="cls-3" d="M24.315,360.535a7.544,7.544,0,0,1,.033,1.777,4.724,4.724,0,0,1-.128,1.928l1.112-.029c.009-.186-.153-.566-.175-.838-.086-1.032.292-2.078.146-2.834Z" transform="translate(38.169 -342.802)"/>
        <path id="Path_348" data-name="Path 348" class="cls-5" d="M24.315,360.535a7.544,7.544,0,0,1,.033,1.777,4.724,4.724,0,0,1-.128,1.928l1.112-.029c.009-.186-.153-.566-.175-.838-.086-1.032.292-2.078.146-2.834Z" transform="translate(38.169 -342.802)"/>
        <path id="Path_349" data-name="Path 349" class="cls-3" d="M2.966,364.8a3.177,3.177,0,0,0,.427.889c.318.462,2.319-.1,2.478-1.34C5.508,364.329,3.791,364.7,2.966,364.8Z" transform="translate(12.435 -338.186)"/>
        <path id="Path_350" data-name="Path 350" class="cls-6" d="M2.966,364.8a3.177,3.177,0,0,0,.427.889c.318.462,2.319-.1,2.478-1.34-.363-.02-2.08.356-2.905.451" transform="translate(12.435 -338.186)"/>
        <path id="Path_351" data-name="Path 351" class="cls-3" d="M34.536,364.833c-.924-.038-2.133-.484-2.867-.447a1.671,1.671,0,0,0,1.362,1.329C33.807,365.94,34.074,366.064,34.536,364.833Z" transform="translate(47.189 -338.142)"/>
        <path id="Path_352" data-name="Path 352" class="cls-6" d="M34.536,364.833c-.924-.038-2.133-.484-2.867-.447a1.671,1.671,0,0,0,1.362,1.329c.776.226,1.044.349,1.506-.882" transform="translate(47.189 -338.142)"/>
        <path id="Path_353" data-name="Path 353" class="cls-9" d="M1.968,363.467c-.13.024-1.125.283-1.2.327-.274.159-.119.891.25.984.915.228,1.848-.57.953-1.311" transform="translate(9.601 -339.252)"/>
        <path id="Path_354" data-name="Path 354" class="cls-9" d="M36.209,363.885l-1.3-.394c-.508.424-.537,1.063.192,1.267.833.232,1.192.011,1.108-.873" transform="translate(50.663 -339.223)"/>
        <path id="Path_355" data-name="Path 355" class="cls-3" d="M21.119,363.8c.221.261.274.164.6.031a2.387,2.387,0,0,0,.6-.318c-.013-.237,0-.265-.157-.416A9.556,9.556,0,0,0,21.119,363.8Z" transform="translate(34.414 -339.706)"/>
        <path id="Path_356" data-name="Path 356" class="cls-5" d="M21.119,363.8c.221.261.274.164.6.031a2.387,2.387,0,0,0,.6-.318c-.013-.237,0-.265-.157-.416a9.556,9.556,0,0,0-1.046.7" transform="translate(34.414 -339.706)"/>
      </g>
    </g>
    <path id="Path_357" data-name="Path 357" class="cls-3" d="M6.795,384.088l.044-.057-.086-.084Z" transform="translate(13.019 38.059)"/>
    <path id="Path_358" data-name="Path 358" class="cls-10" d="M6.794,384.088l.044-.057-.086-.084Z" transform="translate(13.019 38.058)"/>
  </g>
</svg>
